<?xml version="1.0" standalone="no"?>
<!DOCTYPE svg PUBLIC "-//W3C//DTD SVG 1.1//EN" "http://www.w3.org/Graphics/SVG/1.1/DTD/svg11.dtd" >
<svg xmlns="http://www.w3.org/2000/svg">
<metadata></metadata>
<defs>
<font id="savoybold" horiz-adv-x="1024" >
<font-face units-per-em="2048" ascent="1579" descent="-469" />
<missing-glyph horiz-adv-x="614" />
<glyph unicode="&#xfb01;" horiz-adv-x="1116" d="M41 -4v49h43q64 0 82 18q5 5 7 10t3.5 28.5t1.5 72.5v594h-135v37l68 33q41 20 52.5 30t12.5 31l2 66q0 212 119 368q61 81 144.5 130.5t158.5 49.5q54 0 90.5 -33.5t36.5 -82.5q0 -47 -31.5 -83t-74.5 -36q-35 0 -56 35q-26 34 -47 47.5t-49 13.5q-29 0 -46 -16.5 t-24 -54.5q-8 -35 -8 -189v-240h152q181 0 249.5 7.5t122.5 33.5l39 -6v-735q0 -50 2 -74t4.5 -29t8.5 -10q22 -16 80 -16h28v-49q-162 4 -239 4q-113 0 -217 -4v49h28q64 0 82 18q5 5 7 10t3.5 28.5t1.5 72.5v498q0 38 -4.5 51t-21.5 20q-45 25 -170 25h-158v-594 q0 -51 1.5 -74.5t4 -28.5t8.5 -10q22 -16 80 -16h43v-49q-188 4 -264 4q-78 0 -221 -4zM750 1253q0 46 34.5 80.5t81.5 34.5t82 -35t35 -82t-35 -81.5t-82 -34.5q-49 0 -82.5 34t-33.5 84z" />
<glyph unicode="&#xfb02;" horiz-adv-x="1116" d="M41 -4v49h43q64 0 82 18q5 5 7 10t3.5 28.5t1.5 72.5v594h-135v37l68 33q41 20 52.5 30t12.5 31l2 66q9 220 119 368q61 81 144.5 130.5t158.5 49.5q44 0 77.5 -23t45.5 -63q133 48 201 82l30 -6v-1329q0 -50 2 -74t4.5 -29t8.5 -10q22 -16 80 -16h28v-49q-160 4 -235 4 q-69 0 -221 -4v49h28q64 0 82 18q5 5 7 10t3.5 28.5t1.5 72.5v1098q0 39 -4 48.5t-26 18.5q-38 -61 -95 -61q-32 0 -55 35q-25 34 -45.5 47.5t-48.5 13.5q-29 0 -46 -16.5t-24 -54.5q-8 -47 -8 -189v-240h248v-106h-250v-594q0 -51 1.5 -74.5t4 -28.5t8.5 -10q22 -16 80 -16 h43v-49q-188 4 -264 4q-78 0 -221 -4z" />
<glyph unicode="&#xfb03;" horiz-adv-x="1681" d="M41 -4v49h43q64 0 82 18q5 5 7 10t3.5 28.5t1.5 72.5v594h-135v37l68 33q41 20 52.5 30t12.5 31l2 66q0 212 119 368q61 81 144.5 130.5t158.5 49.5q54 0 90.5 -33.5t36.5 -82.5q0 -47 -31.5 -83t-74.5 -36q-35 0 -56 35q-26 34 -47 47.5t-49 13.5q-29 0 -46 -16.5 t-24 -54.5q-8 -35 -8 -189v-240h352v56q0 102 16.5 177.5t55.5 149.5q60 112 158 184t192 72q54 0 90.5 -33.5t36.5 -82.5q0 -47 -31.5 -83t-74.5 -36q-35 0 -56 35q-26 34 -47 47.5t-49 13.5q-29 0 -45.5 -16.5t-23.5 -54.5q-9 -39 -9 -189v-240h152q181 0 250 7.5 t123 33.5l39 -6v-735q0 -51 1.5 -74.5t4 -28.5t8.5 -10q22 -16 80 -16h28v-49q-162 4 -239 4q-113 0 -217 -4v49h28q64 0 82 18q5 5 7 9.5t4 29t2 72.5v498q0 37 -5 50.5t-22 20.5q-45 25 -170 25h-158v-594q0 -50 2 -74t4.5 -29t8.5 -10q22 -16 80 -16h43v-49 q-188 4 -265 4q-78 0 -221 -4v49h43q64 0 82 18q5 5 7 10t3.5 28.5t1.5 72.5v594h-354v-594q0 -51 1.5 -74.5t4 -28.5t8.5 -10q22 -16 80 -16h43v-49q-188 4 -264 4q-78 0 -221 -4zM1315 1253q0 46 35 80.5t82 34.5t81.5 -35t34.5 -82t-34.5 -81.5t-81.5 -34.5q-49 0 -83 34 t-34 84z" />
<glyph unicode="&#xfb04;" horiz-adv-x="1677" d="M41 -4v49h43q64 0 82 18q5 5 7 10t3.5 28.5t1.5 72.5v594h-135v37l68 33q41 20 52.5 30t12.5 31l2 66q9 220 119 368q61 81 144 130.5t157 49.5q54 0 90.5 -33.5t36.5 -82.5q0 -47 -32 -83t-75 -36q-32 0 -55 35q-25 34 -45.5 47.5t-48.5 13.5q-29 0 -46 -16.5t-24 -54.5 q-8 -47 -8 -189v-240h350v68q0 227 121 391q61 81 144.5 130.5t158.5 49.5q44 0 77.5 -23t45.5 -63q133 48 201 82l31 -6v-1329q0 -51 1.5 -74.5t4 -28.5t8.5 -10q22 -16 80 -16h28v-49q-160 4 -235 4q-69 0 -221 -4v49h28q64 0 82 18q5 5 7 9.5t4 29t2 72.5v1098 q0 38 -4.5 48t-26.5 19q-38 -61 -94 -61q-33 0 -56 35q-25 34 -45.5 47.5t-48.5 13.5q-29 0 -45.5 -16.5t-23.5 -54.5q-9 -52 -9 -189v-240h248v-106h-250v-594q0 -50 2 -74t4.5 -29t8.5 -10q22 -16 80 -16h43v-49q-188 4 -265 4q-115 0 -221 -4v49h43q64 0 82 18q5 5 7 10 t3.5 28.5t1.5 72.5v594h-354v-594q0 -51 1.5 -74.5t4 -28.5t8.5 -10q22 -16 80 -16h43v-49q-188 4 -264 4q-78 0 -221 -4z" />
<glyph horiz-adv-x="2048" />
<glyph horiz-adv-x="2048" />
<glyph unicode="&#xd;" horiz-adv-x="2048" />
<glyph unicode=" "  horiz-adv-x="614" />
<glyph unicode="&#x09;" horiz-adv-x="614" />
<glyph unicode="&#xa0;" horiz-adv-x="614" />
<glyph unicode="!" horiz-adv-x="559" d="M129 125q0 61 45 105t107 44q61 0 105 -44t44 -105q0 -63 -43.5 -107.5t-105.5 -44.5q-63 0 -107.5 44.5t-44.5 107.5zM131 1208q0 80 43 132.5t107 52.5q66 0 107.5 -52t41.5 -135q0 -32 -14 -106l-121 -633h-31l-121 633q-12 67 -12 108z" />
<glyph unicode="&#x22;" horiz-adv-x="802" d="M94 1366h232l-66 -549h-100zM475 1366h234l-68 -549h-100z" />
<glyph unicode="#" horiz-adv-x="1198" d="M82 467l16 96h244l55 266h-233l16 97h242l98 440h105l-99 -440h273l98 440h107l-101 -440h219l-14 -97h-229l-56 -266h221l-16 -96h-229l-107 -467h-104l106 467h-272l-107 -467h-104l106 467h-235zM446 563h273l55 266h-272z" />
<glyph unicode="$" horiz-adv-x="1062" d="M98 332l45 12q91 -302 361 -299v526q-8 4 -18.5 11t-12.5 8q-151 81 -185 103t-67 59q-94 107 -94 249q0 145 95.5 242t281.5 141v107h57v-105q173 0 305 -47l15 -249l-43 -11q-44 126 -107 179.5t-170 56.5v-514q220 -95 313 -192t93 -230q0 -97 -46 -184t-128 -144 q-53 -36 -105.5 -53t-126.5 -23v-161h-57v159q-77 0 -179 20t-180 50zM303 1090q0 -82 47.5 -144t153.5 -119v486q-91 -8 -146 -68.5t-55 -154.5zM561 45q86 10 131 45q41 32 65.5 84t24.5 107q0 159 -221 262v-498z" />
<glyph unicode="%" horiz-adv-x="1687" d="M70 1047q0 149 96.5 247.5t241.5 98.5t242.5 -100t97.5 -246q0 -148 -98.5 -247.5t-246.5 -99.5q-141 0 -237 99.5t-96 247.5zM238 1036q0 -129 49 -215t121 -86q46 0 81.5 28.5t55 74.5t29.5 96.5t10 101.5t-9.5 101.5t-29 96.5t-54 74.5t-79.5 28.5q-75 0 -124.5 -85.5 t-49.5 -215.5zM487 0l617 1366h90l-619 -1366h-88zM944 319q0 149 96.5 248t241.5 99q142 0 240 -100.5t98 -246.5q0 -148 -98 -247t-244 -99q-141 0 -237.5 99.5t-96.5 246.5zM1112 309q0 -129 49 -215t121 -86q76 0 125 84.5t49 216.5q0 52 -9.5 102t-28.5 96t-54 74.5 t-80 28.5q-75 0 -123.5 -85t-48.5 -216z" />
<glyph unicode="&#x26;" horiz-adv-x="1777" d="M72 381q0 158 108 272q46 46 203 164q-76 66 -109.5 127.5t-33.5 136.5q0 123 102 211t244 88q114 0 186 -59.5t72 -153.5q0 -64 -31.5 -105.5t-140.5 -121.5q-2 -2 -8 -7l-15 -12.5t-16 -13.5q135 -83 242 -178.5t208 -222.5l181 278q39 61 39 113q0 44 -28.5 65.5 t-100.5 28.5v56q46 -1 105 -2t98.5 -2t66.5 -1q24 0 62 1t95.5 2t102.5 2v-56q-114 -2 -195 -54.5t-176 -188.5l-203 -291q100 -144 150 -201q52 -61 120 -96t136 -35q52 0 90.5 19.5t110.5 82.5l28 -32q-88 -116 -179 -171t-195 -55q-136 0 -232 90q-38 37 -69 75.5 t-105 139.5q-153 -162 -264.5 -227t-235.5 -65q-173 0 -293 116t-120 283zM256 492q0 -135 107 -232.5t253 -97.5q99 0 169.5 34.5t162.5 127.5q-149 174 -254 269t-258 191q-52 -42 -74.5 -63t-42.5 -47q-63 -76 -63 -182zM387 1157q0 -60 40 -107.5t146 -111.5q3 2 15 8 q51 32 78.5 81.5t27.5 105.5q0 77 -44.5 133.5t-104.5 56.5q-61 0 -109.5 -50.5t-48.5 -115.5z" />
<glyph unicode="'" horiz-adv-x="452" d="M106 1366h240l-65 -549h-109z" />
<glyph unicode="(" horiz-adv-x="679" d="M82 596q0 176 46 332t148 317q45 72 97 136t151 171l47 -43q-158 -218 -229.5 -432.5t-71.5 -470.5q0 -311 105 -583q32 -85 73 -158t113 -172l-37 -45q-224 229 -333 462.5t-109 485.5z" />
<glyph unicode=")" horiz-adv-x="679" d="M109 -307q158 220 229.5 433t71.5 468q0 311 -105 586q-57 151 -186 329l37 43q225 -229 333.5 -462t108.5 -486q0 -175 -46.5 -330t-148.5 -317q-45 -72 -97 -136.5t-150 -172.5z" />
<glyph unicode="*" horiz-adv-x="890" d="M106 1169q0 31 28.5 56.5t62.5 25.5q29 0 64 -15.5t151 -78.5q-169 -76 -211 -76q-36 0 -65.5 27t-29.5 61zM299 905q0 34 26.5 67t135.5 134q12 -132 12 -170q0 -54 -26.5 -86.5t-69.5 -32.5q-32 0 -55 25.5t-23 62.5zM313 1419q0 35 23.5 62.5t54.5 27.5 q39 0 65.5 -29.5t26.5 -72.5q0 -48 -28 -195q-87 93 -114.5 133t-27.5 74zM518 1130q126 -25 182 -45q34 -12 53 -38t19 -58q0 -35 -22.5 -56.5t-59.5 -21.5q-36 0 -61 21.5t-54 77.5q-5 10 -8.5 18t-16 34.5t-32.5 67.5zM518 1188q71 130 104 166.5t78 36.5q36 0 60 -22 t24 -54q0 -34 -20.5 -59.5t-56.5 -34.5q-49 -14 -189 -33z" />
<glyph unicode="+" d="M31 657v123h415v404h127v-404h420v-123h-420v-403h-127v403h-415z" />
<glyph unicode="," horiz-adv-x="546" d="M72 -281q72 26 121 56q40 26 65 68t25 83q0 38 -33 68q-6 8 -15.5 13t-60.5 28q-28 13 -45.5 45.5t-17.5 69.5q0 58 38.5 95.5t98.5 37.5q77 0 131.5 -67.5t54.5 -162.5q0 -71 -36 -145t-97 -129q-89 -81 -219 -105z" />
<glyph unicode="-" horiz-adv-x="442" d="M0 371l27 137h415l-26 -137h-416z" />
<glyph unicode="." horiz-adv-x="546" d="M123 125q0 61 44.5 105t106.5 44t106 -44t44 -105q0 -63 -44 -107.5t-106 -44.5q-63 0 -107 44.5t-44 107.5z" />
<glyph unicode="/" horiz-adv-x="1122" d="M35 -307l895 1816h137l-895 -1816h-137z" />
<glyph unicode="0" horiz-adv-x="1062" d="M74 680q0 109 16 209t52 191.5t89 158.5t132 107t176 40q203 0 327.5 -194t124.5 -510q0 -318 -126 -510t-333 -192t-332.5 192t-125.5 508zM291 686q0 -643 241 -643q120 0 181 162t61 477q0 190 -24.5 335.5t-67.5 213.5q-62 92 -145 92q-246 0 -246 -637z" />
<glyph unicode="1" horiz-adv-x="1062" d="M174 1096q66 40 72 43q151 87 211 127t186 137h51v-1131q0 -105 4 -131t21 -45q19 -20 69.5 -32.5t112.5 -12.5h21v-55q-221 4 -353 4q-122 0 -327 -4v55h30q98 0 148 29q28 18 39 43.5t10 75.5l-2 92v891q-40 -20 -132.5 -70t-131.5 -70z" />
<glyph unicode="2" horiz-adv-x="1062" d="M51 0v66q75 56 119.5 96.5t130.5 132.5q117 121 168.5 189.5t101.5 166.5q72 147 72 258q0 134 -73.5 219.5t-188.5 85.5q-72 0 -128 -35.5t-128 -127.5l-37 26q66 114 127 172q66 61 149.5 96t161.5 35q144 0 244 -99.5t100 -242.5q0 -157 -134 -354t-437 -483h532 q34 0 46.5 7.5t25.5 39.5l27 61h53l-59 -309h-873z" />
<glyph unicode="3" horiz-adv-x="1062" d="M49 119q0 28 25 53t53 25q21 0 43 -39q72 -113 217 -113q123 0 204 89.5t81 227.5q0 129 -86.5 218.5t-212.5 89.5q-43 0 -107 -21l-12 49q183 60 270.5 141.5t87.5 190.5q0 92 -62.5 153.5t-156.5 61.5q-55 0 -103.5 -23.5t-113.5 -82.5l-31 35q110 114 197.5 160 t192.5 46q70 0 120 -20t93 -64q71 -71 71 -174q0 -95 -58.5 -170.5t-209.5 -173.5q131 -10 197 -43q71 -35 112 -107t41 -161q0 -85 -41.5 -172.5t-114.5 -157.5q-84 -83 -184 -120t-237 -37q-123 0 -199 38t-76 101z" />
<glyph unicode="4" horiz-adv-x="1062" d="M57 408v106l654 864h102v-800h166v-170h-166v-408h-213v408h-543zM186 578h414v542z" />
<glyph unicode="5" horiz-adv-x="1062" d="M82 117q0 29 23.5 53.5t52.5 24.5q11 0 18 -6.5t19 -26.5q42 -65 88.5 -91t124.5 -26q76 0 127 26.5t94 88.5q57 85 57 182q0 63 -30.5 131t-84.5 125q-66 69 -151 112t-213 72l186 584h531l-72 -199h-459l-61 -180q109 -25 182.5 -57t140.5 -84q99 -76 152 -177t53 -212 q0 -131 -67 -240.5t-183.5 -173t-255.5 -63.5q-116 0 -194 39.5t-78 97.5z" />
<glyph unicode="6" horiz-adv-x="1062" d="M78 496q0 210 117 399.5t335 331.5q99 64 198.5 103t234.5 69l22 -41q-122 -33 -220 -89.5t-196 -148.5q-123 -115 -189.5 -267t-66.5 -316q0 -211 85 -350.5t214 -139.5q82 0 131.5 64t49.5 170q0 148 -77 252t-186 104q-49 0 -114 -33l-6 43q74 72 133.5 100.5 t130.5 28.5q138 0 231.5 -100.5t93.5 -249.5q0 -188 -128.5 -316t-317.5 -128q-206 0 -340.5 145.5t-134.5 368.5z" />
<glyph unicode="7" horiz-adv-x="1062" d="M98 1038l49 328h852l19 -18l-725 -1385l-80 41l592 1149h-563q-32 0 -40.5 -5t-21.5 -36l-33 -74h-49z" />
<glyph unicode="8" horiz-adv-x="1062" d="M115 303q0 61 20 112t62.5 94t79 70t98.5 66q-127 83 -186.5 169.5t-59.5 189.5q0 164 117.5 273t292.5 109q158 0 261 -86.5t103 -218.5q0 -99 -59.5 -176t-196.5 -155q93 -58 124.5 -79.5t66.5 -52.5q110 -90 110 -253q0 -152 -117 -263q-128 -122 -309 -122 q-173 0 -290 92.5t-117 230.5zM272 330q0 -132 70 -213.5t184 -81.5q94 0 161 64t67 155q0 119 -113 213q-68 56 -217 145q-80 -62 -116 -128.5t-36 -153.5zM307 1104q0 -87 62 -158.5t223 -169.5q164 105 164 281q0 112 -66.5 188t-163.5 76q-91 0 -155 -63t-64 -154z" />
<glyph unicode="9" horiz-adv-x="1062" d="M68 946q0 189 128.5 313.5t323.5 124.5q209 0 338 -153q60 -73 92.5 -169.5t32.5 -199.5q0 -192 -107.5 -375t-297.5 -315q-178 -122 -476 -207l-18 43q280 111 436 258q119 111 182 299q50 145 50 281q0 127 -39 237t-104.5 175t-141.5 65q-83 0 -139 -66.5t-56 -164.5 q0 -155 76.5 -262t186.5 -107q49 0 106 33l12 -37q-122 -125 -262 -125q-62 0 -123 27.5t-108 76.5q-92 92 -92 248z" />
<glyph unicode=":" horiz-adv-x="546" d="M123 125q0 61 44.5 105t106.5 44t106 -44t44 -105q0 -63 -44 -107.5t-106 -44.5q-63 0 -107 44.5t-44 107.5zM123 713q0 61 44.5 105t106.5 44t106 -44t44 -105q0 -63 -44 -107.5t-106 -44.5q-63 0 -107 44.5t-44 107.5z" />
<glyph unicode=";" horiz-adv-x="546" d="M72 -281q72 26 121 56q40 26 65 68t25 83q0 38 -33 68q-6 8 -15.5 13t-60.5 28q-28 13 -45.5 45.5t-17.5 69.5q0 58 38.5 95.5t98.5 37.5q77 0 131.5 -67.5t54.5 -162.5q0 -71 -36 -145t-97 -129q-89 -81 -219 -105zM102 713q0 61 45 105t107 44t105.5 -44t43.5 -105 q0 -63 -43.5 -107.5t-105.5 -44.5q-63 0 -107.5 44.5t-44.5 107.5z" />
<glyph unicode="&#x3c;" d="M84 721v14l856 543v-104l-571 -367l571 -385v-281z" />
<glyph unicode="=" d="M31 510v119h962v-119h-962zM31 811v119h962v-119h-962z" />
<glyph unicode="&#x3e;" d="M84 141v105l571 368l-571 385v279l856 -580v-14z" />
<glyph unicode="?" horiz-adv-x="743" d="M121 1278q0 47 40 82t95 35q88 0 166 -51t131 -142q46 -82 77.5 -180.5t31.5 -161.5q0 -107 -75.5 -188.5t-201.5 -112.5q-67 -15 -82.5 -37.5t-21.5 -115.5h-45l-13 299v45q0 24 8.5 30t40.5 4q39 -2 93 10t81 29q49 29 78 76t29 98q0 75 -62.5 134t-142.5 59 q-37 0 -80 -14q-37 -11 -47 -11q-37 0 -68.5 36t-31.5 77zM129 125q0 61 45 105t107 44q61 0 105 -44t44 -105q0 -63 -43.5 -107.5t-105.5 -44.5q-63 0 -107.5 44.5t-44.5 107.5z" />
<glyph unicode="@" horiz-adv-x="1595" d="M115 420q0 173 84 335t227 263q193 139 446 139q175 0 314.5 -71t218 -198.5t78.5 -287.5q0 -141 -60.5 -269.5t-160.5 -206t-209 -77.5q-59 0 -97.5 44.5t-42.5 117.5q-57 -80 -125 -123t-137 -43q-91 0 -149 74.5t-58 191.5q0 126 59.5 250t154 201.5t190.5 77.5 q119 0 186 -105l19 78q48 0 133 10l-135 -495q-23 -84 -23 -123q0 -37 17.5 -57.5t48.5 -20.5q38 0 85.5 31t92.5 84q127 152 127 350q0 212 -148.5 349.5t-376.5 137.5q-135 0 -255.5 -48.5t-208.5 -139.5q-83 -86 -141 -228.5t-58 -261.5q0 -116 55 -235.5t146 -198.5 q78 -70 179.5 -108.5t207.5 -38.5q90 0 179 29t159 81q7 5 125 103l81 -15q-93 -96 -161 -149q-77 -61 -184 -96t-214 -35q-137 0 -261 54t-213 145.5t-142 218t-53 266.5zM578 250q0 -60 29.5 -98.5t76.5 -38.5q69 0 136 80t104 206q10 38 10 41l55 172q4 12 4 19 q0 66 -28.5 103.5t-79.5 37.5q-115 0 -209 -174q-44 -85 -71 -180t-27 -168z" />
<glyph unicode="A" horiz-adv-x="1327" d="M-35 51q80 0 118 33.5t75 136.5l395 1110q77 17 149 64q26 20 37 20q9 0 12.5 -4.5t12.5 -28.5l416 -1189q30 -87 65.5 -114.5t108.5 -27.5v-55q-203 4 -283 4q-76 0 -283 -4v55q84 3 113 16t29 48q0 24 -21 82l-102 299h-455l-98 -285q-14 -47 -14 -72q0 -78 118 -84 q8 0 48 -4v-55q-106 4 -230 4q-115 0 -209 -4zM385 584h389l-190 563z" />
<glyph unicode="B" horiz-adv-x="1251" d="M55 1315v55q43 -2 90 -2q74 -2 146 -2q31 0 164 7t159 7q188 0 306 -63q72 -40 117.5 -112.5t45.5 -147.5q0 -67 -35.5 -128.5t-99.5 -103.5q-36 -26 -74.5 -43.5t-115.5 -44.5q140 -20 215 -51q95 -38 144.5 -116t49.5 -187q0 -179 -149 -288t-393 -109q-37 0 -113 6 q-117 8 -223 8q-56 0 -232 -4v55h31q48 0 63 2.5t29 12.5q23 17 31 45t8 92v960q0 64 -8 92t-31 45q-14 10 -29 12.5t-63 2.5h-33zM457 768h4q189 0 256 37q49 28 80.5 93t31.5 138q0 66 -28 126.5t-74 92.5q-59 41 -156 41q-41 0 -110 -10zM459 260q0 -55 2.5 -84t8.5 -46 t19 -30q42 -39 140 -39q66 0 108.5 17.5t77.5 60.5q86 103 86 242q0 92 -42.5 164t-119.5 112q-29 16 -61 23.5t-80 11t-139 4.5v-436z" />
<glyph unicode="C" horiz-adv-x="1454" d="M80 686q0 202 98.5 366t272 256.5t387.5 92.5q95 0 221 -29t325 -96l2 -318l-51 5q-20 81 -41 125.5t-55 80.5q-63 66 -164 105t-211 39q-229 0 -368.5 -166t-139.5 -438q0 -217 103 -400q75 -135 187 -204.5t253 -69.5q99 0 183.5 36t142.5 103q32 35 52.5 73.5 t45.5 108.5l47 -12l-41 -295q-214 -84 -459 -84q-139 0 -268 34t-225 97q-136 88 -216.5 247.5t-80.5 342.5z" />
<glyph unicode="D" horiz-adv-x="1572" d="M55 -4v55h33q34 0 50.5 1.5t24 4t17.5 9.5q23 17 31 45t8 92v960q0 64 -8 92t-31 45q-14 10 -29 12.5t-63 2.5h-33v55q201 -4 246 -4q46 0 194 7t177 7q145 0 285.5 -39.5t244.5 -109.5q130 -88 210.5 -239.5t80.5 -309.5q0 -157 -78 -307.5t-209 -245.5 q-196 -143 -487 -143q-51 0 -203 7t-205 7q-55 0 -256 -4zM459 326q0 -99 21.5 -153.5t70 -78.5t137.5 -24q249 0 397 176q146 176 146 420q0 165 -63 306t-171 218q-48 34 -107.5 57.5t-126.5 36t-136 12.5q-39 0 -168 -8v-962z" />
<glyph unicode="E" horiz-adv-x="1198" d="M55 -4v55h33q48 0 63 2.5t29 12.5q23 17 31 45t8 92v960q0 64 -8 92t-31 45q-14 10 -29 12.5t-63 2.5h-33v55q180 -4 285 -4h420q155 0 282 4l19 -303l-43 -6q-23 91 -42.5 129.5t-51.5 58.5q-34 21 -65 25t-152 4h-248v-528h289q37 0 67.5 14t42.5 37q12 19 17 41.5 t8 75.5h49q-4 -96 -4 -203q0 -70 4 -238h-49q-6 54 -15 82t-28 51q-17 23 -48 37.5t-63 14.5h-270v-386q0 -45 2 -72t9.5 -50t19 -34.5t34 -19.5t50 -10t71.5 -2h217q134 0 195 64q48 52 76 149l49 -6l-70 -299q-127 4 -283 4h-489q-101 0 -285 -4z" />
<glyph unicode="F" horiz-adv-x="1083" d="M55 -4v55h33q48 0 63 2.5t29 12.5q23 17 31 45t8 92v960q0 64 -8 92t-31 45q-14 10 -29 12.5t-63 2.5h-33v55q190 -4 291 -4h410q157 0 284 4l17 -305l-45 -4q-12 66 -27.5 101.5t-44.5 64.5q-34 32 -70 41.5t-131 9.5h-280v-528h264q83 0 121 40t41 130h49 q-4 -94 -4 -205q0 -115 4 -234h-49q-6 98 -47 139.5t-133 41.5h-246v-459q0 -64 8 -92t31 -45q14 -10 29 -12.5t63 -2.5h74v-55q-262 4 -332 4q-82 0 -277 -4z" />
<glyph unicode="G" horiz-adv-x="1570" d="M96 674q0 148 63 282.5t169.5 232t253 155t307.5 57.5q72 0 123.5 -8.5t257.5 -53.5q27 -7 153 -24l23 -330l-51 -8q-26 82 -50.5 127.5t-64.5 85.5q-60 61 -156.5 97t-199.5 36q-156 0 -283.5 -81t-199.5 -223.5t-72 -318.5q0 -188 74.5 -340.5t205.5 -238.5t293 -86 q135 0 227 51v254q0 65 -7 92.5t-29 44.5q-14 9 -29.5 12t-63.5 3h-41v55q174 -4 265 -4q85 0 280 4v-55h-10q-42 0 -57 -3t-27 -12q-23 -17 -31 -45t-8 -92v-156q0 -68 7 -86t36 -22v-39q-116 -34 -266 -56t-268 -22q-274 0 -459 98q-169 92 -267 258t-98 359z" />
<glyph unicode="H" horiz-adv-x="1650" d="M55 -4v55h33q48 0 63 2.5t29 12.5q23 17 31 45t8 92v960q0 64 -8 92t-31 45q-14 10 -29 12.5t-63 2.5h-33v55q190 -4 283 -4q88 0 285 4v-55h-33q-48 0 -63 -2.5t-29 -12.5q-23 -17 -31 -45t-8 -92v-413h735v413q0 64 -8 92t-31 45q-14 10 -29 12.5t-63 2.5h-33v55 q190 -4 283 -4q83 0 284 4v-55h-32q-48 0 -63 -2.5t-29 -12.5q-23 -17 -31 -45t-8 -92v-960q0 -64 8 -92t31 -45q14 -10 29 -12.5t63 -2.5h32v-55q-213 4 -284 4q-78 0 -283 -4v55h33q48 0 63 2.5t29 12.5q23 17 31 45t8 92v459h-735v-459q0 -67 7 -92.5t30 -44.5 q14 -10 29.5 -12.5t62.5 -2.5h35v-55q-190 4 -277 4q-84 0 -291 -4z" />
<glyph unicode="I" horiz-adv-x="675" d="M55 -4v55h33q48 0 63 2.5t29 12.5q23 17 31 45t8 92v960q0 64 -8 92t-31 45q-14 10 -29 12.5t-63 2.5h-33v55q190 -4 283 -4q88 0 283 4v-55h-33q-48 0 -63 -2.5t-29 -12.5q-23 -17 -31 -45t-8 -92v-960q0 -64 8 -92t31 -45q14 -10 29 -12.5t63 -2.5h33v-55 q-190 4 -283 4q-88 0 -283 -4z" />
<glyph unicode="J" horiz-adv-x="655" d="M-182 -266q0 43 33 73.5t79 30.5t67.5 -26t33.5 -97q6 -34 29 -57t51 -23q106 0 106 236v1292q0 64 -8 92t-31 45q-14 10 -29 12.5t-63 2.5h-47v55q252 -4 301 -4q72 0 281 4v-55h-33q-48 0 -63 -2.5t-29 -12.5q-23 -17 -31 -45t-8 -92v-1081q0 -144 -54 -261.5 t-149.5 -184t-212.5 -66.5q-97 0 -160 46.5t-63 117.5z" />
<glyph unicode="K" horiz-adv-x="1382" d="M55 -4v55h33q48 0 63 2.5t29 12.5q23 17 31 45t8 92v960q0 64 -8 92t-31 45q-14 10 -29 12.5t-63 2.5h-33v55q180 -4 275 -4q86 0 291 4v-55h-33q-48 0 -63 -2.5t-29 -12.5q-23 -17 -31 -45t-8 -92v-960q0 -64 8 -92t31 -45q14 -10 29 -12.5t63 -2.5h33v-55 q-201 4 -291 4q-91 0 -275 -4zM465 676l455 500q49 55 49 92q0 26 -24 35.5t-93 11.5v55q141 -4 248 -4q103 0 248 4v-55q-95 -3 -170.5 -42.5t-163.5 -133.5l-324 -342l492 -609q56 -70 102.5 -100.5t112.5 -36.5v-55q-172 4 -193 4q-24 0 -188 -4z" />
<glyph unicode="L" horiz-adv-x="1169" d="M55 -4v55h33q48 0 63 2.5t29 12.5q23 17 31 45t8 92v960q0 64 -8 92t-31 45q-14 10 -29 12.5t-63 2.5h-33v55q184 -4 277 -4q84 0 291 4v-55h-33q-48 0 -63 -2.5t-29 -12.5q-23 -17 -31 -45t-8 -92v-884q0 -117 34.5 -154t143.5 -37h186q82 0 125 12t82 47q36 32 59 71.5 t48 111.5l49 -8l-68 -326q-125 4 -282 4h-504q-99 0 -277 -4z" />
<glyph unicode="M" horiz-adv-x="1929" d="M-27 -4v55q67 -2 103.5 4.5t62.5 31.5t37 66.5t19 118.5l86 820v30q0 111 -37.5 148.5t-157.5 44.5v55q180 -4 205 -4t209 4l463 -1036l464 1036q176 -4 199 -4q25 0 201 4v-55q-107 -2 -140.5 -27t-33.5 -104q0 -33 8 -142l55 -804q7 -117 39.5 -152t130.5 -35h17v-55 q-199 4 -289 4q-82 0 -305 -4v55q104 2 134 25t30 102q0 30 -3 60l-63 856l-518 -1121h-41l-483 1078l-80 -766q-6 -61 -6 -86q0 -36 14.5 -69t38.5 -50q18 -13 40.5 -18t90.5 -11v-55q-168 4 -258 4q-126 0 -232 -4z" />
<glyph unicode="N" horiz-adv-x="1605" d="M0 1315v55q184 -4 211 -4t215 4l885 -997v780q0 46 -6 70t-25 47q-38 45 -102 45h-76v55q201 -4 254 -4q63 0 223 4v-55h-45q-64 0 -98.5 -42t-34.5 -120v-1196h-60l-1036 1159v-817q0 -91 6.5 -128t28.5 -65q38 -49 166 -55v-55q-154 4 -236 4q-72 0 -260 -4v55 q103 0 152 42.5t49 133.5v973q-45 68 -77 91.5t-83 23.5h-51z" />
<glyph unicode="O" horiz-adv-x="1681" d="M80 680q0 152 58 285.5t159 228.5t243 150t304 55q177 0 328.5 -63.5t261.5 -184.5q170 -182 170 -451q0 -188 -79.5 -339.5t-230.5 -249.5q-219 -144 -475 -144q-167 0 -326 73.5t-266 201.5q-147 178 -147 438zM346 731q0 -269 121 -463q63 -103 169 -165t220 -62 q209 0 343 170t134 434q0 195 -65 350.5t-181.5 242.5t-263.5 87q-212 0 -344.5 -165.5t-132.5 -428.5z" />
<glyph unicode="P" horiz-adv-x="1114" d="M55 -4v55h33q48 0 63 2.5t29 12.5q23 17 31 45t8 92v960q0 64 -8 92t-31 45q-14 10 -29 12.5t-63 2.5h-33v55q49 -2 107 -2q78 -2 147 -2q30 0 151 7t142 7q197 0 316 -73q70 -44 113.5 -130.5t43.5 -181.5q0 -115 -61 -206t-170 -138q-59 -26 -124 -36.5t-163 -12.5v57 q69 6 107.5 17.5t70.5 36.5q99 74 99 250q0 115 -43.5 202t-114.5 115q-39 16 -115 16q-43 0 -102 -12v-1081q0 -64 8 -92t31 -45q14 -10 29 -12.5t63 -2.5h65v-55q-262 4 -323 4q-82 0 -277 -4z" />
<glyph unicode="Q" horiz-adv-x="1681" d="M80 672q0 155 58 290.5t158.5 231t242.5 150.5t305 55q215 0 389 -91t272.5 -251t98.5 -357q0 -265 -155.5 -453t-432.5 -257q78 -24 137 -58t219 -145q81 -58 121 -78t74 -20q26 0 49.5 12t77.5 51l30 -22q-143 -158 -276 -158q-77 0 -173 57.5t-341 249.5q-9 9 -125 88 q-136 3 -252 47q-223 82 -350 257t-127 401zM348 731q0 -269 121 -463q63 -103 169 -165t220 -62q207 0 341 170t134 434q0 195 -65 350.5t-181.5 242.5t-263.5 87q-139 0 -247 -75t-168 -210.5t-60 -308.5z" />
<glyph unicode="R" horiz-adv-x="1378" d="M55 -4v55h33q48 0 63 2.5t29 12.5q23 17 31 45t8 92v960q0 64 -8 92t-31 45q-14 10 -29 12.5t-63 2.5h-33v55q190 -4 240 -4q83 0 278 14q18 2 62 2q220 0 360 -94q57 -38 90 -107t33 -147q0 -120 -68.5 -205.5t-209.5 -144.5l319 -479q49 -73 119.5 -116.5t130.5 -37.5 v-55q-164 4 -186 4q-23 0 -183 -4q-65 51 -110 123l-328 518h-143v-434q0 -64 8 -92t31 -45q14 -10 29 -12.5t63 -2.5h33v-55q-207 4 -297 4q-91 0 -271 -4zM459 713q33 -2 78 -2q177 0 251 77q34 34 57 96t23 122q0 54 -19 112t-50 96q-38 47 -87.5 66.5t-133.5 19.5 q-63 0 -119 -12v-575z" />
<glyph unicode="S" horiz-adv-x="1021" d="M88 334l43 12q40 -115 78 -172q40 -60 113 -96.5t155 -36.5q104 0 177 69t73 169q0 47 -21 94t-55 76q-26 25 -53.5 42t-167.5 93q-161 89 -230 182t-69 221q0 89 38.5 172.5t104.5 140.5q119 101 304 101q126 0 278 -55l25 -265h-52q-24 81 -40 117t-41 64 q-57 63 -175 63q-110 0 -180.5 -67t-70.5 -171q0 -113 104 -190q28 -20 42 -29.5t62.5 -37t155.5 -85.5q116 -63 184 -164.5t68 -211.5q0 -80 -35.5 -157.5t-99.5 -135.5t-142 -84.5t-184 -26.5q-189 0 -362 86z" />
<glyph unicode="T" horiz-adv-x="1404" d="M0 1085l49 338h37q7 -28 20.5 -38.5t53 -14.5t139.5 -4h872l91 2q55 1 70 9t42 46h37l-33 -350h-49q-9 66 -16.5 93t-22.5 51q-40 61 -192 61h-273v-1075q0 -64 8 -92t31 -45q14 -10 29 -12.5t63 -2.5h60v-55q-219 4 -307 4q-81 0 -314 -4v55h60q48 0 63 2.5t29 12.5 q23 17 31 45t8 92v1075h-250q-136 0 -196.5 -43t-90.5 -150h-49z" />
<glyph unicode="U" horiz-adv-x="1484" d="M41 1315v55q174 -4 276 -4q94 0 291 4v-55h-33q-48 0 -63 -2.5t-29 -12.5q-23 -17 -31 -45t-8 -92v-692q0 -101 19 -168.5t63 -124.5q98 -125 283 -125q103 0 190 42.5t125 111.5q32 56 44 129t12 217v610q0 64 -8 92t-31 45q-14 10 -29 12.5t-63 2.5h-33v55 q102 -4 215 -4t211 4v-55h-31q-48 0 -63 -2.5t-29 -12.5q-23 -17 -31 -45t-8 -92v-671q0 -230 -102 -349q-66 -77 -184.5 -123.5t-248.5 -46.5q-92 0 -192.5 24t-167.5 62q-50 27 -90.5 76.5t-61.5 106.5q-28 74 -28 250v671q0 64 -8 92t-31 45q-14 10 -29 12.5t-63 2.5h-33 z" />
<glyph unicode="V" horiz-adv-x="1298" d="M-59 1315v55q182 -4 286 -4q94 0 305 4v-55q-88 -5 -115.5 -17t-27.5 -49q0 -52 31 -131l325 -805l336 846q19 55 19 80q0 51 -51 66q-25 6 -101 10v55q98 -4 203 -4q102 0 192 4v-55q-36 0 -55.5 -4.5t-40.5 -23.5t-38 -52.5t-44 -97.5l-481 -1178h-51l-477 1145 q-2 6 -7 19.5t-14 36t-16 42.5q-25 65 -52 82.5t-126 30.5z" />
<glyph unicode="W" horiz-adv-x="1867" d="M-49 1315v55q115 -4 248 -4q132 0 247 4v-55q-47 0 -72.5 -13t-25.5 -36v-5v-5t0.5 -5.5t1.5 -7.5t2.5 -9.5t4.5 -13.5t7 -16.5t9 -22.5t12 -28l369 -846l168 387l-195 449q-26 62 -38 86.5t-18.5 34t-19.5 22.5q-28 22 -110 29v55q170 -4 237 -4q35 0 143.5 2t127.5 2 q13 0 99.5 -2t108.5 -2q33 0 158 4v-55q-84 0 -126.5 -30t-80.5 -120l-118 -280l251 -545l308 811q28 73 28 94q0 67 -147 70v55q90 -4 196 -4q101 0 181 4v-55q-42 -1 -64 -13.5t-45 -51.5t-59 -130l-453 -1155h-57l-268 629l-273 -629h-51l-516 1204q-16 38 -25.5 58.5 t-22.5 39t-21 25.5t-25 13.5t-32 7.5t-44 2zM938 1268q0 -4 0.5 -6.5t1 -5.5t3 -9.5l5 -13t8 -21.5t11.5 -30l77 -205l91 207q19 43 22.5 54t3.5 26q0 29 -24.5 40t-89.5 11q-57 0 -83 -11t-26 -36z" />
<glyph unicode="X" horiz-adv-x="1439" d="M-25 -4v55q93 0 161 43.5t157 153.5l309 389l-373 512q-72 99 -123 133t-131 33v55q125 -4 304 -4q174 0 299 4v-55l-39 -2q-38 -2 -55 -11t-17 -30q0 -19 7.5 -34t35.5 -52l252 -342l239 295q60 76 60 112q0 55 -154 64v55q174 -4 256 -4q80 0 254 4v-55 q-150 0 -252 -123l-346 -426l389 -543q70 -98 121 -133.5t129 -38.5v-55q-174 4 -303 4q-164 0 -291 -4v55h25q41 0 66.5 12.5t25.5 32.5q0 4 -0.5 6.5t-0.5 5.5t-2 6.5t-3.5 6.5t-6 9t-8.5 11.5t-12.5 17t-15.5 21.5l-275 383l-286 -362q-35 -45 -43.5 -58.5t-8.5 -27.5 q0 -28 36 -43t114 -21v-55q-113 4 -252 4q-136 0 -242 -4z" />
<glyph unicode="Y" horiz-adv-x="1284" d="M-61 1315v55q119 -4 303 -4q173 0 286 4v-55q-106 0 -106 -45q0 -31 53 -103l287 -379l266 398q39 55 39 82q0 28 -29 37.5t-118 9.5v55q145 -4 229 -4q98 0 170 4v-55q-41 -3 -64 -12t-43 -31q-3 -4 -12 -13t-15 -16t-21 -27t-36 -49l-327 -460v-504q0 -64 8 -92t31 -45 q14 -10 29 -12.5t63 -2.5h61v-55q-205 4 -307 4q-100 0 -315 -4v55h59q48 0 63 2.5t29 12.5q23 17 31 45t8 92v438l-362 489q-84 112 -130 145.5t-130 39.5z" />
<glyph unicode="Z" horiz-adv-x="1353" d="M25 0l897 1278h-576q-56 0 -86 -6.5t-56 -32t-42 -65t-39 -117.5l-49 6l22 360h31q29 -38 41 -43q21 -14 111 -14h1007l-897 -1278h643q114 0 172 49q29 24 44.5 52t49.5 116q0 1 19 43l45 -20l-76 -332q-127 4 -285 4h-976z" />
<glyph unicode="[" horiz-adv-x="630" d="M123 -307v1816q192 -4 219 -4q29 0 221 4v-55h-131q-83 0 -109 -29.5t-26 -121.5v-1403q0 -93 26 -122.5t109 -29.5h131v-55q-192 4 -219 4q-25 0 -221 -4z" />
<glyph unicode="\" horiz-adv-x="1122" d="M55 1509h138l894 -1816h-137z" />
<glyph unicode="]" horiz-adv-x="630" d="M68 -252h131q83 0 109 29.5t26 122.5v1403q0 92 -26 121.5t-109 29.5h-131v55q192 -4 219 -4q25 0 221 4v-1816q-192 4 -219 4q-29 0 -221 -4v55z" />
<glyph unicode="^" d="M-57 578l579 856h15l542 -856h-104l-367 571l-385 -571h-280z" />
<glyph unicode="_" d="M0 -184h1024v-123h-1024v123z" />
<glyph unicode="`" d="M190 1294q0 25 18.5 43.5t43.5 18.5q36 0 78 -56l229 -311l-35 -26l-280 251q-32 27 -43 44t-11 36z" />
<glyph unicode="a" horiz-adv-x="927" d="M61 160q0 88 65.5 133t330.5 157q41 18 63 27q4 3 53 23v98q0 50 -9.5 77t-35.5 50q-25 22 -65.5 36.5t-75.5 14.5q-54 0 -86.5 -31t-38.5 -88q-5 -34 -11.5 -47.5t-25.5 -25.5q-58 -35 -104 -35q-19 0 -25 8t-6 31q0 54 27.5 91.5t103.5 88.5q113 74 181 103.5t126 29.5 q107 0 179.5 -67.5t72.5 -167.5v-449q0 -66 19.5 -96.5t60.5 -30.5q24 0 62 25l16 -37q-65 -59 -109 -82t-96 -23q-63 0 -98.5 31t-54.5 102q-102 -77 -168.5 -105t-147.5 -28q-91 0 -147 52t-56 135zM270 217q0 -60 39.5 -99.5t98.5 -39.5q39 0 69 17t96 75v260 q-168 -44 -235.5 -91.5t-67.5 -121.5z" />
<glyph unicode="b" horiz-adv-x="1110" d="M39 1362v41q132 37 278 106l31 -6v-702q183 102 320 102q155 0 261.5 -125t106.5 -307q0 -129 -69.5 -245t-186 -185.5t-245.5 -69.5q-50 0 -121 17t-135 45q-35 14 -50 14q-28 0 -51 -47h-39v1272q0 43 -7 53t-42 21zM348 283q0 -82 33 -140q28 -47 83 -76.5t114 -29.5 q103 0 166 89t63 234q0 188 -82 303t-215 115q-39 0 -68 -11t-94 -50v-434z" />
<glyph unicode="c" horiz-adv-x="903" d="M76 408q0 118 51 221.5t145 173.5q65 50 151 79t165 29q107 0 185.5 -42.5t78.5 -100.5q0 -37 -36 -71.5t-73 -34.5q-30 0 -50.5 19t-63.5 87q-23 38 -48.5 53t-64.5 15q-98 0 -166.5 -94t-68.5 -228q0 -160 101.5 -275.5t242.5 -115.5q61 0 106 24.5t107 90.5l34 -23 q-52 -73 -83.5 -108t-69.5 -60q-109 -74 -236 -74q-172 0 -289.5 125.5t-117.5 309.5z" />
<glyph unicode="d" horiz-adv-x="1110" d="M76 381q0 135 66 256t176.5 193.5t234.5 72.5q72 0 184 -43v412q0 43 -7 53t-42 21l-51 16v41q141 39 281 106l30 -6v-1388q0 -18 5 -23.5t20 -5.5h16l72 6v-47q-116 -18 -291 -72l-33 23v96q-102 -64 -172.5 -91.5t-132.5 -27.5q-144 0 -250 121.5t-106 286.5zM279 498 q0 -71 28.5 -152t73.5 -139q38 -45 91 -73t106 -28q85 0 159 68v518q0 44 -69 87.5t-140 43.5q-106 0 -177.5 -93.5t-71.5 -231.5z" />
<glyph unicode="e" horiz-adv-x="905" d="M76 414q0 217 145 356q63 60 141.5 93.5t155.5 33.5q129 0 225.5 -85t96.5 -198q0 -34 -21.5 -46.5t-79.5 -12.5h-479v-33q0 -71 12.5 -119t42.5 -96q49 -78 123.5 -121t159.5 -43q62 0 112.5 20t108.5 66l29 -28q-60 -76 -98 -111q-57 -55 -131 -86t-148 -31 q-167 0 -281 127t-114 314zM264 612h295q88 0 88 66q0 58 -46.5 102.5t-108.5 44.5q-80 0 -143 -59t-85 -154z" />
<glyph unicode="f" horiz-adv-x="653" d="M41 -4v49h43q64 0 82 18q5 5 7 10t3.5 28.5t1.5 72.5v594h-135v37l68 33q41 20 52.5 30t12.5 31l2 66q0 212 119 368q61 81 144.5 130.5t158.5 49.5q54 0 90.5 -33.5t36.5 -82.5q0 -47 -31.5 -83t-74.5 -36q-33 0 -56 35q-26 34 -47 47.5t-49 13.5q-29 0 -46 -16.5 t-24 -54.5q-8 -35 -8 -189v-240h248v-106h-250v-594q0 -51 1.5 -74.5t4 -28.5t8.5 -10q22 -16 80 -16h103v-49q-221 4 -312 4q-127 0 -233 -4z" />
<glyph unicode="g" d="M63 -223q0 50 33 83t142 91q3 1 10 4.5t18 9.5t19 10q-97 35 -138 79.5t-41 113.5q0 15 3 33q121 63 178 129q-93 41 -142 108.5t-49 153.5q0 131 115 219t285 88q153 0 256 -76l237 -2l-2 -110l-156 6q31 -53 31 -115q0 -129 -105.5 -217t-260.5 -88q-40 0 -140 10 q-35 -17 -49 -33t-14 -38q0 -44 55 -61t203 -17h59q17 0 44.5 1t31.5 1q125 0 184 -33q48 -28 77.5 -81.5t29.5 -113.5q0 -79 -46.5 -159t-121.5 -133q-128 -89 -342 -89q-178 0 -291 63t-113 163zM219 -201q0 -80 76.5 -129t200.5 -49q138 0 231.5 62t93.5 153 q0 137 -270 137q-154 0 -243 -46.5t-89 -127.5zM313 621q0 -123 47 -196t127 -73q76 0 118 58.5t42 164.5q0 118 -45.5 189.5t-120.5 71.5q-77 0 -122.5 -58.5t-45.5 -156.5z" />
<glyph unicode="h" horiz-adv-x="1093" d="M39 -4v49h29q64 0 82 18q5 5 7 10t3.5 28.5t1.5 72.5v1098q0 43 -7 53t-42 21l-52 16v41q141 39 281 106l31 -6v-747q93 78 168 111.5t153 33.5q58 0 110.5 -21t84.5 -57q26 -28 36.5 -69.5t10.5 -116.5v-463q0 -51 1.5 -74.5t4 -28.5t8.5 -10q22 -16 80 -16h29v-49 q-96 4 -215 4q-124 0 -228 -4v49h15q64 0 82 18q5 5 7 10t3.5 28.5t1.5 72.5v389q0 93 -23 135q-38 64 -124 64q-92 0 -205 -64v-524q0 -51 1.5 -74.5t4 -28.5t8.5 -10q22 -16 80 -16h16v-49q-86 4 -204 4q-131 0 -240 -4z" />
<glyph unicode="i" horiz-adv-x="542" d="M47 -4v49h29q64 0 82 18q5 5 7 10t3.5 28.5t1.5 72.5v500q0 10 -0.5 19.5t-1 15t-0.5 6.5q-2 14 -10 20t-37 15l-51 16v45q86 20 272 104l39 -6v-735q0 -51 1.5 -74.5t4 -28.5t8.5 -10q22 -16 80 -16h29v-49q-162 4 -240 4q-113 0 -217 -4zM176 1253q0 46 35 80.5 t82 34.5t82 -35t35 -82t-35 -81.5t-82 -34.5q-49 0 -83 34t-34 84z" />
<glyph unicode="j" horiz-adv-x="507" d="M41 -360q46 19 72 43t41 61q10 25 13 54.5t3 117.5v758q0 10 -0.5 19.5t-1 15t-0.5 6.5q-2 14 -11 21t-38 16l-51 16v43q96 23 274 104l39 -6v-909q0 -84 -2 -103.5t-14 -50.5q-38 -92 -111 -150.5t-197 -96.5zM176 1253q0 46 35 80.5t82 34.5t82 -35t35 -82t-35 -81.5 t-82 -34.5q-49 0 -83 34t-34 84z" />
<glyph unicode="k" horiz-adv-x="1054" d="M39 -4v51h29q63 0 82 19q5 5 7 9.5t3.5 28t1.5 72.5v1096q0 43 -7 53t-42 21l-52 16v41q141 39 281 106l31 -6v-1044h10q12 0 22.5 7.5t61.5 51.5l205 184q49 46 49 80q0 44 -90 47v50q110 -5 196 -5q89 0 199 5v-50q-104 -3 -201 -88l-245 -219l329 -385q11 -13 40 -39 t42 -35q27 -20 60 -20q10 0 18 2v-49q-136 4 -154 4q-15 0 -147 -4l-334 399h-61v-221q0 -51 1.5 -74.5t4 -28.5t8.5 -10q22 -16 80 -16h29v-49q-152 4 -232 4q-75 0 -225 -4z" />
<glyph unicode="l" horiz-adv-x="536" d="M39 -4v49h29q64 0 82 18q5 5 7 10t3.5 28.5t1.5 72.5v1096q0 45 -7 56t-42 20l-52 14v41q148 44 281 108l31 -6v-1329q0 -51 1.5 -74.5t4 -28.5t8.5 -10q22 -16 80 -16h29v-49q-160 4 -236 4q-69 0 -221 -4z" />
<glyph unicode="m" horiz-adv-x="1650" d="M47 -4v49h29q64 0 82 18q5 5 7 10t3.5 28.5t1.5 72.5v500q0 10 -0.5 19.5t-1 15t-0.5 6.5q-2 14 -10 20t-37 15l-51 16v45q92 22 272 104l39 -6v-151q92 78 170 111.5t166 33.5q73 0 117 -28.5t94 -108.5q128 83 190 109t135 26q141 0 205 -92q39 -52 39 -164v-471 q0 -51 1.5 -74.5t4 -28.5t8.5 -10q22 -16 80 -16h31v-49q-96 4 -211 4q-81 0 -233 -4v49h14q64 0 82 18q5 5 7 10t3.5 28.5t1.5 72.5v371q0 109 -29 151q-46 68 -147 68q-44 0 -79 -13t-95 -53v-524q0 -51 1.5 -74.5t4 -28.5t8.5 -10q22 -16 80 -16h29v-49q-145 4 -234 4 q-113 0 -209 -4v47l15 2l57 6q13 3 20.5 8t10.5 16.5t3.5 19.5t0.5 30l2 49v371q0 103 -29 151q-19 32 -56.5 51t-80.5 19q-45 0 -84 -17.5t-94 -60.5v-514q0 -51 1.5 -74.5t4 -28.5t8.5 -10q22 -16 80 -16h29v-49q-102 4 -215 4q-74 0 -242 -4z" />
<glyph unicode="n" horiz-adv-x="1099" d="M47 -4v49h29q64 0 82 18q5 5 7 10t3.5 28.5t1.5 72.5v504q0 43 -7 53t-42 21l-51 16v41q139 39 280 106l31 -6v-153q93 78 168 111.5t153 33.5q58 0 110.5 -21t84.5 -57q26 -28 36.5 -69.5t10.5 -116.5v-463q0 -51 1.5 -74.5t4 -28.5t8.5 -10q22 -16 80 -16h29v-49 q-96 4 -215 4q-123 0 -227 -4v49h14q64 0 82 18q5 5 7 10t3.5 28.5t1.5 72.5v389q0 56 -4.5 83.5t-17.5 51.5q-17 29 -50.5 46.5t-74.5 17.5q-92 0 -205 -64v-524q0 -51 1.5 -74.5t4 -28.5t8.5 -10q22 -16 80 -16h17v-49q-86 4 -205 4q-131 0 -240 -4z" />
<glyph unicode="o" horiz-adv-x="1112" d="M76 442q0 125 65 230t178 166t248 61q201 0 336 -134.5t135 -334.5q0 -194 -141 -326.5t-346 -132.5q-96 0 -189 39.5t-161 108.5q-125 128 -125 323zM317 481q0 -145 50 -276q32 -82 85.5 -125t122.5 -43q104 0 164 92.5t60 253.5q0 66 -13.5 145t-33.5 136 q-61 172 -209 172q-226 0 -226 -355z" />
<glyph unicode="p" horiz-adv-x="1118" d="M39 -410h29q59 0 82 19q5 7 7 11.5t3.5 28t1.5 72.5v953q0 10 -0.5 19.5t-1 15t-0.5 6.5q-2 14 -10 20t-37 15l-52 16v45q94 22 273 104l39 -6v-135q126 74 191 100.5t126 26.5q148 0 250 -120t102 -292q0 -105 -48.5 -212.5t-129.5 -180.5q-138 -123 -321 -123 q-78 0 -170 31v-283q0 -50 1.5 -74t4 -29t8.5 -11q24 -17 80 -17h53v-47q-201 4 -268 4q-109 0 -213 -4v47zM373 172l98 -96q55 -39 111 -39q52 0 109 33.5t85 79.5q51 85 51 231q0 164 -61 256q-37 60 -103 96.5t-135 36.5q-86 0 -155 -63v-535z" />
<glyph unicode="q" horiz-adv-x="1073" d="M76 406q0 118 42.5 204t139.5 168q75 63 163 97t173 34q83 0 225 -55l117 80l25 -21v-1192q0 -50 1.5 -74t4 -29t8.5 -11q24 -17 80 -17h28v-47q-184 4 -258 4q-113 0 -215 -4v47h43q59 0 82 19q5 7 7 11t4 28.5t2 72.5v367q-86 -62 -153 -88.5t-134 -26.5q-69 0 -143 32 t-125 83q-56 57 -86.5 140t-30.5 178zM287 510q0 -175 87.5 -289.5t221.5 -114.5q50 0 84.5 13.5t67.5 44.5v493q0 69 -65 124t-148 55q-43 0 -89.5 -22.5t-80.5 -59.5q-78 -90 -78 -244z" />
<glyph unicode="r" horiz-adv-x="751" d="M47 -4v49h29q64 0 82 18q5 5 7 10t3.5 28.5t1.5 72.5v500q0 10 -0.5 19.5t-1 15t-0.5 6.5q-2 14 -10 20t-37 15l-51 16v45q92 22 272 104l39 -6v-157q85 91 132 120t110 29q59 0 94 -31.5t35 -83.5q0 -47 -28 -78.5t-71 -31.5q-41 0 -88 39q-45 35 -76 35q-58 0 -90 -60 q-18 -35 -18 -100v-416q0 -51 1.5 -74.5t4 -28.5t8.5 -10q22 -16 80 -16h62v-49q-188 4 -252 4q-68 0 -238 -4z" />
<glyph unicode="s" horiz-adv-x="737" d="M84 45v195l37 2q20 -103 73.5 -159t131.5 -56q69 0 114 40t45 101q0 49 -31.5 81t-136.5 91q-130 73 -180.5 136.5t-50.5 152.5q0 140 104 213q92 67 213 67q96 0 220 -51l6 -194l-35 -5q-34 109 -73 147t-118 38q-64 0 -107.5 -36t-43.5 -89q0 -54 55 -104.5t195 -125.5 q96 -51 133 -102.5t37 -132.5q0 -129 -93 -210t-239 -81q-72 0 -128 18t-128 64z" />
<glyph unicode="t" horiz-adv-x="614" d="M47 768v37q131 95 175.5 136t115.5 134l33 -12v-189h243v-106h-243v-496q0 -87 27 -127.5t87 -40.5q29 0 56 12t73 44l25 -23q-111 -164 -264 -164q-101 0 -158 67.5t-57 188.5v539h-113z" />
<glyph unicode="u" horiz-adv-x="1083" d="M43 797v51q91 4 145 14t154 39l27 -12v-588q0 -89 43 -139.5t120 -50.5q95 0 183 92v499q0 43 -20 59.5t-93 35.5v51q91 4 145 14t154 39l27 -12v-674q0 -100 10 -113q5 -6 18 -8t60 -2h37v-47q-150 -25 -312 -57l-26 12v123q-187 -150 -326 -150q-68 0 -128.5 33 t-80.5 82q-24 56 -24 150v464q0 43 -20 59.5t-93 35.5z" />
<glyph unicode="v" horiz-adv-x="878" d="M-35 829v50q125 -5 211 -5q44 0 225 5v-50h-30q-70 0 -70 -38q0 -18 23 -72l188 -443l170 410q25 65 25 90q0 37 -18.5 45t-102.5 8v50q92 -5 164 -5q71 0 176 5v-50h-13q-61 0 -86 -22q-22 -27 -63 -121l-318 -725h-32l-316 737q-40 96 -56 113.5t-69 17.5h-8z" />
<glyph unicode="w" horiz-adv-x="1433" d="M-35 829v50q125 -5 217 -5t217 5v-50q-51 -2 -67.5 -10t-16.5 -33q0 -16 4.5 -30.5t26.5 -69.5l168 -420l172 387l-20 64q-20 60 -53 83.5t-95 28.5v50q136 -5 230 -5q93 0 223 5v-50q-53 0 -76.5 -11t-22.5 -34q0 -14 3.5 -25t25.5 -65l166 -407l172 420q14 40 14 65 q0 29 -29 42.5t-96 14.5v50q112 -5 193 -5q75 0 160 5v-50q-42 -3 -61 -6.5t-39.5 -18.5t-33.5 -40.5t-34 -77.5l-299 -727h-43l-244 592l-270 -592h-45l-301 735q-38 90 -61 112.5t-85 22.5z" />
<glyph unicode="x" horiz-adv-x="1005" d="M-18 829v50q136 -5 239 -5q104 0 248 5v-50l-35 -2q-49 -3 -49 -28q0 -20 31 -62l131 -172l147 172q27 34 27 54q0 40 -86 40q-15 0 -25 -2v50q176 -5 193 -5q19 0 180 5v-50q-86 -12 -122 -32t-93 -84l-180 -209l266 -359q50 -67 74.5 -83t83.5 -17v-49q-160 4 -240 4 q-76 0 -240 -4v49q55 0 74 6.5t19 26.5t-29 57l-150 199l-174 -199q-26 -29 -26 -51q0 -23 19.5 -31t80.5 -8h6v-49q-84 4 -176 4q-96 0 -186 -4v49q64 -1 99 16t85 74l225 260l-217 289q-64 86 -96 108.5t-104 36.5z" />
<glyph unicode="y" horiz-adv-x="876" d="M-20 829v50q118 -5 208 -5q98 0 228 5v-50q-59 0 -79 -7t-20 -29q0 -24 23 -80l178 -443l172 412q21 52 21 82q0 34 -24.5 47t-92.5 18v50q144 -5 166 -5q19 0 158 5v-50q-49 -1 -79.5 -30t-58.5 -97l-415 -1007q-33 -79 -56 -105q-47 -47 -96 -47q-44 0 -82.5 37.5 t-38.5 81.5q0 41 30 73t68 32q33 0 58 -31q17 -23 26 -23q17 0 37 49l97 218l-304 722q-37 88 -52.5 104t-71.5 23z" />
<glyph unicode="z" horiz-adv-x="870" d="M53 0l465 795h-258q-69 0 -97.5 -26t-60.5 -118h-41l23 260h41q10 -10 10 -14q13 -16 24 -19.5t52 -3.5h596l-467 -794h244q96 0 132.5 26.5t90.5 137.5h39l-39 -244h-754z" />
<glyph unicode="{" horiz-adv-x="696" d="M0 590v41q103 6 141.5 43t38.5 129q0 11 -1 43t-1 47l-2 139q-3 165 20.5 245t84.5 120q38 27 85 34t203 7h39v-49q-77 -1 -124 -15t-74.5 -47t-37.5 -80.5t-10 -124.5v-188q0 -169 -35 -231.5t-151 -88.5v-6q121 -18 166 -116q18 -45 18 -160v-201q0 -92 6 -149.5 t20.5 -101t43.5 -65t70.5 -31.5t107.5 -11v-49q-170 3 -208 5.5t-72 12.5q-156 46 -156 287q0 12 1 54t2.5 132t2.5 209q0 87 -41 125t-137 41z" />
<glyph unicode="|" d="M432 -342v1708h160v-1708h-160z" />
<glyph unicode="}" horiz-adv-x="696" d="M88 -227q77 0 125 14.5t75.5 49.5t37.5 83.5t10 124.5v328q0 206 184 235v6q-137 22 -172 125q-3 9 -4.5 15t-3 11t-2.5 12l-1.5 10.5t-0.5 13.5v15v21v25l-2 301q-1 126 -57 176t-189 50v49h39l86 -2q109 -3 160 -18.5t86 -57.5q34 -43 48.5 -115t14.5 -196 q0 -1 -3 -107t-3 -137q0 -94 38.5 -131t141.5 -43v-41q-99 -6 -139 -42t-39 -120l6 -401q3 -249 -174 -289q-51 -10 -262 -14v49z" />
<glyph unicode="~" horiz-adv-x="1366" d="M268 1268q120 215 277 215q52 0 174 -43q110 -39 162 -39q101 0 180 102l39 -24q-52 -98 -127 -155.5t-150 -57.5q-47 0 -172 43q-74 25 -107 33t-69 8q-42 0 -71 -17.5t-80 -68.5l-19 -19z" />
<glyph unicode="&#xa1;" horiz-adv-x="559" d="M129 -270q0 39 12 106l121 631h31l121 -631q14 -71 14 -108q0 -80 -42.5 -132.5t-106.5 -52.5q-66 0 -108 52t-42 135zM129 813q0 61 44.5 105.5t105.5 44.5q63 0 107 -44.5t44 -107.5q0 -61 -44.5 -105t-106.5 -44t-106 44t-44 107z" />
<glyph unicode="&#xa2;" horiz-adv-x="1062" d="M119 647q0 172 104 303t279 178v136h55v-125q34 6 64 6q108 0 185 -41.5t77 -99.5q0 -37 -35 -71t-72 -34q-30 0 -50 19t-64 86q-23 36 -45.5 49.5t-59.5 15.5v-684q53 -16 98 -16q62 0 106.5 24t104.5 90l35 -22q-77 -118 -154 -171.5t-190 -66.5v-164h-55v162 q-163 6 -273 128.5t-110 297.5zM313 754q0 -107 51.5 -199.5t137.5 -142.5v651q-82 -22 -135.5 -109.5t-53.5 -199.5z" />
<glyph unicode="&#xa3;" horiz-adv-x="1062" d="M20 0q0 51 65 101t161 75q28 81 55 225.5t41 278.5h-231l20 84h223q38 248 105 395q66 149 219 230q119 61 215 61q63 0 107 -32.5t44 -78.5q0 -35 -25.5 -60.5t-62.5 -25.5q-31 0 -46 12.5t-48 69.5q-24 41 -67 41q-61 0 -101 -57t-70 -187t-59 -368h281l-19 -84h-276 q-37 -144 -88 -256t-135 -229q22 1 44.5 2t35 1.5t22.5 0.5q142 0 277 -101q77 -59 100.5 -71.5t54.5 -12.5q32 0 54 19.5t22 48.5q0 20 -7 31.5t-38 40.5q-35 28 -35 67q0 31 22 51.5t54 20.5q40 0 68 -33t28 -80q0 -45 -21 -94.5t-53 -81.5q-37 -35 -98.5 -56.5 t-126.5 -21.5q-62 0 -120.5 21.5t-133.5 72.5q-112 74 -136.5 88.5t-45.5 14.5q-12 0 -21.5 -11t-31.5 -49q-29 -50 -76 -83t-88 -33q-25 0 -41.5 15t-16.5 38z" />
<glyph unicode="&#xa4;" horiz-adv-x="1366" d="M94 1202l82 84l197 -194q139 100 309 100q77 0 145.5 -22.5t161.5 -79.5l201 198l82 -82l-201 -202q55 -93 75.5 -159t20.5 -145q0 -80 -20.5 -144t-77.5 -157l201 -200l-84 -84l-197 198q-88 -56 -158 -79t-151 -23q-79 0 -147.5 22t-157.5 76l-195 -194l-82 84l193 192 q-58 94 -79.5 156.5t-21.5 140.5q0 76 23 151t76 171zM305 702q0 -156 111 -266t268 -110q152 0 263.5 109.5t111.5 260.5q0 160 -109.5 270.5t-267.5 110.5q-155 0 -266 -110.5t-111 -264.5z" />
<glyph unicode="&#xa5;" horiz-adv-x="1175" d="M0 1325v41h506v-41q-88 0 -114.5 -8.5t-26.5 -36.5q0 -18 30 -80l273 -545l245 478q41 77 41 120q0 40 -29.5 55t-109.5 17v41h361v-41q-63 -3 -99.5 -38.5t-95.5 -156.5l-147 -303h253v-69h-286l-101 -168v-53h387v-72h-387v-262q0 -103 24.5 -132.5t109.5 -29.5h59v-41 h-588v41h64q82 0 105.5 29.5t23.5 132.5v262h-383v72h383v22l-113 199h-270v69h237l-155 330q-50 106 -85.5 135.5t-111.5 32.5z" />
<glyph unicode="&#xa6;" d="M432 313h160v-655h-160v655zM432 659v707h160v-707h-160z" />
<glyph unicode="&#xa7;" horiz-adv-x="985" d="M117 934q0 207 140 349t345 142q104 0 171 -45t67 -116q0 -31 -20.5 -50.5t-51.5 -19.5q-62 0 -100 72q-29 58 -51.5 76t-65.5 18q-66 0 -107 -44.5t-41 -115.5q0 -97 78 -244q37 -72 67.5 -120.5t176.5 -268.5q82 -125 117 -217.5t35 -187.5q0 -205 -140 -348 q-68 -68 -155.5 -108t-171.5 -40q-94 0 -161 39.5t-67 95.5q0 37 25 60.5t65 23.5q29 0 49.5 -14t49.5 -55q26 -37 53 -51.5t70 -14.5q58 0 91 41.5t33 112.5q0 82 -53 178t-264 397q-184 265 -184 455zM209 979q0 -92 44.5 -193.5t164.5 -281.5q183 -275 231 -368t47 -175 l-2 -84q99 119 99 242q0 97 -54.5 211.5t-210.5 347.5q-118 177 -161 278t-43 195q0 54 26 123q-141 -105 -141 -295z" />
<glyph unicode="&#xa8;" d="M205 1149q0 44 32 76t78 32q44 0 76.5 -32t32.5 -76q0 -46 -32.5 -78.5t-76.5 -32.5q-46 0 -78 32.5t-32 78.5zM600 1149q0 44 32.5 76t78.5 32q44 0 76 -32t32 -76q0 -46 -32 -78.5t-76 -32.5q-46 0 -78.5 32.5t-32.5 78.5z" />
<glyph unicode="&#xa9;" horiz-adv-x="1646" d="M113 684q0 192 95 355.5t258.5 258.5t356.5 95q115 0 223.5 -36t195.5 -101.5t152.5 -152.5t101.5 -195.5t36 -223.5q0 -195 -95.5 -358.5t-261 -258t-362.5 -94.5q-187 0 -348.5 96.5t-256.5 260.5t-95 354zM188 684q0 -170 85 -316.5t229.5 -232.5t312.5 -86 q176 0 323.5 84.5t232.5 230.5t85 320q0 128 -50.5 245.5t-135 202t-202 135t-245.5 50.5q-129 0 -246.5 -50.5t-202.5 -135.5t-135.5 -202t-50.5 -245zM449 670q0 172 108 284.5t274 112.5q79 0 168 -37q30 -12 45 -12q14 0 22 7.5t17 29.5q0 2 4 14l37 4v-244h-34 q-28 88 -87 135.5t-141 47.5q-103 0 -165 -91.5t-62 -244.5q0 -151 60.5 -234.5t170.5 -83.5q76 0 145 46.5t122 132.5v-86q-50 -71 -130 -111.5t-172 -40.5q-167 0 -274.5 104.5t-107.5 266.5z" />
<glyph unicode="&#xaa;" horiz-adv-x="671" d="M59 608v74h588v-74h-588zM76 926q0 72 85 129.5t249 95.5v90q0 94 -101 94q-37 0 -69.5 -16t-32.5 -35q0 -3 12 -26.5t12 -36.5q0 -26 -20 -45t-49 -19q-28 0 -49 22t-21 52q0 59 72 103t168 44q104 0 153.5 -39.5t49.5 -124.5v-276q0 -43 5.5 -58.5t20.5 -15.5 q22 0 47 45l25 -16q-49 -84 -123 -84q-45 0 -66.5 20t-33.5 74q-65 -51 -111.5 -72.5t-93.5 -21.5q-56 0 -92.5 33t-36.5 84zM205 948q0 -31 19 -50t48 -19q62 0 138 73v158q-95 -25 -150 -68t-55 -94z" />
<glyph unicode="&#xab;" horiz-adv-x="897" d="M68 449l338 309l40 -27l-194 -282l201 -281l-41 -39zM416 449l338 309l41 -27l-195 -282l201 -281l-41 -39z" />
<glyph unicode="&#xac;" d="M66 432v115h890v-547h-266v432h-624z" />
<glyph unicode="&#xad;" horiz-adv-x="442" d="M0 371l27 137h415l-26 -137h-416z" />
<glyph unicode="&#xae;" horiz-adv-x="1646" d="M113 684q0 192 95 355.5t258.5 258.5t356.5 95q115 0 223.5 -36t195.5 -101.5t152.5 -152.5t101.5 -195.5t36 -223.5q0 -195 -95.5 -358.5t-261 -258t-362.5 -94.5q-187 0 -348.5 96.5t-256.5 260.5t-95 354zM188 684q0 -170 85 -316.5t229.5 -232.5t312.5 -86 q176 0 323.5 84.5t232.5 230.5t85 320q0 128 -50.5 245.5t-135 202t-202 135t-245.5 50.5q-129 0 -246.5 -50.5t-202.5 -135.5t-135.5 -202t-50.5 -245zM463 1018v39h373q123 0 190 -31q113 -58 113 -176q0 -66 -33 -109t-109 -75l156 -269q17 -29 38 -40t54 -9v-39h-201 l-202 355h-111v-238q0 -46 13.5 -62t52.5 -16h34v-39h-362v39h31q41 0 54 15.5t13 62.5v514q0 47 -13 62.5t-54 15.5h-37zM731 700h86q69 0 105 23q23 17 37 52.5t14 76.5q0 74 -40.5 114t-115.5 40h-86v-306z" />
<glyph unicode="&#xaf;" d="M225 1092l35 96h539l-35 -96h-539z" />
<glyph unicode="&#xb0;" horiz-adv-x="866" d="M238 1108q0 80 57.5 137.5t136.5 57.5q78 0 135.5 -61t57.5 -144q0 -72 -56.5 -125t-132.5 -53q-82 0 -140 55t-58 133zM313 1118q0 -55 33 -92t82 -37q51 0 88 35t37 82q0 51 -38.5 88t-92.5 37q-41 0 -75 -35t-34 -78z" />
<glyph unicode="&#xb1;" d="M31 72v123h962v-123h-962zM31 674v123h415v403h127v-403h420v-123h-420v-391h-127v391h-415z" />
<glyph unicode="&#xb2;" horiz-adv-x="714" d="M43 545v49q56 37 129 104t131 133q51 61 85 134t34 127q0 75 -45.5 123.5t-114.5 48.5q-46 0 -81.5 -21t-82.5 -78l-35 23q115 186 291 186q95 0 161.5 -60.5t66.5 -146.5q0 -94 -79 -203t-276 -286h322q21 0 27.5 3.5t13.5 20.5l18 41h47l-41 -198h-571z" />
<glyph unicode="&#xb3;" horiz-adv-x="714" d="M41 623q0 20 17.5 36.5t39.5 16.5q16 0 33 -25q45 -63 133 -63q76 0 126 51t50 129q0 72 -54 123t-130 51q-25 0 -74 -14l-12 43q120 35 176.5 81t56.5 109q0 51 -38.5 85t-96.5 34q-34 0 -64.5 -14t-74.5 -49l-29 30q73 70 131 98.5t127 28.5q83 0 137 -45.5t54 -114.5 q0 -55 -34.5 -97.5t-123.5 -98.5q65 -8 107 -25q47 -22 74.5 -66t27.5 -98q0 -112 -102 -200q-103 -94 -275 -94q-82 0 -132 24t-50 64z" />
<glyph unicode="&#xb4;" d="M465 989l229 311q40 56 78 56q25 0 43.5 -18.5t18.5 -43.5q0 -18 -11.5 -35t-42.5 -45l-278 -251z" />
<glyph unicode="&#xb5;" horiz-adv-x="1083" d="M43 797v51q91 4 145 14t154 39l27 -12v-588q0 -89 43 -139.5t120 -50.5q95 0 183 92v499q0 43 -20 59.5t-93 35.5v51q91 4 145 14t154 39l27 -12v-674q0 -100 10 -113q5 -6 18 -8t60 -2h37v-47q-150 -25 -312 -57l-26 12v123q-187 -150 -326 -150q-35 0 -86 15 q1 -96 14 -188t13 -103q0 -49 -22 -71.5t-79 -22.5q-96 0 -96 92q0 18 11.5 215t11.5 328v464q0 43 -20 59.5t-93 35.5z" />
<glyph unicode="&#xb6;" horiz-adv-x="1216" d="M98 1038q0 104 52 185t143 116q52 20 91.5 23.5t209.5 3.5h524v-57h-6q-31 0 -48.5 -1t-33 -7.5t-22 -14.5t-11 -27.5t-5.5 -41t-1 -60.5v-1163v-50t5 -32t8 -21t18 -9.5t27 -4.5h41h12v-57h-287v1485h-115v-1485h-319v57h16q84 0 107 17q14 11 17 25t3 81v711h-32 q-87 0 -130 6t-83 26q-85 40 -133 118.5t-48 176.5z" />
<glyph unicode="&#xb7;" horiz-adv-x="1054" d="M377 440q0 61 44.5 105.5t106.5 44.5t106 -44t44 -106q0 -63 -44 -107t-106 -44q-63 0 -107 44t-44 107z" />
<glyph unicode="&#xb8;" d="M346 -346q0 23 14.5 38t36.5 15q19 0 29 -5t51 -36q33 -26 64 -26q14 0 24 10.5t10 27.5q0 33 -63 99q-39 39 -52.5 59t-13.5 39q0 28 18.5 49t70.5 53q2 1 6.5 4.5t12.5 9t13 9.5h62q-72 -41 -72 -74q0 -20 39 -53q82 -67 82 -129q0 -65 -67 -123.5t-140 -58.5 q-50 0 -87.5 27.5t-37.5 64.5z" />
<glyph unicode="&#xb9;" horiz-adv-x="714" d="M119 1202q108 56 170 93.5t137 93.5h43v-674q0 -63 2 -77t12 -24q21 -24 113 -24q10 0 18 2v-47q-147 2 -233 2q-80 0 -217 -2v45h26q69 0 96 18t25 62l-2 55v514l-20 -8l-43 -23q-77 -38 -103 -49z" />
<glyph unicode="&#xba;" horiz-adv-x="673" d="M43 608v74h588v-74h-588zM66 1092q0 127 76.5 206.5t199.5 79.5q117 0 191.5 -81t74.5 -207q0 -128 -75 -207.5t-195 -79.5q-121 0 -196.5 80.5t-75.5 208.5zM201 1096q0 -130 33 -191t102 -61q71 0 104 61t33 191q0 124 -33 182.5t-102 58.5q-71 0 -104 -58t-33 -183z " />
<glyph unicode="&#xbb;" horiz-adv-x="897" d="M96 719l41 39l344 -320l-338 -309l-41 27l195 282zM444 719l41 39l344 -320l-337 -309l-41 27l194 282z" />
<glyph unicode="&#xbc;" horiz-adv-x="1658" d="M119 1202q108 56 170 93.5t137 93.5h43v-674q0 -63 2 -77t12 -24q21 -24 113 -24q10 0 18 2v-47q-147 2 -233 2q-80 0 -217 -2v45h26q69 0 96 18t25 62l-2 55v514l-20 -8l-43 -23q-77 -38 -103 -49zM475 0l617 1366h90l-619 -1366h-88zM991 240v71l422 516h76v-473h104 v-114h-104v-240h-150v240h-348zM1096 354h243v295z" />
<glyph unicode="&#xbd;" horiz-adv-x="1658" d="M119 1202q108 56 170 93.5t137 93.5h43v-674q0 -63 2 -77t12 -24q21 -24 113 -24q10 0 18 2v-47q-147 2 -233 2q-80 0 -217 -2v45h26q69 0 96 18t25 62l-2 55v514l-20 -8l-43 -23q-77 -38 -103 -49zM475 0l617 1366h90l-619 -1366h-88zM987 0v49q132 91 260 236 q52 60 85.5 133t33.5 127q0 75 -45.5 123.5t-114.5 48.5q-46 0 -81.5 -21t-82.5 -78l-34 23q115 186 290 186q95 0 161.5 -60t66.5 -146q0 -93 -85 -209.5t-270 -278.5h322q20 0 27 4t14 21l18 39h47l-40 -197h-572z" />
<glyph unicode="&#xbe;" horiz-adv-x="1658" d="M41 623q0 20 17.5 36.5t39.5 16.5q16 0 33 -25q45 -63 133 -63q76 0 126 51t50 129q0 72 -54 123t-130 51q-25 0 -74 -14l-12 43q120 35 176.5 81t56.5 109q0 51 -38.5 85t-96.5 34q-34 0 -64.5 -14t-74.5 -49l-29 30q73 70 131 98.5t127 28.5q83 0 137 -45.5t54 -114.5 q0 -55 -34.5 -97.5t-123.5 -98.5q65 -8 107 -25q47 -22 74.5 -66t27.5 -98q0 -112 -102 -200q-103 -94 -275 -94q-82 0 -132 24t-50 64zM475 0l617 1366h90l-621 -1366h-86zM991 240v71l420 516h76v-473h106v-114h-106v-240h-150v240h-346zM1094 354h243v295z" />
<glyph unicode="&#xbf;" horiz-adv-x="743" d="M82 76q0 106 75 188t201 111q68 17 83.5 39.5t19.5 113.5h45l12 -299q0 -9 1 -26l1 -17q0 -25 -9 -31.5t-40 -4.5q-38 3 -92 -9.5t-82 -29.5q-49 -28 -78 -74.5t-29 -97.5q0 -75 62.5 -134t142.5 -59q37 0 80 14q37 11 47 11q37 0 69 -36t32 -77q0 -47 -40 -81t-96 -34 q-88 0 -166 51t-131 142q-46 79 -77 178t-31 162zM313 813q0 61 44.5 105.5t105.5 44.5q63 0 107 -44.5t44 -107.5q0 -61 -44.5 -105t-106.5 -44t-106 44t-44 107z" />
<glyph unicode="&#xc0;" horiz-adv-x="1327" d="M-35 51q80 0 118 33.5t75 136.5l395 1110q77 17 149 64q26 20 37 20q9 0 12.5 -4.5t12.5 -28.5l416 -1189q30 -87 65.5 -114.5t108.5 -27.5v-55q-203 4 -283 4q-76 0 -283 -4v55q84 3 113 16t29 48q0 24 -21 82l-102 299h-455l-98 -285q-14 -47 -14 -72q0 -78 118 -84 q8 0 48 -4v-55q-106 4 -230 4q-115 0 -209 -4zM272 1784q0 28 19 46.5t45 18.5q34 0 88 -43l305 -250l-24 -34l-338 166q-53 26 -74 47t-21 49zM385 584h389l-190 563z" />
<glyph unicode="&#xc1;" horiz-adv-x="1327" d="M-35 51q80 0 118 33.5t75 136.5l395 1110q77 17 149 64q26 20 37 20q9 0 12.5 -4.5t12.5 -28.5l416 -1189q30 -87 65.5 -114.5t108.5 -27.5v-55q-203 4 -283 4q-76 0 -283 -4v55q84 3 113 16t29 48q0 24 -21 82l-102 299h-455l-98 -285q-14 -47 -14 -72q0 -78 118 -84 q8 0 48 -4v-55q-106 4 -230 4q-115 0 -209 -4zM385 584h389l-190 563zM614 1556l306 250q51 43 88 43q26 0 44.5 -18.5t18.5 -46.5t-20.5 -49t-73.5 -47l-340 -166z" />
<glyph unicode="&#xc2;" horiz-adv-x="1327" d="M-35 51q80 0 118 33.5t75 136.5l395 1110q77 17 149 64q26 20 37 20q9 0 12.5 -4.5t12.5 -28.5l416 -1189q30 -87 65.5 -114.5t108.5 -27.5v-55q-203 4 -283 4q-76 0 -283 -4v55q84 3 113 16t29 48q0 24 -21 82l-102 299h-455l-98 -285q-14 -47 -14 -72q0 -78 118 -84 q8 0 48 -4v-55q-106 4 -230 4q-115 0 -209 -4zM340 1546l328 312l309 -312l-35 -28l-274 174l-291 -174zM385 584h389l-190 563z" />
<glyph unicode="&#xc3;" horiz-adv-x="1327" d="M-35 51q80 0 118 33.5t75 136.5l395 1110q77 17 149 64q26 20 37 20q9 0 12.5 -4.5t12.5 -28.5l416 -1189q30 -87 65.5 -114.5t108.5 -27.5v-55q-203 4 -283 4q-76 0 -283 -4v55q84 3 113 16t29 48q0 24 -21 82l-102 299h-455l-98 -285q-14 -47 -14 -72q0 -78 118 -84 q8 0 48 -4v-55q-106 4 -230 4q-115 0 -209 -4zM346 1591q30 85 62 125q28 33 67 52.5t78 19.5q44 0 87.5 -14.5t166.5 -71.5q47 -19 76 -19q28 0 47.5 18.5t48.5 72.5l45 -15q-23 -95 -74.5 -146.5t-122.5 -51.5q-50 0 -172 53q-116 49 -157 49q-33 0 -57.5 -20t-49.5 -68z M385 584h389l-190 563z" />
<glyph unicode="&#xc4;" horiz-adv-x="1327" d="M-35 51q80 0 118 33.5t75 136.5l395 1110q77 17 149 64q26 20 37 20q9 0 12.5 -4.5t12.5 -28.5l416 -1189q30 -87 65.5 -114.5t108.5 -27.5v-55q-203 4 -283 4q-76 0 -283 -4v55q84 3 113 16t29 48q0 24 -21 82l-102 299h-455l-98 -285q-14 -47 -14 -72q0 -78 118 -84 q8 0 48 -4v-55q-106 4 -230 4q-115 0 -209 -4zM276 1681q0 46 35 80.5t82 34.5t82 -35t35 -82t-35 -81.5t-82 -34.5q-49 0 -83 34t-34 84zM385 584h389l-190 563zM823 1681q0 46 35 80.5t82 34.5t82 -35t35 -82t-35 -81.5t-82 -34.5q-49 0 -83 34t-34 84z" />
<glyph unicode="&#xc5;" horiz-adv-x="1327" d="M-35 51q80 0 118 33.5t75 136.5l395 1110q77 17 149 64q26 20 37 20q9 0 12.5 -4.5t12.5 -28.5l416 -1189q30 -87 65.5 -114.5t108.5 -27.5v-55q-203 4 -283 4q-76 0 -283 -4v55q84 3 113 16t29 48q0 24 -21 82l-102 299h-455l-98 -285q-14 -47 -14 -72q0 -78 118 -84 q8 0 48 -4v-55q-106 4 -230 4q-115 0 -209 -4zM385 584h389l-190 563zM459 1675q0 74 54.5 128.5t129.5 54.5q76 0 130 -54t54 -131q0 -75 -54.5 -129.5t-129.5 -54.5q-77 0 -130.5 54t-53.5 132zM526 1675q0 -50 34 -84.5t83 -34.5q47 0 82 35t35 82t-35 82t-82 35 t-82 -34.5t-35 -80.5z" />
<glyph unicode="&#xc6;" horiz-adv-x="1902" d="M-49 0v53q32 2 49 3.5t39.5 6t33.5 9t28 14.5t27 22t26 32.5t30.5 43.5t34.5 58l553 948q10 18 19.5 45t9.5 37q0 15 -9.5 24t-30.5 14t-56 5h-54v55q205 -4 285 -4h526q158 0 283 4l18 -305l-43 -4q-23 90 -42.5 128t-51.5 58q-25 15 -42.5 20t-52.5 7t-122 2h-248v-526 h289q37 0 68 14t43 37q12 19 16.5 41t7.5 76h49q-4 -94 -4 -203q0 -70 4 -238h-49q-6 54 -15 82t-28 51q-17 23 -47.5 37.5t-62.5 14.5h-271v-386q0 -29 1 -50t3.5 -40.5t7.5 -32t11.5 -24t17.5 -18t23.5 -11.5t32 -7.5t40.5 -3.5t50 -1h217q45 0 79 5.5t60 19t44 28.5 t34 42.5t27 52t26 65.5l49 -6l-69 -299q-125 4 -283 4h-490q-100 0 -284 -4v55h33q48 0 63 2.5t29 12.5q23 17 31 45t8 92v459h-371l-238 -433q-49 -86 -49 -116q0 -31 31.5 -43.5t122.5 -16.5v-53q-221 4 -285 4q-98 0 -182 -4zM602 750h320v536h-27z" />
<glyph unicode="&#xc7;" horiz-adv-x="1454" d="M80 688q0 151 58 283.5t158 226.5t241 148.5t301 54.5q95 0 222.5 -29t323.5 -96l2 -318l-51 5q-22 81 -43 124.5t-57 81.5q-63 67 -162.5 105.5t-208.5 38.5q-151 0 -266.5 -75t-178.5 -212.5t-63 -316.5q0 -215 103 -398q75 -135 187 -204.5t253 -69.5q195 0 320 137 q34 37 55.5 75t48.5 107l47 -12l-41 -295q-114 -44 -200 -59.5t-265 -24.5q4 -4 4 -6l-4 -25q14 -28 45 -59q63 -62 88 -99t25 -71q0 -66 -79 -131.5t-159 -65.5q-58 0 -100.5 30.5t-42.5 70.5q0 25 20.5 46t43.5 21q17 0 26.5 -6.5t54.5 -46.5q40 -37 72 -37q15 0 29 13 t14 28q0 5 -12 37t-60 80q-79 79 -79 129q0 39 59 92q-30 3 -45 6l-100 15q-258 37 -421 232.5t-163 469.5z" />
<glyph unicode="&#xc8;" horiz-adv-x="1198" d="M55 -4v55h33q48 0 63 2.5t29 12.5q23 17 31 45t8 92v960q0 64 -8 92t-31 45q-14 10 -29 12.5t-63 2.5h-33v55q180 -4 285 -4h420q155 0 282 4l19 -303l-43 -6q-23 91 -42.5 129.5t-51.5 58.5q-34 21 -65 25t-152 4h-248v-528h289q37 0 67.5 14t42.5 37q12 19 17 41.5 t8 75.5h49q-4 -96 -4 -203q0 -70 4 -238h-49q-6 54 -15 82t-28 51q-17 23 -48 37.5t-63 14.5h-270v-386q0 -45 2 -72t9.5 -50t19 -34.5t34 -19.5t50 -10t71.5 -2h217q134 0 195 64q48 52 76 149l49 -6l-70 -299q-127 4 -283 4h-489q-101 0 -285 -4zM207 1784q0 28 18.5 46.5 t44.5 18.5q34 0 88 -43l306 -250l-25 -34l-338 166q-53 26 -73.5 47t-20.5 49z" />
<glyph unicode="&#xc9;" horiz-adv-x="1198" d="M55 -4v55h33q48 0 63 2.5t29 12.5q23 17 31 45t8 92v960q0 64 -8 92t-31 45q-14 10 -29 12.5t-63 2.5h-33v55q180 -4 285 -4h420q155 0 282 4l19 -303l-43 -6q-23 91 -42.5 129.5t-51.5 58.5q-34 21 -65 25t-152 4h-248v-528h289q37 0 67.5 14t42.5 37q12 19 17 41.5 t8 75.5h49q-4 -96 -4 -203q0 -70 4 -238h-49q-6 54 -15 82t-28 51q-17 23 -48 37.5t-63 14.5h-270v-386q0 -45 2 -72t9.5 -50t19 -34.5t34 -19.5t50 -10t71.5 -2h217q134 0 195 64q48 52 76 149l49 -6l-70 -299q-127 4 -283 4h-489q-101 0 -285 -4zM563 1556l305 250 q51 43 88 43q26 0 45 -18.5t19 -46.5t-20.5 -49t-73.5 -47l-340 -166z" />
<glyph unicode="&#xca;" horiz-adv-x="1198" d="M55 -4v55h33q48 0 63 2.5t29 12.5q23 17 31 45t8 92v960q0 64 -8 92t-31 45q-14 10 -29 12.5t-63 2.5h-33v55q180 -4 285 -4h420q155 0 282 4l19 -303l-43 -6q-23 91 -42.5 129.5t-51.5 58.5q-34 21 -65 25t-152 4h-248v-528h289q37 0 67.5 14t42.5 37q12 19 17 41.5 t8 75.5h49q-4 -96 -4 -203q0 -70 4 -238h-49q-6 54 -15 82t-28 51q-17 23 -48 37.5t-63 14.5h-270v-386q0 -45 2 -72t9.5 -50t19 -34.5t34 -19.5t50 -10t71.5 -2h217q134 0 195 64q48 52 76 149l49 -6l-70 -299q-127 4 -283 4h-489q-101 0 -285 -4zM295 1546l328 312 l309 -312l-35 -28l-274 174l-291 -174z" />
<glyph unicode="&#xcb;" horiz-adv-x="1198" d="M55 -4v55h33q48 0 63 2.5t29 12.5q23 17 31 45t8 92v960q0 64 -8 92t-31 45q-14 10 -29 12.5t-63 2.5h-33v55q180 -4 285 -4h420q155 0 282 4l19 -303l-43 -6q-23 91 -42.5 129.5t-51.5 58.5q-34 21 -65 25t-152 4h-248v-528h289q37 0 67.5 14t42.5 37q12 19 17 41.5 t8 75.5h49q-4 -96 -4 -203q0 -70 4 -238h-49q-6 54 -15 82t-28 51q-17 23 -48 37.5t-63 14.5h-270v-386q0 -45 2 -72t9.5 -50t19 -34.5t34 -19.5t50 -10t71.5 -2h217q134 0 195 64q48 52 76 149l49 -6l-70 -299q-127 4 -283 4h-489q-101 0 -285 -4zM217 1681q0 46 35 80.5 t82 34.5t82 -35t35 -82t-35 -81.5t-82 -34.5q-49 0 -83 34t-34 84zM764 1681q0 46 35 80.5t82 34.5t81.5 -35t34.5 -82t-34.5 -81.5t-81.5 -34.5q-49 0 -83 34t-34 84z" />
<glyph unicode="&#xcc;" horiz-adv-x="675" d="M-55 1784q0 28 18.5 46.5t44.5 18.5q34 0 88 -43l305 -250l-24 -34l-338 166q-53 26 -73.5 47t-20.5 49zM53 -4v55h33q48 0 63 2.5t29 12.5q23 17 31 45t8 92v960q0 64 -8 92t-31 45q-14 10 -29 12.5t-63 2.5h-33v55q190 -4 283 -4q87 0 282 4v-55h-32q-48 0 -63 -2.5 t-29 -12.5q-23 -17 -31 -45t-8 -92v-960q0 -64 8 -92t31 -45q14 -10 29 -12.5t63 -2.5h32v-55q-190 4 -282 4q-88 0 -283 -4z" />
<glyph unicode="&#xcd;" horiz-adv-x="675" d="M55 -4v55h33q48 0 63 2.5t29 12.5q23 17 31 45t8 92v960q0 64 -8 92t-31 45q-14 10 -29 12.5t-63 2.5h-33v55q190 -4 283 -4q88 0 283 4v-55h-33q-48 0 -63 -2.5t-29 -12.5q-23 -17 -31 -45t-8 -92v-960q0 -64 8 -92t31 -45q14 -10 29 -12.5t63 -2.5h33v-55 q-190 4 -283 4q-88 0 -283 -4zM315 1556l306 250q51 43 88 43q26 0 44.5 -18.5t18.5 -46.5t-20.5 -49t-73.5 -47l-340 -166z" />
<glyph unicode="&#xce;" horiz-adv-x="675" d="M27 1546l327 312l310 -312l-35 -28l-275 174l-291 -174zM55 -4v55h33q48 0 63 2.5t29 12.5q23 17 31 45t8 92v960q0 64 -8 92t-31 45q-14 10 -29 12.5t-63 2.5h-33v55q190 -4 283 -4q88 0 283 4v-55h-33q-48 0 -63 -2.5t-29 -12.5q-23 -17 -31 -45t-8 -92v-960 q0 -64 8 -92t31 -45q14 -10 29 -12.5t63 -2.5h33v-55q-190 4 -283 4q-88 0 -283 -4z" />
<glyph unicode="&#xcf;" horiz-adv-x="673" d="M-4 1681q0 46 35 80.5t82 34.5t81.5 -35t34.5 -82t-34.5 -81.5t-81.5 -34.5q-49 0 -83 34t-34 84zM55 -4v55h33q48 0 63 2.5t29 12.5q23 17 31 45t8 92v960q0 64 -8 92t-31 45q-14 10 -29 12.5t-63 2.5h-33v55q190 -4 283 -4q88 0 283 4v-55h-33q-48 0 -63 -2.5 t-29 -12.5q-23 -17 -31 -45t-8 -92v-960q0 -64 8 -92t31 -45q14 -10 29 -12.5t63 -2.5h33v-55q-190 4 -283 4q-88 0 -283 -4zM461 1681q0 46 35 80.5t82 34.5t81.5 -35t34.5 -82t-34.5 -81.5t-81.5 -34.5q-49 0 -83 34t-34 84z" />
<glyph unicode="&#xd0;" horiz-adv-x="1572" d="M55 -4v55h33q34 0 50.5 1.5t24 4t17.5 9.5q23 17 31 45t8 92v459h-149v92h149v409q0 64 -8 92t-31 45q-14 10 -29 12.5t-63 2.5h-33v55q203 -4 248 -4t193 7t176 7q145 0 285.5 -39.5t244.5 -109.5q131 -89 211 -240t80 -309q0 -157 -78.5 -308t-208.5 -245 q-199 -143 -487 -143q-52 0 -203.5 7t-204.5 7q-61 0 -256 -4zM459 324q0 -146 49 -201t180 -55q249 0 397 176q146 176 146 420q0 188 -71 330.5t-208.5 222t-324.5 79.5q-39 0 -168 -8v-534h346v-92h-346v-338z" />
<glyph unicode="&#xd1;" horiz-adv-x="1605" d="M0 1315v55q184 -4 211 -4t215 4l885 -997v780q0 46 -6 70t-25 47q-38 45 -102 45h-76v55q201 -4 254 -4q63 0 223 4v-55h-45q-64 0 -98.5 -42t-34.5 -120v-1196h-60l-1036 1159v-817q0 -91 6.5 -128t28.5 -65q38 -49 166 -55v-55q-154 4 -236 4q-72 0 -260 -4v55 q103 0 152 42.5t49 133.5v973q-45 68 -77 91.5t-83 23.5h-51zM506 1591q31 87 61 125q28 33 67.5 52.5t78.5 19.5q44 0 87.5 -14.5t166.5 -71.5q48 -19 75 -19q28 0 48 18.5t49 72.5l45 -15q-23 -95 -74.5 -146.5t-122.5 -51.5q-50 0 -172 53q-116 49 -158 49q-33 0 -57 -20 t-49 -68z" />
<glyph unicode="&#xd2;" horiz-adv-x="1681" d="M80 680q0 152 58 285.5t159 228.5t243 150t304 55q177 0 328.5 -63.5t261.5 -184.5q170 -182 170 -451q0 -188 -79.5 -339.5t-230.5 -249.5q-219 -144 -475 -144q-167 0 -326 73.5t-266 201.5q-147 178 -147 438zM346 731q0 -269 121 -463q63 -103 169 -165t220 -62 q209 0 343 170t134 434q0 195 -65 350.5t-181.5 242.5t-263.5 87q-212 0 -344.5 -165.5t-132.5 -428.5zM422 1784q0 28 18.5 46.5t44.5 18.5q34 0 88 -43l306 -250l-25 -34l-338 166q-53 26 -73.5 47t-20.5 49z" />
<glyph unicode="&#xd3;" horiz-adv-x="1681" d="M80 680q0 152 58 285.5t159 228.5t243 150t304 55q177 0 328.5 -63.5t261.5 -184.5q170 -182 170 -451q0 -188 -79.5 -339.5t-230.5 -249.5q-219 -144 -475 -144q-167 0 -326 73.5t-266 201.5q-147 178 -147 438zM346 731q0 -269 121 -463q63 -103 169 -165t220 -62 q209 0 343 170t134 434q0 195 -65 350.5t-181.5 242.5t-263.5 87q-212 0 -344.5 -165.5t-132.5 -428.5zM811 1556l305 250q51 43 88 43q26 0 45 -18.5t19 -46.5t-20.5 -49t-73.5 -47l-340 -166z" />
<glyph unicode="&#xd4;" horiz-adv-x="1681" d="M80 680q0 152 58 285.5t159 228.5t243 150t304 55q177 0 328.5 -63.5t261.5 -184.5q170 -182 170 -451q0 -188 -79.5 -339.5t-230.5 -249.5q-219 -144 -475 -144q-167 0 -326 73.5t-266 201.5q-147 178 -147 438zM346 731q0 -269 121 -463q63 -103 169 -165t220 -62 q209 0 343 170t134 434q0 195 -65 350.5t-181.5 242.5t-263.5 87q-212 0 -344.5 -165.5t-132.5 -428.5zM528 1546l328 312l309 -312l-35 -28l-274 174l-291 -174z" />
<glyph unicode="&#xd5;" horiz-adv-x="1681" d="M80 680q0 152 58 285.5t159 228.5t243 150t304 55q177 0 328.5 -63.5t261.5 -184.5q170 -182 170 -451q0 -188 -79.5 -339.5t-230.5 -249.5q-219 -144 -475 -144q-167 0 -326 73.5t-266 201.5q-147 178 -147 438zM346 731q0 -269 121 -463q63 -103 169 -165t220 -62 q209 0 343 170t134 434q0 195 -65 350.5t-181.5 242.5t-263.5 87q-212 0 -344.5 -165.5t-132.5 -428.5zM543 1591q31 87 61 125q28 33 67.5 52.5t78.5 19.5q44 0 87.5 -14.5t166.5 -71.5q47 -19 75 -19t48 18.5t49 72.5l45 -15q-23 -95 -74.5 -146.5t-122.5 -51.5 q-50 0 -172 53q-116 49 -158 49q-33 0 -57 -20t-49 -68z" />
<glyph unicode="&#xd6;" horiz-adv-x="1681" d="M80 680q0 152 58 285.5t159 228.5t243 150t304 55q177 0 328.5 -63.5t261.5 -184.5q170 -182 170 -451q0 -188 -79.5 -339.5t-230.5 -249.5q-219 -144 -475 -144q-167 0 -326 73.5t-266 201.5q-147 178 -147 438zM346 731q0 -269 121 -463q63 -103 169 -165t220 -62 q209 0 343 170t134 434q0 195 -65 350.5t-181.5 242.5t-263.5 87q-212 0 -344.5 -165.5t-132.5 -428.5zM459 1681q0 46 34.5 80.5t81.5 34.5t82 -35t35 -82t-35 -81.5t-82 -34.5q-49 0 -82.5 34t-33.5 84zM1006 1681q0 46 34.5 80.5t81.5 34.5t82 -35t35 -82t-35 -81.5 t-82 -34.5q-49 0 -82.5 34t-33.5 84z" />
<glyph unicode="&#xd7;" d="M109 408l315 313l-311 311l86 88l311 -313l315 315l88 -90l-315 -313l313 -313l-86 -87l-313 314l-313 -316z" />
<glyph unicode="&#xd8;" horiz-adv-x="1681" d="M80 672q0 207 98.5 373.5t273 260t390.5 93.5q251 0 465 -137l143 161l74 -65l-142 -156q222 -204 222 -502q0 -188 -79.5 -339.5t-230.5 -249.5q-221 -144 -467 -144q-244 0 -440 133l-162 -178l-67 66l153 170q-231 206 -231 514zM348 729q0 -114 26 -229.5t70 -194.5 l746 828q-141 192 -367 192q-210 0 -342.5 -166.5t-132.5 -429.5zM498 223q72 -88 165 -135t193 -47q209 0 343 170t134 436q0 212 -92 400z" />
<glyph unicode="&#xd9;" horiz-adv-x="1484" d="M41 1315v55q174 -4 276 -4q94 0 291 4v-55h-33q-48 0 -63 -2.5t-29 -12.5q-23 -17 -31 -45t-8 -92v-692q0 -101 19 -168.5t63 -124.5q98 -125 283 -125q103 0 190 42.5t125 111.5q32 56 44 129t12 217v610q0 64 -8 92t-31 45q-14 10 -29 12.5t-63 2.5h-33v55 q102 -4 215 -4t211 4v-55h-31q-48 0 -63 -2.5t-29 -12.5q-23 -17 -31 -45t-8 -92v-671q0 -230 -102 -349q-66 -77 -184.5 -123.5t-248.5 -46.5q-92 0 -192.5 24t-167.5 62q-50 27 -90.5 76.5t-61.5 106.5q-28 74 -28 250v671q0 64 -8 92t-31 45q-14 10 -29 12.5t-63 2.5h-33 zM391 1784q0 28 18.5 46.5t45.5 18.5q34 0 88 -43l305 -250l-25 -34l-338 166q-53 26 -73.5 47t-20.5 49z" />
<glyph unicode="&#xda;" horiz-adv-x="1484" d="M41 1315v55q174 -4 276 -4q94 0 291 4v-55h-33q-48 0 -63 -2.5t-29 -12.5q-23 -17 -31 -45t-8 -92v-692q0 -101 19 -168.5t63 -124.5q98 -125 283 -125q103 0 190 42.5t125 111.5q32 56 44 129t12 217v610q0 64 -8 92t-31 45q-14 10 -29 12.5t-63 2.5h-33v55 q102 -4 215 -4t211 4v-55h-31q-48 0 -63 -2.5t-29 -12.5q-23 -17 -31 -45t-8 -92v-671q0 -230 -102 -349q-66 -77 -184.5 -123.5t-248.5 -46.5q-92 0 -192.5 24t-167.5 62q-50 27 -90.5 76.5t-61.5 106.5q-28 74 -28 250v671q0 64 -8 92t-31 45q-14 10 -29 12.5t-63 2.5h-33 zM754 1556l305 250q51 43 88 43q26 0 44.5 -18.5t18.5 -46.5t-20.5 -49t-73.5 -47l-340 -166z" />
<glyph unicode="&#xdb;" horiz-adv-x="1484" d="M41 1315v55q174 -4 276 -4q94 0 291 4v-55h-33q-48 0 -63 -2.5t-29 -12.5q-23 -17 -31 -45t-8 -92v-692q0 -101 19 -168.5t63 -124.5q98 -125 283 -125q103 0 190 42.5t125 111.5q32 56 44 129t12 217v610q0 64 -8 92t-31 45q-14 10 -29 12.5t-63 2.5h-33v55 q102 -4 215 -4t211 4v-55h-31q-48 0 -63 -2.5t-29 -12.5q-23 -17 -31 -45t-8 -92v-671q0 -230 -102 -349q-66 -77 -184.5 -123.5t-248.5 -46.5q-92 0 -192.5 24t-167.5 62q-50 27 -90.5 76.5t-61.5 106.5q-28 74 -28 250v671q0 64 -8 92t-31 45q-14 10 -29 12.5t-63 2.5h-33 zM506 1546l328 312l309 -312l-35 -28l-274 174l-291 -174z" />
<glyph unicode="&#xdc;" horiz-adv-x="1484" d="M41 1315v55q174 -4 276 -4q94 0 291 4v-55h-33q-48 0 -63 -2.5t-29 -12.5q-23 -17 -31 -45t-8 -92v-692q0 -101 19 -168.5t63 -124.5q98 -125 283 -125q103 0 190 42.5t125 111.5q32 56 44 129t12 217v610q0 64 -8 92t-31 45q-14 10 -29 12.5t-63 2.5h-33v55 q102 -4 215 -4t211 4v-55h-31q-48 0 -63 -2.5t-29 -12.5q-23 -17 -31 -45t-8 -92v-671q0 -230 -102 -349q-66 -77 -184.5 -123.5t-248.5 -46.5q-92 0 -192.5 24t-167.5 62q-50 27 -90.5 76.5t-61.5 106.5q-28 74 -28 250v671q0 64 -8 92t-31 45q-14 10 -29 12.5t-63 2.5h-33 zM418 1681q0 46 35 80.5t82 34.5t81.5 -35t34.5 -82t-34.5 -81.5t-81.5 -34.5q-49 0 -83 34t-34 84zM965 1681q0 46 34.5 80.5t81.5 34.5t82 -35t35 -82t-35 -81.5t-82 -34.5q-49 0 -82.5 34t-33.5 84z" />
<glyph unicode="&#xdd;" horiz-adv-x="1284" d="M-61 1315v55q119 -4 303 -4q173 0 286 4v-55q-106 0 -106 -45q0 -31 53 -103l287 -379l266 398q39 55 39 82q0 28 -29 37.5t-118 9.5v55q145 -4 229 -4q98 0 170 4v-55q-41 -3 -64 -12t-43 -31q-3 -4 -12 -13t-15 -16t-21 -27t-36 -49l-327 -460v-504q0 -64 8 -92t31 -45 q14 -10 29 -12.5t63 -2.5h61v-55q-205 4 -307 4q-100 0 -315 -4v55h59q48 0 63 2.5t29 12.5q23 17 31 45t8 92v438l-362 489q-84 112 -130 145.5t-130 39.5zM700 1556l306 250q51 43 88 43q26 0 44.5 -18.5t18.5 -46.5t-20.5 -49t-73.5 -47l-340 -166z" />
<glyph unicode="&#xde;" horiz-adv-x="1114" d="M55 -4v55h33q48 0 63 2.5t29 12.5q23 17 31 45t8 92v960q0 64 -8 92t-31 45q-14 10 -29 12.5t-63 2.5h-33v55q190 -4 283 -4q88 0 283 4v-55h-33q-48 0 -63 -2.5t-29 -12.5q-23 -17 -31 -45t-8 -92v-78q127 9 147 9q196 0 311 -74q72 -44 116 -130t44 -181 q0 -115 -61 -206t-170 -138q-108 -47 -287 -50v58q70 6 108 17.5t70 35.5q47 35 73 101t26 149q0 115 -43.5 202t-114.5 115q-41 17 -113 17q-40 0 -106 -13v-794q0 -64 8 -92t31 -45q14 -10 29 -12.5t63 -2.5h33v-55q-188 4 -283 4q-88 0 -283 -4z" />
<glyph unicode="&#xdf;" horiz-adv-x="1097" d="M55 -4v49h19q64 0 82 18q5 5 7 10t3.5 28.5t1.5 72.5v588h-113v45l99 67q15 11 19.5 24.5t4.5 53.5q3 250 232 428q176 136 350 136q132 0 217.5 -66.5t85.5 -169.5q0 -81 -50.5 -153t-168.5 -160q-90 -66 -128 -112t-38 -89q0 -42 53 -92q18 -18 133 -105 q103 -77 141.5 -135t38.5 -137q0 -129 -87.5 -226.5t-204.5 -97.5q-82 0 -140.5 37t-58.5 88q0 29 22 48.5t54 19.5q35 0 57 -51q19 -43 42 -62.5t56 -19.5q47 0 85 41.5t38 93.5q0 97 -157 201q-86 55 -110.5 73.5t-45.5 42.5q-64 76 -64 181q0 82 40.5 142.5t154.5 149.5 q95 75 133.5 134.5t38.5 128.5q0 94 -63 155.5t-160 61.5q-79 0 -146 -43t-102 -117q-20 -44 -33.5 -118.5t-13.5 -139.5v-846q0 -51 1.5 -74.5t4 -28.5t8.5 -10q22 -16 80 -16h8v-49q-94 4 -213 4t-213 -4z" />
<glyph unicode="&#xe0;" horiz-adv-x="927" d="M61 160q0 88 65.5 133t330.5 157q41 18 63 27q4 3 53 23v98q0 50 -9.5 77t-35.5 50q-25 22 -65.5 36.5t-75.5 14.5q-54 0 -86.5 -31t-38.5 -88q-5 -34 -11.5 -47.5t-25.5 -25.5q-58 -35 -104 -35q-19 0 -25 8t-6 31q0 54 27.5 91.5t103.5 88.5q113 74 181 103.5t126 29.5 q107 0 179.5 -67.5t72.5 -167.5v-449q0 -66 19.5 -96.5t60.5 -30.5q24 0 62 25l16 -37q-65 -59 -109 -82t-96 -23q-63 0 -98.5 31t-54.5 102q-102 -77 -168.5 -105t-147.5 -28q-91 0 -147 52t-56 135zM164 1294q0 25 18 43.5t43 18.5q36 0 78 -56l229 -311l-34 -26l-281 251 q-31 27 -42 44t-11 36zM270 217q0 -60 39.5 -99.5t98.5 -39.5q39 0 69 17t96 75v260q-168 -44 -235.5 -91.5t-67.5 -121.5z" />
<glyph unicode="&#xe1;" horiz-adv-x="927" d="M61 160q0 88 65.5 133t330.5 157q41 18 63 27q4 3 53 23v98q0 50 -9.5 77t-35.5 50q-25 22 -65.5 36.5t-75.5 14.5q-54 0 -86.5 -31t-38.5 -88q-5 -34 -11.5 -47.5t-25.5 -25.5q-58 -35 -104 -35q-19 0 -25 8t-6 31q0 54 27.5 91.5t103.5 88.5q113 74 181 103.5t126 29.5 q107 0 179.5 -67.5t72.5 -167.5v-449q0 -66 19.5 -96.5t60.5 -30.5q24 0 62 25l16 -37q-65 -59 -109 -82t-96 -23q-63 0 -98.5 31t-54.5 102q-102 -77 -168.5 -105t-147.5 -28q-91 0 -147 52t-56 135zM270 217q0 -60 39.5 -99.5t98.5 -39.5q39 0 69 17t96 75v260 q-168 -44 -235.5 -91.5t-67.5 -121.5zM459 989l229 311q40 56 78 56q25 0 43 -18.5t18 -43.5q0 -19 -11 -35.5t-42 -44.5l-278 -251z" />
<glyph unicode="&#xe2;" horiz-adv-x="927" d="M61 160q0 88 65.5 133t330.5 157q41 18 63 27q4 3 53 23v98q0 50 -9.5 77t-35.5 50q-25 22 -65.5 36.5t-75.5 14.5q-54 0 -86.5 -31t-38.5 -88q-5 -34 -11.5 -47.5t-25.5 -25.5q-58 -35 -104 -35q-19 0 -25 8t-6 31q0 54 27.5 91.5t103.5 88.5q113 74 181 103.5t126 29.5 q107 0 179.5 -67.5t72.5 -167.5v-449q0 -66 19.5 -96.5t60.5 -30.5q24 0 62 25l16 -37q-65 -59 -109 -82t-96 -23q-63 0 -98.5 31t-54.5 102q-102 -77 -168.5 -105t-147.5 -28q-91 0 -147 52t-56 135zM231 987l263 453l251 -447l-36 -24l-215 252l-228 -258zM270 217 q0 -60 39.5 -99.5t98.5 -39.5q39 0 69 17t96 75v260q-168 -44 -235.5 -91.5t-67.5 -121.5z" />
<glyph unicode="&#xe3;" horiz-adv-x="927" d="M61 160q0 88 65.5 133t330.5 157q41 18 63 27q4 3 53 23v98q0 50 -9.5 77t-35.5 50q-25 22 -65.5 36.5t-75.5 14.5q-54 0 -86.5 -31t-38.5 -88q-5 -34 -11.5 -47.5t-25.5 -25.5q-58 -35 -104 -35q-19 0 -25 8t-6 31q0 54 27.5 91.5t103.5 88.5q113 74 181 103.5t126 29.5 q107 0 179.5 -67.5t72.5 -167.5v-449q0 -66 19.5 -96.5t60.5 -30.5q24 0 62 25l16 -37q-65 -59 -109 -82t-96 -23q-63 0 -98.5 31t-54.5 102q-102 -77 -168.5 -105t-147.5 -28q-91 0 -147 52t-56 135zM195 1061q26 97 75.5 148t116.5 51q52 0 143 -52q112 -61 154 -61 q29 0 50.5 20t53.5 78l43 -18q-28 -103 -72 -150t-114 -47q-58 0 -139 47q-78 43 -102.5 53.5t-51.5 10.5q-34 0 -59.5 -22.5t-54.5 -76.5zM270 217q0 -60 39.5 -99.5t98.5 -39.5q39 0 69 17t96 75v260q-168 -44 -235.5 -91.5t-67.5 -121.5z" />
<glyph unicode="&#xe4;" horiz-adv-x="927" d="M61 160q0 88 65.5 133t330.5 157q41 18 63 27q4 3 53 23v98q0 50 -9.5 77t-35.5 50q-25 22 -65.5 36.5t-75.5 14.5q-54 0 -86.5 -31t-38.5 -88q-5 -34 -11.5 -47.5t-25.5 -25.5q-58 -35 -104 -35q-19 0 -25 8t-6 31q0 54 27.5 91.5t103.5 88.5q113 74 181 103.5t126 29.5 q107 0 179.5 -67.5t72.5 -167.5v-449q0 -66 19.5 -96.5t60.5 -30.5q24 0 62 25l16 -37q-65 -59 -109 -82t-96 -23q-63 0 -98.5 31t-54.5 102q-102 -77 -168.5 -105t-147.5 -28q-91 0 -147 52t-56 135zM184 1149q0 44 32.5 76t78.5 32q44 0 76 -32t32 -76q0 -46 -32 -78.5 t-76 -32.5q-46 0 -78.5 32.5t-32.5 78.5zM270 217q0 -60 39.5 -99.5t98.5 -39.5q39 0 69 17t96 75v260q-168 -44 -235.5 -91.5t-67.5 -121.5zM580 1149q0 44 32 76t78 32q44 0 76.5 -32t32.5 -76q0 -46 -32.5 -78.5t-76.5 -32.5q-46 0 -78 32.5t-32 78.5z" />
<glyph unicode="&#xe5;" horiz-adv-x="927" d="M61 160q0 88 65.5 133t330.5 157q41 18 63 27q4 3 53 23v98q0 50 -9.5 77t-35.5 50q-25 22 -65.5 36.5t-75.5 14.5q-54 0 -86.5 -31t-38.5 -88q-5 -34 -11.5 -47.5t-25.5 -25.5q-58 -35 -104 -35q-19 0 -25 8t-6 31q0 54 27.5 91.5t103.5 88.5q113 74 181 103.5t126 29.5 q107 0 179.5 -67.5t72.5 -167.5v-449q0 -66 19.5 -96.5t60.5 -30.5q24 0 62 25l16 -37q-65 -59 -109 -82t-96 -23q-63 0 -98.5 31t-54.5 102q-102 -77 -168.5 -105t-147.5 -28q-91 0 -147 52t-56 135zM270 217q0 -60 39.5 -99.5t98.5 -39.5q39 0 69 17t96 75v260 q-168 -44 -235.5 -91.5t-67.5 -121.5zM305 1169q0 74 54.5 128.5t129.5 54.5q77 0 131 -54t54 -131q0 -75 -55 -129.5t-130 -54.5q-77 0 -130.5 54t-53.5 132zM373 1169q0 -50 33.5 -84t82.5 -34q47 0 82 34.5t35 81.5t-35 82t-82 35t-81.5 -34.5t-34.5 -80.5z" />
<glyph unicode="&#xe6;" horiz-adv-x="1404" d="M61 164q0 36 8.5 59t28 44.5t68 44t112 46t175.5 60.5q96 32 135 49v106q0 203 -166 203q-79 0 -115 -49q-13 -17 -16.5 -30t-9.5 -66q-3 -20 -13.5 -29t-48.5 -24q-74 -29 -82 -29q-15 0 -26 14.5t-11 36.5q0 29 16 61.5t42 55.5q28 23 121 76.5t139 72.5q92 37 164 37 q52 0 94 -24t96 -86q90 61 153.5 84.5t137.5 23.5q120 0 196 -61t76 -156q0 -26 -10.5 -36.5t-50.5 -22.5l-490 -154q0 -112 12.5 -162t49.5 -92q40 -44 100 -72t117 -28q92 0 178 61q6 3 11 7t24 19t47 36l29 -25q-114 -138 -201 -190t-207 -52q-195 0 -295 164 q-155 -108 -218 -137t-144 -29q-103 0 -164.5 52.5t-61.5 140.5zM281 211q0 -60 38 -99.5t95 -39.5q75 0 124.5 48t49.5 120v170q-123 -45 -232 -93q-40 -21 -57.5 -44.5t-17.5 -61.5zM780 520l262 88q37 12 59.5 37.5t22.5 54.5q0 49 -43 86t-100 37q-91 0 -143 -78.5 t-58 -224.5z" />
<glyph unicode="&#xe7;" horiz-adv-x="903" d="M76 406q0 119 50.5 223t145.5 174q65 50 151 79t165 29q107 0 185.5 -42.5t78.5 -100.5q0 -37 -36 -71.5t-73 -34.5q-30 0 -50.5 19t-63.5 87q-23 38 -48.5 53t-64.5 15q-98 0 -166.5 -94t-68.5 -228q0 -161 101.5 -276t242.5 -115q57 0 96.5 20.5t118.5 92.5l32 -21 q-88 -129 -169 -180.5t-214 -61.5q-32 -30 -32 -47q0 -20 39 -51q82 -68 82 -129q0 -66 -66.5 -125t-140.5 -59q-50 0 -87.5 27.5t-37.5 64.5q0 23 14.5 38t36.5 15q19 0 29 -5t51 -36q33 -26 63 -26q14 0 24.5 10.5t10.5 27.5q0 33 -63 99q-39 39 -52.5 59t-13.5 39 q0 26 16.5 43.5t71.5 58.5l17 13q-82 3 -114.5 11.5t-76.5 39.5q-88 61 -136 156.5t-48 208.5z" />
<glyph unicode="&#xe8;" horiz-adv-x="905" d="M76 414q0 217 145 356q63 60 141.5 93.5t155.5 33.5q129 0 225.5 -85t96.5 -198q0 -34 -21.5 -46.5t-79.5 -12.5h-479v-33q0 -71 12.5 -119t42.5 -96q49 -78 123.5 -121t159.5 -43q62 0 112.5 20t108.5 66l29 -28q-60 -76 -98 -111q-57 -55 -131 -86t-148 -31 q-167 0 -281 127t-114 314zM166 1294q0 25 18 43.5t43 18.5q36 0 78 -56l230 -311l-35 -26l-281 251q-31 27 -42 44t-11 36zM264 612h295q88 0 88 66q0 58 -46.5 102.5t-108.5 44.5q-80 0 -143 -59t-85 -154z" />
<glyph unicode="&#xe9;" horiz-adv-x="905" d="M76 414q0 217 145 356q63 60 141.5 93.5t155.5 33.5q129 0 225.5 -85t96.5 -198q0 -34 -21.5 -46.5t-79.5 -12.5h-479v-33q0 -71 12.5 -119t42.5 -96q49 -78 123.5 -121t159.5 -43q62 0 112.5 20t108.5 66l29 -28q-60 -76 -98 -111q-57 -55 -131 -86t-148 -31 q-167 0 -281 127t-114 314zM264 612h295q88 0 88 66q0 58 -46.5 102.5t-108.5 44.5q-80 0 -143 -59t-85 -154zM475 989l230 311q23 32 40 44t37 12q25 0 43.5 -18.5t18.5 -43.5q0 -19 -11 -35.5t-42 -44.5l-279 -251z" />
<glyph unicode="&#xea;" horiz-adv-x="905" d="M76 414q0 217 145 356q63 60 141.5 93.5t155.5 33.5q129 0 225.5 -85t96.5 -198q0 -34 -21.5 -46.5t-79.5 -12.5h-479v-33q0 -71 12.5 -119t42.5 -96q49 -78 123.5 -121t159.5 -43q62 0 112.5 20t108.5 66l29 -28q-60 -76 -98 -111q-57 -55 -131 -86t-148 -31 q-167 0 -281 127t-114 314zM246 987l262 453l252 -447l-37 -24l-215 252l-227 -258zM264 612h295q88 0 88 66q0 58 -46.5 102.5t-108.5 44.5q-80 0 -143 -59t-85 -154z" />
<glyph unicode="&#xeb;" horiz-adv-x="905" d="M76 414q0 217 145 356q63 60 141.5 93.5t155.5 33.5q129 0 225.5 -85t96.5 -198q0 -34 -21.5 -46.5t-79.5 -12.5h-479v-33q0 -71 12.5 -119t42.5 -96q49 -78 123.5 -121t159.5 -43q62 0 112.5 20t108.5 66l29 -28q-60 -76 -98 -111q-57 -55 -131 -86t-148 -31 q-167 0 -281 127t-114 314zM201 1149q0 44 32 76t78 32q44 0 76.5 -32t32.5 -76q0 -46 -32.5 -78.5t-76.5 -32.5q-46 0 -78 32.5t-32 78.5zM264 612h295q88 0 88 66q0 58 -46.5 102.5t-108.5 44.5q-80 0 -143 -59t-85 -154zM596 1149q0 44 32.5 76t78.5 32q44 0 76 -32 t32 -76q0 -46 -32 -78.5t-76 -32.5q-46 0 -78.5 32.5t-32.5 78.5z" />
<glyph unicode="&#xec;" horiz-adv-x="542" d="M-57 1294q0 25 18 43.5t43 18.5q36 0 78 -56l229 -311l-35 -26l-280 251q-31 27 -42 44t-11 36zM47 -4v49h29q64 0 82 18q5 5 7 10t3.5 28.5t1.5 72.5v500q0 10 -0.5 19.5t-1 15t-0.5 6.5q-2 14 -10 20t-37 15l-51 16v45q86 20 272 104l39 -6v-735q0 -51 1.5 -74.5 t4 -28.5t8.5 -10q22 -16 80 -16h29v-49q-162 4 -240 4q-113 0 -217 -4z" />
<glyph unicode="&#xed;" horiz-adv-x="542" d="M47 -4v49h29q64 0 82 18q5 5 7 10t3.5 28.5t1.5 72.5v500q0 10 -0.5 19.5t-1 15t-0.5 6.5q-2 14 -10 20t-37 15l-51 16v45q86 20 272 104l39 -6v-735q0 -51 1.5 -74.5t4 -28.5t8.5 -10q22 -16 80 -16h29v-49q-162 4 -240 4q-113 0 -217 -4zM246 989l229 311q40 56 78 56 q25 0 43 -18.5t18 -43.5q0 -19 -11 -35.5t-42 -44.5l-278 -251z" />
<glyph unicode="&#xee;" horiz-adv-x="542" d="M23 987l262 453l252 -447l-37 -24l-215 252l-228 -258zM47 -4v49h29q64 0 82 18q5 5 7 10t3.5 28.5t1.5 72.5v500q0 10 -0.5 19.5t-1 15t-0.5 6.5q-2 14 -10 20t-37 15l-51 16v45q86 20 272 104l39 -6v-735q0 -51 1.5 -74.5t4 -28.5t8.5 -10q22 -16 80 -16h29v-49 q-162 4 -240 4q-113 0 -217 -4z" />
<glyph unicode="&#xef;" horiz-adv-x="542" d="M-2 1149q0 44 32.5 76t78.5 32q44 0 76 -32t32 -76q0 -46 -32 -78.5t-76 -32.5q-46 0 -78.5 32.5t-32.5 78.5zM47 -4v49h29q64 0 82 18q5 5 7 10t3.5 28.5t1.5 72.5v500q0 10 -0.5 19.5t-1 15t-0.5 6.5q-2 14 -10 20t-37 15l-51 16v45q86 20 272 104l39 -6v-735 q0 -51 1.5 -74.5t4 -28.5t8.5 -10q22 -16 80 -16h29v-49q-162 4 -240 4q-113 0 -217 -4zM340 1149q0 44 32.5 76t78.5 32q44 0 76 -32t32 -76q0 -46 -32 -78.5t-76 -32.5q-46 0 -78.5 32.5t-32.5 78.5z" />
<glyph unicode="&#xf0;" horiz-adv-x="1112" d="M76 434q0 198 141 331.5t352 133.5q45 0 113 -12q-20 100 -104 297l-185 -94l-43 81l191 99q-39 83 -107 205l33 20q27 -27 151 -186l193 98l41 -80l-178 -92q135 -187 225 -352q77 -143 108 -239.5t31 -194.5q0 -229 -155 -357q-143 -121 -328 -121q-202 0 -340.5 134 t-138.5 329zM317 481q0 -145 50 -276q32 -82 85.5 -125t122.5 -43q104 0 164 92.5t60 253.5q0 66 -13.5 145t-33.5 136q-61 172 -209 172q-226 0 -226 -355z" />
<glyph unicode="&#xf1;" horiz-adv-x="1099" d="M47 -4v49h29q64 0 82 18q5 5 7 10t3.5 28.5t1.5 72.5v504q0 43 -7 53t-42 21l-51 16v41q139 39 280 106l31 -6v-153q93 78 168 111.5t153 33.5q58 0 110.5 -21t84.5 -57q26 -28 36.5 -69.5t10.5 -116.5v-463q0 -51 1.5 -74.5t4 -28.5t8.5 -10q22 -16 80 -16h29v-49 q-96 4 -215 4q-123 0 -227 -4v49h14q64 0 82 18q5 5 7 10t3.5 28.5t1.5 72.5v389q0 56 -4.5 83.5t-17.5 51.5q-17 29 -50.5 46.5t-74.5 17.5q-92 0 -205 -64v-524q0 -51 1.5 -74.5t4 -28.5t8.5 -10q22 -16 80 -16h17v-49q-86 4 -205 4q-131 0 -240 -4zM266 1061 q26 97 75.5 148t117.5 51q52 0 143 -52q112 -61 154 -61q29 0 50.5 20t53.5 78l43 -18q-28 -103 -72 -150t-114 -47q-58 0 -139 47q-78 43 -102.5 53.5t-51.5 10.5q-34 0 -60 -22.5t-55 -76.5z" />
<glyph unicode="&#xf2;" horiz-adv-x="1112" d="M76 442q0 125 65 230t178 166t248 61q201 0 336 -134.5t135 -334.5q0 -194 -141 -326.5t-346 -132.5q-96 0 -189 39.5t-161 108.5q-125 128 -125 323zM227 1294q0 25 18.5 43.5t43.5 18.5q36 0 78 -56l229 -311l-35 -26l-280 251q-32 27 -43 44t-11 36zM317 481 q0 -145 50 -276q32 -82 85.5 -125t122.5 -43q104 0 164 92.5t60 253.5q0 66 -13.5 145t-33.5 136q-61 172 -209 172q-226 0 -226 -355z" />
<glyph unicode="&#xf3;" horiz-adv-x="1112" d="M76 442q0 125 65 230t178 166t248 61q201 0 336 -134.5t135 -334.5q0 -194 -141 -326.5t-346 -132.5q-96 0 -189 39.5t-161 108.5q-125 128 -125 323zM317 481q0 -145 50 -276q32 -82 85.5 -125t122.5 -43q104 0 164 92.5t60 253.5q0 66 -13.5 145t-33.5 136 q-61 172 -209 172q-226 0 -226 -355zM530 989l230 311q40 56 78 56q25 0 43 -18.5t18 -43.5q0 -19 -11 -35.5t-42 -44.5l-279 -251z" />
<glyph unicode="&#xf4;" horiz-adv-x="1112" d="M76 442q0 125 65 230t178 166t248 61q201 0 336 -134.5t135 -334.5q0 -194 -141 -326.5t-346 -132.5q-96 0 -189 39.5t-161 108.5q-125 128 -125 323zM307 987l262 453l252 -447l-37 -24l-215 252l-227 -258zM317 481q0 -145 50 -276q32 -82 85.5 -125t122.5 -43 q104 0 164 92.5t60 253.5q0 66 -13.5 145t-33.5 136q-61 172 -209 172q-226 0 -226 -355z" />
<glyph unicode="&#xf5;" horiz-adv-x="1112" d="M76 442q0 125 65 230t178 166t248 61q201 0 336 -134.5t135 -334.5q0 -194 -141 -326.5t-346 -132.5q-96 0 -189 39.5t-161 108.5q-125 128 -125 323zM287 1061q26 97 75.5 148t116.5 51q53 0 144 -52q65 -36 96.5 -48.5t56.5 -12.5q30 0 51.5 20t53.5 78l43 -18 q-28 -103 -72.5 -150t-114.5 -47q-58 0 -139 47q-78 43 -102.5 53.5t-51.5 10.5q-34 0 -59.5 -22.5t-54.5 -76.5zM317 481q0 -145 50 -276q32 -82 85.5 -125t122.5 -43q104 0 164 92.5t60 253.5q0 66 -13.5 145t-33.5 136q-61 172 -209 172q-226 0 -226 -355z" />
<glyph unicode="&#xf6;" horiz-adv-x="1112" d="M76 442q0 125 65 230t178 166t248 61q201 0 336 -134.5t135 -334.5q0 -194 -141 -326.5t-346 -132.5q-96 0 -189 39.5t-161 108.5q-125 128 -125 323zM256 1149q0 44 32.5 76t78.5 32q44 0 76 -32t32 -76q0 -46 -32 -78.5t-76 -32.5q-46 0 -78.5 32.5t-32.5 78.5z M317 481q0 -145 50 -276q32 -82 85.5 -125t122.5 -43q104 0 164 92.5t60 253.5q0 66 -13.5 145t-33.5 136q-61 172 -209 172q-226 0 -226 -355zM651 1149q0 44 32.5 76t78.5 32q44 0 76 -32t32 -76q0 -46 -32 -78.5t-76 -32.5q-46 0 -78.5 32.5t-32.5 78.5z" />
<glyph unicode="&#xf7;" d="M31 657v123h962v-123h-962zM412 356q0 42 30 71.5t72 29.5q41 0 70.5 -30.5t29.5 -70.5q0 -41 -29.5 -71.5t-70.5 -30.5t-71.5 30.5t-30.5 71.5zM412 1081q0 43 29.5 73t72.5 30q41 0 70.5 -30.5t29.5 -72.5q0 -41 -29.5 -70.5t-72.5 -29.5q-40 0 -70 30t-30 70z" />
<glyph unicode="&#xf8;" horiz-adv-x="1112" d="M76 436q0 197 141 330t350 133q145 0 260 -74l115 138l68 -54l-115 -137q143 -140 143 -342q0 -192 -140.5 -325.5t-342.5 -133.5q-143 0 -264 74l-121 -143l-66 53l119 141q-147 132 -147 340zM317 481q0 -120 33 -229l381 459q-63 125 -188 125q-226 0 -226 -355z M385 160q32 -59 82 -91t108 -32q105 0 164.5 92t59.5 254q0 112 -33 233z" />
<glyph unicode="&#xf9;" horiz-adv-x="1083" d="M43 797v51q91 4 145 14t154 39l27 -12v-588q0 -89 43 -139.5t120 -50.5q95 0 183 92v499q0 43 -20 59.5t-93 35.5v51q91 4 145 14t154 39l27 -12v-674q0 -100 10 -113q5 -6 18 -8t60 -2h37v-47q-150 -25 -312 -57l-26 12v123q-187 -150 -326 -150q-68 0 -128.5 33 t-80.5 82q-24 56 -24 150v464q0 43 -20 59.5t-93 35.5zM213 1294q0 25 18 43.5t43 18.5q36 0 78 -56l230 -311l-35 -26l-281 251q-31 27 -42 44t-11 36z" />
<glyph unicode="&#xfa;" horiz-adv-x="1083" d="M43 797v51q91 4 145 14t154 39l27 -12v-588q0 -89 43 -139.5t120 -50.5q95 0 183 92v499q0 43 -20 59.5t-93 35.5v51q91 4 145 14t154 39l27 -12v-674q0 -100 10 -113q5 -6 18 -8t60 -2h37v-47q-150 -25 -312 -57l-26 12v123q-187 -150 -326 -150q-68 0 -128.5 33 t-80.5 82q-24 56 -24 150v464q0 43 -20 59.5t-93 35.5zM522 989l230 311q23 32 40 44t37 12q25 0 43.5 -18.5t18.5 -43.5q0 -19 -11 -35.5t-42 -44.5l-279 -251z" />
<glyph unicode="&#xfb;" horiz-adv-x="1083" d="M43 797v51q91 4 145 14t154 39l27 -12v-588q0 -89 43 -139.5t120 -50.5q95 0 183 92v499q0 43 -20 59.5t-93 35.5v51q91 4 145 14t154 39l27 -12v-674q0 -100 10 -113q5 -6 18 -8t60 -2h37v-47q-150 -25 -312 -57l-26 12v123q-187 -150 -326 -150q-68 0 -128.5 33 t-80.5 82q-24 56 -24 150v464q0 43 -20 59.5t-93 35.5zM299 987l262 453l252 -447l-37 -24l-215 252l-227 -258z" />
<glyph unicode="&#xfc;" horiz-adv-x="1083" d="M43 797v51q91 4 145 14t154 39l27 -12v-588q0 -89 43 -139.5t120 -50.5q95 0 183 92v499q0 43 -20 59.5t-93 35.5v51q91 4 145 14t154 39l27 -12v-674q0 -100 10 -113q5 -6 18 -8t60 -2h37v-47q-150 -25 -312 -57l-26 12v123q-187 -150 -326 -150q-68 0 -128.5 33 t-80.5 82q-24 56 -24 150v464q0 43 -20 59.5t-93 35.5zM242 1149q0 44 32 76t78 32q44 0 76.5 -32t32.5 -76q0 -46 -32.5 -78.5t-76.5 -32.5q-46 0 -78 32.5t-32 78.5zM637 1149q0 44 32.5 76t78.5 32q44 0 76 -32t32 -76q0 -46 -32 -78.5t-76 -32.5q-46 0 -78.5 32.5 t-32.5 78.5z" />
<glyph unicode="&#xfd;" horiz-adv-x="876" d="M-20 829v50q118 -5 208 -5q98 0 228 5v-50q-59 0 -79 -7t-20 -29q0 -24 23 -80l178 -443l172 412q21 52 21 82q0 34 -24.5 47t-92.5 18v50q144 -5 166 -5q19 0 158 5v-50q-49 -1 -79.5 -30t-58.5 -97l-415 -1007q-33 -79 -56 -105q-47 -47 -96 -47q-44 0 -82.5 37.5 t-38.5 81.5q0 41 30 73t68 32q33 0 58 -31q17 -23 26 -23q17 0 37 49l97 218l-304 722q-37 88 -52.5 104t-71.5 23zM473 989l229 311q40 56 78 56q25 0 43.5 -18.5t18.5 -43.5q0 -18 -11.5 -35t-42.5 -45l-278 -251z" />
<glyph unicode="&#xfe;" horiz-adv-x="1118" d="M39 -410h29q59 0 82 19q5 7 7 11.5t3.5 28t1.5 72.5v1551q0 43 -7 53t-42 21l-52 16v41q137 39 281 106l31 -6v-729q126 75 191 101t126 26q148 0 250 -120t102 -292q0 -105 -48.5 -212.5t-129.5 -180.5q-138 -123 -321 -123q-81 0 -170 31v-283q0 -50 1.5 -74t4 -29 t8.5 -11q24 -17 80 -17h53v-47q-201 4 -268 4q-109 0 -213 -4v47zM373 201q0 -22 29.5 -59.5t68.5 -65.5q55 -39 111 -39q52 0 109 33.5t85 79.5q51 85 51 231q0 164 -61 256q-37 60 -103 96.5t-135 36.5q-86 0 -155 -63v-506z" />
<glyph unicode="&#xff;" horiz-adv-x="876" d="M-20 829v50q118 -5 208 -5q98 0 228 5v-50q-59 0 -79 -7t-20 -29q0 -24 23 -80l178 -443l172 412q21 52 21 82q0 34 -24.5 47t-92.5 18v50q144 -5 166 -5q19 0 158 5v-50q-49 -1 -79.5 -30t-58.5 -97l-415 -1007q-33 -79 -56 -105q-47 -47 -96 -47q-44 0 -82.5 37.5 t-38.5 81.5q0 41 30 73t68 32q33 0 58 -31q17 -23 26 -23q17 0 37 49l97 218l-304 722q-37 88 -52.5 104t-71.5 23zM205 1149q0 44 32 76t78 32q44 0 76.5 -32t32.5 -76q0 -46 -32.5 -78.5t-76.5 -32.5q-46 0 -78 32.5t-32 78.5zM600 1149q0 44 32.5 76t78.5 32q44 0 76 -32 t32 -76q0 -46 -32 -78.5t-76 -32.5q-46 0 -78.5 32.5t-32.5 78.5z" />
<glyph unicode="&#x152;" horiz-adv-x="2050" d="M82 670q0 349 235 553q204 178 506 178q40 0 56.5 -0.5t74.5 -6.5t179 -20q13 -2 28 -4t23.5 -3t11.5 -1h416q155 0 282 4l19 -303l-43 -6q-23 91 -42.5 129.5t-51.5 58.5q-34 21 -65 25t-152 4h-248v-528h288q37 0 68 14t43 37q12 19 17 41.5t8 75.5h49q-4 -94 -4 -203 q0 -70 4 -238h-49q-6 54 -15 82t-28 51q-17 23 -48 37.5t-63 14.5h-270v-386q0 -45 2 -72t9.5 -50t19 -34.5t34 -19.5t50 -10t71.5 -2h217q116 0 172 44.5t99 168.5l49 -6l-70 -299q-125 4 -283 4h-575q-18 0 -156 -25q-46 -10 -145 -10q-183 0 -318.5 55.5t-236.5 172.5 q-168 191 -168 477zM350 692q0 -305 164 -508q119 -143 340 -143q121 0 176 43q25 22 33 58t8 128v904q0 24 -14.5 54.5t-34.5 47.5q-52 49 -180 49q-230 0 -361 -168.5t-131 -464.5z" />
<glyph unicode="&#x153;" horiz-adv-x="1585" d="M76 436q0 125 61 231.5t165 169t226 62.5q213 0 338 -149q185 151 346 151q120 0 218 -85t98 -191q0 -38 -21.5 -52t-81.5 -14h-469q-2 -27 -2 -67q0 -172 83 -266.5t235 -94.5q63 0 107 19t114 77l29 -30q-95 -127 -175 -176.5t-188 -49.5q-86 0 -155 32.5t-144 107.5 q-92 -74 -169.5 -106t-168.5 -32q-121 0 -223.5 62t-162.5 168.5t-60 232.5zM311 449q0 -197 59.5 -304.5t168.5 -107.5q213 0 213 397q0 176 -54 281q-29 57 -76 91t-98 34q-54 0 -103.5 -40t-72.5 -102q-37 -93 -37 -249zM963 616h235q29 0 49 2t40.5 8.5t31 21t10.5 36.5 q0 60 -47 103.5t-111 43.5q-85 0 -139 -56t-69 -159z" />
<glyph unicode="&#x178;" horiz-adv-x="1284" d="M-61 1315v55q119 -4 303 -4q173 0 286 4v-55q-106 0 -106 -45q0 -31 53 -103l287 -379l266 398q39 55 39 82q0 28 -29 37.5t-118 9.5v55q145 -4 229 -4q98 0 170 4v-55q-41 -3 -64 -12t-43 -31q-3 -4 -12 -13t-15 -16t-21 -27t-36 -49l-327 -460v-504q0 -64 8 -92t31 -45 q14 -10 29 -12.5t63 -2.5h61v-55q-205 4 -307 4q-100 0 -315 -4v55h59q48 0 63 2.5t29 12.5q23 17 31 45t8 92v438l-362 489q-84 112 -130 145.5t-130 39.5zM336 1681q0 46 35 80.5t82 34.5t81.5 -35t34.5 -82t-34.5 -81.5t-81.5 -34.5q-49 0 -83 34t-34 84zM883 1681 q0 46 34.5 80.5t81.5 34.5t82 -35t35 -82t-35 -81.5t-82 -34.5q-49 0 -82.5 34t-33.5 84z" />
<glyph unicode="&#x2c6;" d="M256 987l262 453l252 -447l-37 -24l-215 252l-227 -258z" />
<glyph unicode="&#x2dc;" d="M195 1061q26 97 75.5 148t116.5 51q52 0 143 -52q112 -61 154 -61q29 0 50.5 20t53.5 78l43 -18q-28 -103 -72 -150t-114 -47q-58 0 -139 47q-78 43 -102.5 53.5t-51.5 10.5q-34 0 -59.5 -22.5t-54.5 -76.5z" />
<glyph unicode="&#x2000;" horiz-adv-x="929" />
<glyph unicode="&#x2001;" horiz-adv-x="1858" />
<glyph unicode="&#x2002;" horiz-adv-x="929" />
<glyph unicode="&#x2003;" horiz-adv-x="1858" />
<glyph unicode="&#x2004;" horiz-adv-x="619" />
<glyph unicode="&#x2005;" horiz-adv-x="464" />
<glyph unicode="&#x2006;" horiz-adv-x="309" />
<glyph unicode="&#x2007;" horiz-adv-x="309" />
<glyph unicode="&#x2008;" horiz-adv-x="232" />
<glyph unicode="&#x2009;" horiz-adv-x="371" />
<glyph unicode="&#x200a;" horiz-adv-x="103" />
<glyph unicode="&#x2010;" horiz-adv-x="442" d="M0 371l27 137h415l-26 -137h-416z" />
<glyph unicode="&#x2011;" horiz-adv-x="442" d="M0 371l27 137h415l-26 -137h-416z" />
<glyph unicode="&#x2012;" horiz-adv-x="442" d="M0 371l27 137h415l-26 -137h-416z" />
<glyph unicode="&#x2013;" horiz-adv-x="858" d="M41 371l27 137h749l-29 -137h-747z" />
<glyph unicode="&#x2014;" horiz-adv-x="1327" d="M0 371l27 137h1300l-27 -137h-1300z" />
<glyph unicode="&#x2018;" horiz-adv-x="538" d="M96 1169q0 115 94 208.5t248 131.5l4 -51q-80 -22 -140 -78t-60 -108q0 -32 26 -55q12 -8 76 -31q29 -10 47.5 -38.5t18.5 -62.5q0 -53 -41.5 -92t-96.5 -39q-72 0 -124 63.5t-52 151.5z" />
<glyph unicode="&#x2019;" horiz-adv-x="538" d="M96 1004q80 23 141.5 79.5t61.5 108.5q0 33 -27 53q-9 7 -75 31q-30 10 -49 39t-19 63q0 53 41 92t96 39q73 0 125.5 -63.5t52.5 -151.5q0 -115 -95 -209t-249 -131z" />
<glyph unicode="&#x201a;" horiz-adv-x="546" d="M72 -281q72 26 121 56q40 26 65 68t25 83q0 38 -33 68q-6 8 -15.5 13t-60.5 28q-28 13 -45.5 45.5t-17.5 69.5q0 58 38.5 95.5t98.5 37.5q77 0 131.5 -67.5t54.5 -162.5q0 -71 -36 -145t-97 -129q-89 -81 -219 -105z" />
<glyph unicode="&#x201c;" horiz-adv-x="960" d="M96 1169q0 115 94 208.5t248 131.5l4 -51q-80 -22 -140 -78t-60 -108q0 -32 26 -55q12 -8 76 -31q29 -10 47.5 -38.5t18.5 -62.5q0 -53 -41.5 -92t-96.5 -39q-72 0 -124 63.5t-52 151.5zM518 1169q0 115 95 208.5t249 131.5l4 -51q-81 -22 -141.5 -77.5t-60.5 -108.5 q0 -32 26 -55q23 -12 76 -31q29 -11 48.5 -39t19.5 -62q0 -53 -41.5 -92t-96.5 -39q-73 0 -125.5 63.5t-52.5 151.5z" />
<glyph unicode="&#x201d;" horiz-adv-x="960" d="M96 1004q80 23 141.5 79.5t61.5 108.5q0 33 -27 53q-9 7 -75 31q-30 10 -49 39t-19 63q0 53 41 92t96 39q73 0 125.5 -63.5t52.5 -151.5q0 -115 -95 -209t-249 -131zM520 1004q80 23 140.5 79.5t60.5 108.5q0 33 -27 53q-6 6 -76 31q-29 10 -47 39t-18 63q0 53 41 92 t96 39q72 0 124 -63.5t52 -151.5q0 -116 -94 -209.5t-248 -130.5z" />
<glyph unicode="&#x201e;" horiz-adv-x="960" d="M96 -240q82 23 142.5 79.5t60.5 109.5q0 31 -27 55q-11 5 -75 29q-29 11 -48.5 39.5t-19.5 62.5q0 53 41 92t96 39q73 0 125.5 -63.5t52.5 -151.5q0 -115 -95 -208.5t-249 -131.5zM520 -240q80 23 140.5 80t60.5 109q0 33 -27 53q-6 6 -76 31q-29 10 -47 39t-18 63 q0 53 41 92t96 39q72 0 124 -63.5t52 -151.5q0 -115 -94 -208.5t-248 -131.5z" />
<glyph unicode="&#x2022;" horiz-adv-x="1366" d="M401 692q0 120 83.5 202.5t205.5 82.5q114 0 196.5 -83.5t82.5 -199.5q0 -118 -83 -201t-200 -83t-201 82.5t-84 199.5z" />
<glyph unicode="&#x2026;" horiz-adv-x="1638" d="M123 125q0 61 44.5 105t106.5 44t106 -44t44 -105q0 -63 -44 -107.5t-106 -44.5q-63 0 -107 44.5t-44 107.5zM670 125q0 61 44.5 105t106.5 44t106 -44t44 -105q0 -63 -44 -107.5t-106 -44.5q-63 0 -107 44.5t-44 107.5zM1214 125q0 61 45 105t107 44t106 -44t44 -105 q0 -63 -44 -107.5t-106 -44.5q-63 0 -107.5 44.5t-44.5 107.5z" />
<glyph unicode="&#x202f;" horiz-adv-x="371" />
<glyph unicode="&#x2039;" horiz-adv-x="548" d="M68 449l338 309l40 -27l-194 -282l201 -281l-41 -39z" />
<glyph unicode="&#x203a;" horiz-adv-x="548" d="M96 719l41 39l344 -320l-338 -309l-41 27l195 282z" />
<glyph unicode="&#x205f;" horiz-adv-x="464" />
<glyph unicode="&#x20ac;" horiz-adv-x="1538" d="M53 590l31 72h78q-2 10 -2 20q0 22 2 51h-109l31 72h86q27 174 131.5 310t265.5 211t351 75q179 0 548 -125v-318l-51 5q-21 83 -41 127t-55 79q-63 66 -164 105t-211 39q-207 0 -340.5 -134.5t-161.5 -373.5h721l-30 -72h-697v-28q0 -27 2 -43h664l-31 -72h-627 q43 -259 185.5 -407t349.5 -148q99 0 183.5 36t142.5 103q32 35 52.5 73.5t45.5 108.5l47 -12l-41 -295q-214 -84 -459 -84q-203 0 -368 66.5t-263 189.5q-123 153 -153 369h-113z" />
<glyph unicode="&#x2122;" horiz-adv-x="2148" d="M10 1186l33 213h35q4 -14 6 -18.5t16.5 -9t35 -5t69.5 -0.5h540q66 0 82 4q12 0 19.5 5.5t19.5 23.5h37l-22 -219h-45q-9 63 -23 86q-24 34 -113 34h-161v-628q0 -56 11 -69t62 -13h45v-47q-158 4 -198 4q-37 0 -203 -4v47h45q51 0 62.5 13t11.5 69v628h-148 q-81 0 -115.5 -23t-56.5 -91h-45zM905 545v45h35q54 0 73.5 23.5t28.5 101.5l54 483l2 16q0 65 -22.5 85t-100.5 24v45q59 -2 135 -2t137 2l281 -598l282 598q55 -2 129 -2q75 0 132 2v-45q-71 -2 -90 -14t-19 -56q0 -33 4 -84l35 -475q4 -67 22 -85.5t76 -18.5h21v-45 q-137 2 -191 2q-46 0 -196 -2v45q70 1 86 12t16 55q0 25 -2 35l-37 477l-309 -639h-35l-291 613l-45 -422l-6 -49q-4 -35 18 -56t64 -24q19 0 35 -2v-45q-117 2 -170 2q-78 0 -152 -2z" />
<glyph unicode="&#xe000;" horiz-adv-x="880" d="M0 0v881h881v-881h-881z" />
</font>
</defs>
</svg>
