<?xml version="1.0" standalone="no"?>
<!DOCTYPE svg PUBLIC "-//W3C//DTD SVG 1.1//EN" "http://www.w3.org/Graphics/SVG/1.1/DTD/svg11.dtd" >
<svg xmlns="http://www.w3.org/2000/svg">
<metadata></metadata>
<defs>
<font id="SavoyCapsRegular" horiz-adv-x="1024" >
<font-face units-per-em="2048" ascent="1579" descent="-469" />
<missing-glyph horiz-adv-x="512" />
<glyph horiz-adv-x="0" />
<glyph horiz-adv-x="2048" />
<glyph unicode=" "  horiz-adv-x="512" />
<glyph unicode="&#x09;" horiz-adv-x="512" />
<glyph unicode="&#xa0;" horiz-adv-x="512" />
<glyph unicode="!" horiz-adv-x="518" d="M143 102q0 49 34.5 83t84.5 34q46 0 80.5 -35t34.5 -82t-35 -81.5t-82 -34.5t-82 34.5t-35 81.5zM152 821q0 51 30.5 83t79.5 32q48 0 78.5 -32t30.5 -83q0 -44 -9 -96l-75 -428h-49l-78 428q-8 54 -8 96z" />
<glyph unicode="&#x22;" horiz-adv-x="681" d="M106 1366h160l-45 -549h-71zM416 1366h157l-43 -549h-71z" />
<glyph unicode="#" horiz-adv-x="1210" d="M96 469l13 72h245l56 311h-240l10 72h246l86 442h78l-86 -442h313l86 442h80l-86 -442h227l-12 -72h-233l-54 -311h228l-13 -72h-233l-90 -469h-80l92 469h-313l-92 -469h-78l90 469h-240zM432 541h316l53 311h-314z" />
<glyph unicode="$" d="M102 334h37q25 -139 117 -219.5t223 -75.5v561q-178 79 -262 176t-84 223q0 141 89.5 237t256.5 134v111h51v-111q128 -3 287 -43l25 -237h-37q-13 60 -30 92.5t-48 60.5q-72 66 -174 66h-23v-537q141 -66 194.5 -99.5t100.5 -84.5q90 -97 90 -228q0 -92 -46 -173.5 t-128 -135.5q-42 -28 -84.5 -42t-126.5 -29v-166h-51v166q-175 3 -340 79zM270 1067q0 -45 20 -91.5t54 -80.5q25 -27 52 -47t83 -51v512q-51 -12 -79.5 -27.5t-59.5 -48.5q-70 -73 -70 -166zM530 39q60 11 92.5 24t59.5 39q80 74 80 195q0 93 -54.5 157.5t-177.5 118.5 v-534z" />
<glyph unicode="%" horiz-adv-x="1597" d="M43 1075q0 135 90 230.5t217 95.5q129 0 220.5 -97t91.5 -235q0 -137 -92 -233.5t-222 -96.5q-129 0 -217 97t-88 239zM176 1071q0 -132 45.5 -204t128.5 -72t129.5 71.5t46.5 200.5q0 130 -46.5 202t-129.5 72q-82 0 -128 -72t-46 -198zM434 0l658 1366h75l-663 -1366 h-70zM938 301q0 135 90 230.5t217 95.5q129 0 220 -97t91 -235q0 -137 -91.5 -233.5t-221.5 -96.5q-129 0 -217 97t-88 239zM1071 293q0 -132 45.5 -204.5t128.5 -72.5t129.5 72t46.5 201q0 130 -46.5 202t-129.5 72q-82 0 -128 -72t-46 -198z" />
<glyph unicode="&#x26;" horiz-adv-x="1265" d="M66 266q0 88 54 155.5t173 125.5q-113 87 -113 184q0 80 70 134.5t174 54.5q87 0 142 -43t55 -111q0 -54 -37 -95t-121 -83q86 -53 152.5 -110t138.5 -142l131 166q51 64 51 100q0 26 -18 36.5t-64 12.5v43q168 -4 193 -4q22 0 194 4l-2 -43q-96 0 -150 -27t-116 -104 l-180 -225l88 -109q56 -68 99.5 -96.5t92.5 -28.5q98 0 156 95l28 -37q-40 -68 -106 -106t-147 -38q-116 0 -216 103l-90 106q-94 -104 -171.5 -148t-168.5 -44q-126 0 -209 78t-83 196zM201 330q0 -97 75 -168.5t175 -71.5q52 0 97.5 29.5t110.5 105.5q-62 81 -157.5 166.5 t-167.5 124.5q-133 -68 -133 -186zM307 774q0 -41 30.5 -83t80.5 -70q45 25 63.5 56t18.5 83q0 51 -24 77.5t-68 26.5t-72.5 -25t-28.5 -65z" />
<glyph unicode="'" horiz-adv-x="393" d="M115 1366h164l-46 -549h-75z" />
<glyph unicode="(" horiz-adv-x="632" d="M96 682q0 220 98 428t287 391l29 -28q-95 -126 -142 -208t-81 -180q-66 -189 -66 -403q0 -255 88 -465q33 -78 76.5 -147.5t124.5 -175.5l-29 -31q-189 185 -287 393t-98 426z" />
<glyph unicode=")" horiz-adv-x="632" d="M123 -106q99 131 144 209t79 176q66 192 66 403q0 257 -88 467q-35 81 -77.5 150.5t-123.5 173.5l29 28q189 -183 287 -391t98 -428q0 -218 -98 -426t-287 -393z" />
<glyph unicode="*" horiz-adv-x="862" d="M121 1331q0 31 22 51.5t54 20.5q47 0 90 -74l69 -121l-125 33q-110 28 -110 90zM123 1022q0 68 102 88l137 29l-71 -109q-52 -80 -98 -80q-29 0 -49.5 21.5t-20.5 50.5zM399 952q0 17 2 27l15 139l82 -100q47 -56 47 -98q0 -28 -20.5 -48t-49.5 -20q-76 0 -76 100z M414 1384q0 111 73 111q29 0 51.5 -21t22.5 -49q0 -33 -47 -90l-92 -106l-6 131q-2 12 -2 24zM463 1169l121 45q61 21 82 21q32 0 52.5 -19.5t20.5 -50.5q0 -29 -20 -50t-49 -21q-36 0 -80 18z" />
<glyph unicode="+" d="M47 655v88h420v394h92v-394h420v-88h-420v-395h-92v395h-420z" />
<glyph unicode="," horiz-adv-x="505" d="M90 -297q92 7 150.5 69t58.5 150q0 43 -16 62t-54 24q-72 8 -104.5 33t-32.5 76q0 47 37 78.5t92 31.5q80 0 130 -60t50 -157q0 -143 -82 -238t-221 -112z" />
<glyph unicode="-" horiz-adv-x="423" d="M0 383l27 109h397l-29 -109h-395z" />
<glyph unicode="." horiz-adv-x="505" d="M133 92q0 50 35 84.5t86 34.5q48 0 82.5 -35t34.5 -84q0 -50 -34.5 -84.5t-84.5 -34.5t-84.5 34.5t-34.5 84.5z" />
<glyph unicode="/" horiz-adv-x="1009" d="M23 -129l839 1624h99l-840 -1624h-98z" />
<glyph unicode="0" horiz-adv-x="1130" d="M96 461q0 198 137.5 336.5t333.5 138.5q198 0 333.5 -139t135.5 -342q0 -202 -136 -342t-333 -140q-201 0 -336 140.5t-135 347.5zM209 459q0 -170 96 -270.5t260 -100.5t261.5 100t97.5 267t-97 266.5t-260 99.5t-260.5 -99t-97.5 -263z" />
<glyph unicode="1" horiz-adv-x="733" d="M55 -4v41q33 2 72 2q94 -2 125 29.5t31 128.5v522q0 106 -23 131.5t-123 26.5q-38 0 -69 2v41q51 -1 118 -2t111.5 -2t73.5 -1q30 0 75 1t112 2t118 2v-41q-33 -2 -72 -2q-94 1 -124.5 -30t-30.5 -128v-526q0 -103 23.5 -128t121.5 -26q39 0 70 -2v-41q-270 4 -306 4 q-37 0 -303 -4z" />
<glyph unicode="2" horiz-adv-x="956" d="M80 0v37q64 63 246 239q124 121 175.5 202.5t51.5 156.5q0 83 -51 134.5t-133 51.5q-119 0 -238 -131l-33 29q78 112 165 164.5t194 52.5q118 0 193 -72t75 -186q0 -99 -61.5 -186t-208.5 -197q-143 -109 -181 -143h527q24 0 40.5 16.5t53.5 77.5h37l-55 -246h-797z" />
<glyph unicode="3" horiz-adv-x="833" d="M78 -389q0 17 12 29t29 12q15 0 41 -17q33 -24 71 -24q61 0 134 33t124 84q105 105 105 258q0 125 -70 207.5t-176 82.5q-72 0 -139 -45l-23 35q209 141 277.5 214.5t68.5 158.5q0 78 -55 134t-131 56q-115 0 -221 -145l-33 27q153 225 340 225q103 0 166.5 -60.5 t63.5 -160.5q0 -84 -45.5 -152t-151.5 -143l-64 -45q57 16 97 16q115 0 183.5 -79t68.5 -210q0 -140 -66.5 -257.5t-189.5 -192.5q-70 -42 -164.5 -71.5t-159.5 -29.5q-41 0 -66.5 17t-25.5 43z" />
<glyph unicode="4" horiz-adv-x="1038" d="M31 41v84l661 848h72v-799h231v-133h-231v-420h-156v420h-577zM150 174h458v596z" />
<glyph unicode="5" horiz-adv-x="804" d="M49 -389q0 17 12 29t29 12q16 0 41 -17q33 -24 72 -24q61 0 132.5 32t127.5 85q102 96 102 282q0 187 -168 344q-43 40 -83 67t-154 95l149 404h471l-30 -150h-437l-49 -137q156 -79 246 -154q207 -174 207 -401q0 -129 -66 -241t-186 -185q-70 -42 -164.5 -71.5 t-159.5 -29.5q-41 0 -66.5 17t-25.5 43z" />
<glyph unicode="6" d="M98 469q0 204 98 379.5t287 310.5q205 144 465 209l17 -41q-292 -86 -480.5 -295t-205.5 -465q93 96 164.5 134t160.5 38q138 0 231 -103t93 -255q0 -104 -59.5 -199t-158.5 -152t-208 -57q-180 0 -292 137.5t-112 358.5zM274 416q-5 -139 50 -246q34 -66 91 -105.5 t117 -39.5q97 0 166.5 89.5t69.5 215.5q0 129 -70.5 213t-177.5 84q-75 0 -134 -37t-110 -117z" />
<glyph unicode="7" horiz-adv-x="942" d="M27 672l41 248h872l18 -17l-718 -1358l-68 35l629 1186h-608q-55 0 -72.5 -10t-36.5 -51l-14 -33h-43z" />
<glyph unicode="8" horiz-adv-x="942" d="M96 287q0 129 109 227q42 40 157 123q-121 78 -184 172.5t-63 196.5q0 69 34 142t89 120q95 86 249 86q145 0 242.5 -83t97.5 -206q0 -68 -34 -135.5t-95 -120.5q-56 -48 -137 -98q150 -94 217.5 -183.5t67.5 -195.5q0 -146 -114 -252.5t-269 -106.5q-149 0 -258 93 t-109 221zM227 301q0 -121 68.5 -201t171.5 -80q92 0 159.5 70.5t67.5 165.5q0 93 -67 182q-27 34 -58 60t-108 80q-4 3 -14 9t-21.5 13.5t-22.5 15.5q-27 -26 -40 -39t-35.5 -37t-34 -40.5t-26.5 -41.5t-22 -47t-12.5 -50.5t-5.5 -59.5zM256 1069q0 -91 57.5 -162 t208.5 -168l60 45q112 85 112 260q0 113 -61 187t-154 74q-91 0 -157 -70.5t-66 -165.5z" />
<glyph unicode="9" d="M86 -430q282 67 465.5 286.5t200.5 508.5q-109 -119 -176 -159t-156 -40q-138 0 -232 97.5t-94 240.5q0 173 124 302.5t288 129.5q183 0 301.5 -146t118.5 -372q0 -180 -84 -351t-236 -303q-100 -88 -213 -141.5t-295 -99.5zM248 588q0 -126 72.5 -216.5t173.5 -90.5 q74 0 133.5 37t117.5 120q0 106 -9 159t-38 116q-37 81 -96 126.5t-127 45.5q-92 0 -159.5 -88.5t-67.5 -208.5z" />
<glyph unicode=":" horiz-adv-x="505" d="M133 92q0 50 35 84.5t86 34.5q48 0 82.5 -35t34.5 -84q0 -50 -34.5 -84.5t-84.5 -34.5t-84.5 34.5t-34.5 84.5zM133 711q0 50 35 84t86 34q48 0 82.5 -34.5t34.5 -83.5t-34.5 -84t-84.5 -35t-84.5 35t-34.5 84z" />
<glyph unicode=";" horiz-adv-x="505" d="M90 -297q92 7 150.5 69t58.5 150q0 43 -16 62t-54 24q-72 8 -104.5 33t-32.5 76q0 47 37 78.5t92 31.5q80 0 130 -60t50 -157q0 -143 -82 -238t-221 -112zM121 711q0 50 35 84t86 34q48 0 82 -34.5t34 -83.5q0 -50 -34.5 -84.5t-83.5 -34.5q-50 0 -84.5 35t-34.5 84z" />
<glyph unicode="&#x3c;" d="M88 698v13l848 544v-77l-639 -416l639 -426v-205z" />
<glyph unicode="=" d="M47 512v86h932v-86h-932zM47 801v86h932v-86h-932z" />
<glyph unicode="&#x3e;" d="M88 131v78l639 414l-639 428v204l848 -567v-12z" />
<glyph unicode="?" horiz-adv-x="714" d="M156 102q0 50 34.5 84.5t83.5 34.5q47 0 82 -35t35 -82q0 -49 -34.5 -83.5t-82.5 -34.5q-49 0 -83.5 34t-34.5 82zM176 874q0 26 32.5 44t78.5 18q117 0 213 -96q55 -55 89 -122.5t34 -121.5q0 -41 -23.5 -78t-62.5 -61q-28 -17 -46.5 -22t-111.5 -23q-61 -10 -74.5 -28 t-15.5 -85h-41v209q132 9 194 39q45 20 72 53.5t27 69.5q0 60 -59.5 106.5t-135.5 46.5q-8 0 -41 -5t-43 -5q-32 0 -59 19t-27 42z" />
<glyph unicode="@" horiz-adv-x="1585" d="M102 451q0 182 93 353.5t247 276.5q192 127 447 127q176 0 311.5 -67.5t210 -191.5t74.5 -285q0 -107 -35.5 -212.5t-92.5 -184.5t-133.5 -128t-154.5 -49q-60 0 -96.5 49t-36.5 127v27q-133 -207 -283 -207q-83 0 -133.5 71t-50.5 187q0 94 35.5 192t90.5 173.5 t127.5 123.5t141.5 48q112 0 180 -113l17 90q56 3 102 14l-114 -479q-23 -94 -23 -141q0 -46 19.5 -71t54.5 -25q40 0 86.5 28.5t91.5 81.5q66 78 101.5 179.5t35.5 209.5q0 144 -65 255.5t-183.5 173t-271.5 61.5q-151 0 -286.5 -57.5t-227.5 -161.5q-79 -88 -135 -235.5 t-56 -268.5q0 -120 59 -244t154 -203q76 -64 173 -98.5t198 -34.5q77 0 158.5 23t150.5 65q51 32 142 99l53 -25q-53 -44 -91 -72.5t-91 -60.5t-101 -50.5t-110.5 -31t-130.5 -12.5q-178 0 -328 89.5t-237 245t-87 339.5zM571 301q0 -45 14.5 -81t40.5 -55.5t60 -19.5 q51 0 101 39.5t85.5 98.5t60.5 121.5t34 113.5l8 41l33 105q2 6 2 16q0 66 -33.5 106.5t-87.5 40.5q-60 0 -111.5 -42t-101.5 -130q-49 -86 -77 -180t-28 -174z" />
<glyph unicode="A" horiz-adv-x="1294" d="M-14 -4v49q84 5 124.5 39.5t75.5 136.5l367 1039l-21 59q62 41 93 82q15 22 24 29.5t19 7.5q19 0 26 -21l439 -1229q29 -80 70.5 -110.5t117.5 -32.5v-49q-106 4 -242 4q-137 0 -252 -4v49l45 2q86 3 86 57q0 21 -16 68l-119 338h-452l-103 -336q-6 -18 -6 -39 q0 -47 29 -63q19 -12 43.5 -16.5t101.5 -10.5v-49q-113 4 -264 4q-114 0 -186 -4zM397 582h396l-205 589z" />
<glyph unicode="B" horiz-adv-x="1210" d="M68 -4v49h51q67 0 97 46t30 149v886q0 103 -30 149t-97 46h-51v49q184 -4 217 -4q19 0 115 3t122 3q198 0 318 -57q78 -35 127 -106.5t49 -149.5q0 -93 -63 -162.5t-222 -151.5q127 -23 207 -61q97 -46 154 -133.5t57 -188.5q0 -163 -134 -266.5t-345 -103.5l-67 2 q-67 2 -148.5 4t-118.5 2q-102 0 -268 -4zM424 260q0 -109 39 -151q23 -26 70.5 -43t97.5 -17q56 0 117.5 21t99.5 53q102 82 102 250q0 202 -151 276q-93 49 -207 49h-168v-438zM424 764h127q129 0 199 94q67 86 67 205q0 66 -28 122.5t-74 82.5q-70 39 -197 39 q-70 0 -82 -9t-12 -63v-471z" />
<glyph unicode="C" horiz-adv-x="1400" d="M88 684q0 149 59 280t160.5 225t245 148t305.5 54q231 0 465 -107l20 -256l-34 -2q-19 71 -42.5 114.5t-62.5 78.5q-118 106 -332 106q-289 0 -444 -190q-65 -82 -101 -190.5t-36 -223.5q0 -113 36.5 -232t96.5 -206q79 -112 203 -178t256 -66q93 0 183.5 33t141.5 86 q31 32 52.5 74.5t46.5 119.5l32 -10l-30 -250q-179 -119 -473 -119q-210 0 -381.5 92.5t-269 255.5t-97.5 363z" />
<glyph unicode="D" horiz-adv-x="1517" d="M68 -4v49h51q67 0 97 46t30 149v886q0 103 -30 149t-97 46h-47v49q170 -4 229 -4q41 0 167.5 4t143.5 4q243 0 429 -87t287.5 -246t101.5 -367q0 -199 -96.5 -354.5t-271.5 -241.5t-400 -86q-20 0 -155 4t-190 4q-134 0 -249 -4zM424 272q0 -64 8.5 -98t30.5 -59 q25 -29 82.5 -45.5t134.5 -16.5q260 0 416 193q131 165 131 397q0 233 -109.5 399.5t-298.5 225.5q-119 37 -280 37q-80 0 -97.5 -12t-17.5 -66v-955z" />
<glyph unicode="E" horiz-adv-x="1173" d="M68 -4v49h51q67 0 97 46t30 149v886q0 103 -30 149t-97 46h-51v49q76 -4 237 -4h463q160 0 238 4l12 -291l-37 -6q-19 106 -80 163.5t-156 57.5h-321v-557h258q92 0 128.5 38t39.5 138h43q-4 -141 -4 -208q0 -74 4 -213h-43q-5 99 -38.5 136.5t-119.5 37.5h-268v-381 q0 -86 20.5 -129t73.5 -66q56 -22 234 -22q125 0 190.5 17t105.5 60t76 136h41l-63 -285q-76 4 -236 4h-561q-161 0 -237 -4z" />
<glyph unicode="F" horiz-adv-x="1064" d="M68 -4v49h51q67 0 97 46t30 149v886q0 103 -30 149t-97 46h-51v49q121 -4 270 -4h448q146 0 238 4v-287h-41q-17 114 -67 162.5t-150 48.5h-342v-557h254q100 0 136 36.5t38 137.5h43q-2 -68 -2 -180q0 -118 2 -239h-43q-4 93 -40 133.5t-112 40.5h-276v-426 q0 -103 30 -149t97 -46h63v-49q-117 4 -278 4q-157 0 -268 -4z" />
<glyph unicode="G" horiz-adv-x="1503" d="M88 680q0 154 60.5 289.5t170.5 230.5q103 88 248.5 139.5t292.5 51.5q197 0 477 -107l29 -268h-37q-24 127 -110 201q-134 110 -345 110q-261 0 -419 -166.5t-158 -441.5q0 -184 75.5 -339t206 -244t285.5 -89q161 0 293 74v205q0 71 -4 108.5t-19.5 61t-39 29.5 t-68.5 7q-10 0 -31 3v47q119 -4 228 -4q102 0 245 4l2 -47q-57 -1 -84 -16t-38 -54t-11 -121v-180q0 -11 1 -17.5t5 -11t5.5 -5.5t11 -4.5t12.5 -4.5l-4 -31q-187 -61 -311.5 -85.5t-239.5 -24.5q-153 0 -288.5 54t-232 147t-152.5 222.5t-56 276.5z" />
<glyph unicode="H" horiz-adv-x="1687" d="M68 -4v49h51q67 0 97 46t30 149v886q0 103 -30 149t-97 46h-51v49q111 -4 274 -4q156 0 260 4v-49h-51q-67 0 -97 -46t-30 -149v-389h840v389q0 103 -30 149t-97 46h-52v49q94 -4 306 -4q153 0 229 4v-49h-51q-66 0 -96.5 -46.5t-30.5 -148.5v-886q0 -102 30.5 -148.5 t96.5 -46.5h51v-49q-127 4 -231 4q-73 0 -304 -4v49h52q67 0 97 46t30 149v426h-840v-426q0 -103 30 -149t97 -46h51v-49q-211 4 -299 4q-108 0 -235 -4z" />
<glyph unicode="I" horiz-adv-x="669" d="M68 -4v49h51q67 0 97 46t30 149v886q0 103 -30 149t-97 46h-51v49q115 -4 247 -4q88 0 287 4v-49h-51q-67 0 -97 -46t-30 -149v-886q0 -103 30 -149t97 -46h51v-49q-219 4 -276 4q-76 0 -258 -4z" />
<glyph unicode="J" horiz-adv-x="641" d="M-188 -287q0 23 36 51.5t64 28.5q21 0 31 -13.5t24 -60.5q25 -88 111 -88q57 0 89 29t52 98q27 93 27 273v1095q0 103 -30 149t-97 46h-64v49q90 -4 240 -4q184 0 307 4v-49h-51q-67 0 -97 -46t-30 -149v-1026q0 -195 -80 -342q-45 -87 -133 -138.5t-188 -51.5 q-88 0 -149.5 42.5t-61.5 102.5z" />
<glyph unicode="K" horiz-adv-x="1341" d="M68 -4v49h51q67 0 97 46t30 149v886q0 103 -30 149t-97 46h-51v49q117 -4 258 -4q102 0 276 4v-49h-51q-67 0 -97 -46t-30 -149v-430l504 518q30 30 30 60q0 27 -20 37.5t-76 13.5v45q88 -4 215 -4q129 0 221 4l-2 -45q-103 -12 -173.5 -52t-182.5 -155l-342 -354 l545 -600q108 -119 223 -119h8v-49q-144 4 -162 4q-19 0 -159 -4l-588 659h-41v-415q0 -103 30 -149t97 -46h51v-49q-106 4 -256 4q-157 0 -278 -4z" />
<glyph unicode="L" horiz-adv-x="1148" d="M68 -4v49h51q67 0 97 46t30 149v886q0 103 -30 149t-97 46h-51v49q86 -4 231 -4q186 0 303 4v-49h-51q-67 0 -97 -46t-30 -149v-800q0 -76 7 -113.5t26 -65.5q29 -43 90.5 -61t177.5 -18q98 0 158 11t112 38q55 29 85.5 69.5t56.5 118.5l37 -16l-76 -291q-147 2 -238 2 h-518q-178 0 -274 -4z" />
<glyph unicode="M" horiz-adv-x="1843" d="M-37 -4v49q130 0 176 52t60 214l69 781q4 46 4 63q0 95 -39.5 130.5t-142.5 35.5v49q148 -4 166 -4t154 4l501 -1147l551 1147q132 -4 150 -4q15 0 147 4v-49q-103 -7 -132.5 -47.5t-29.5 -171.5v-55l21 -824q3 -104 48.5 -142t162.5 -36v-49q-268 4 -303 4 q-58 0 -285 -4v49q65 2 102.5 10.5t61 31.5t30.5 59t5 98l-4 100l-17 760l-528 -1118h-66l-495 1091l-60 -786q-2 -25 -2 -70q0 -89 42.5 -129.5t142.5 -46.5v-49q-117 4 -271 4q-131 0 -219 -4z" />
<glyph unicode="N" horiz-adv-x="1583" d="M8 1321v49q148 -4 166 -4q20 0 168 4l948 -1073v829q0 115 -45.5 155t-165.5 40h-12v49q100 -4 252 -4q139 0 231 4v-49h-12q-83 0 -131.5 -56t-48.5 -151v-1141h-39l-1010 1149v-583q0 -87 1.5 -146t6.5 -113t12 -87t21 -61.5t30.5 -43t43 -25t56.5 -14t73 -4.5v-49 q-96 4 -238 4q-157 0 -280 -4v49h31q54 0 80.5 7.5t46.5 27.5q47 47 47 160v714q0 127 -4.5 181.5t-16 80.5t-41.5 50q-36 30 -73 41.5t-97 13.5z" />
<glyph unicode="O" horiz-adv-x="1581" d="M88 694q0 136 57 265t151 224t222 152.5t264 57.5q132 0 265 -53.5t231 -147.5q101 -95 158 -228t57 -274q0 -142 -56 -273.5t-150 -228t-222.5 -154t-267.5 -57.5q-193 0 -356.5 96t-258 261t-94.5 360zM287 745q0 -260 135 -469q147 -233 393 -233q103 0 200 47.5 t154 126.5q57 76 89 186.5t32 227.5q0 126 -38.5 255t-104.5 228q-142 215 -387 215q-248 0 -373 -205q-100 -165 -100 -379z" />
<glyph unicode="P" horiz-adv-x="1091" d="M68 -4v49h51q67 0 97 46t30 149v886q0 103 -30 149t-97 46h-51v49q125 -4 196 -4q45 0 159 3t159 3q204 0 331 -103.5t127 -267.5q0 -184 -126 -296.5t-330 -112.5h-47v43q69 4 112.5 18t83.5 43q123 91 123 267q0 160 -89.5 252t-246.5 92q-57 0 -96 -2v-1065 q0 -103 30 -149t97 -46h51v-49q-84 4 -250 4q-188 0 -284 -4z" />
<glyph unicode="Q" horiz-adv-x="1579" d="M88 682q0 142 56 273.5t150 227t222 153t266 57.5q134 0 268 -55t232 -150q102 -96 156.5 -225.5t54.5 -274.5q0 -142 -53.5 -272t-153.5 -230q-62 -62 -127.5 -102.5t-171.5 -81.5q117 -76 334 -244q55 -42 83 -57.5t50 -15.5q36 0 80 20l18 -27q-50 -54 -96.5 -78 t-101.5 -24q-87 0 -191 72q-20 13 -131 112q-132 116 -178.5 153t-75 51t-78.5 22q-88 13 -179 51.5t-156 87.5q-132 101 -204.5 247.5t-72.5 309.5zM291 733q0 -257 135 -461q78 -118 172 -174.5t213 -56.5q106 0 204 47.5t161 130.5q114 148 114 402q0 133 -37.5 266 t-103.5 229q-69 103 -170 158t-221 55q-212 0 -339.5 -162.5t-127.5 -433.5z" />
<glyph unicode="R" horiz-adv-x="1333" d="M68 -4v49h51q67 0 97 46t30 149v886q0 103 -30 149t-97 46h-51v49q174 -4 215 -4q8 0 58 2t89 2l160 2q116 1 192.5 -18t143.5 -64q133 -89 133 -254q0 -71 -28 -137.5t-77 -110.5q-30 -28 -65 -47.5t-105 -48.5l322 -465q57 -83 135.5 -132.5t153.5 -49.5v-49 q-74 4 -166 4q-18 0 -144 -4q-42 30 -111 108t-122 162l-246 391h-55q-26 0 -80 5q-7 0 -47 4v-426q0 -103 30 -149t97 -46h51v-49q-106 4 -256 4q-159 0 -278 -4zM424 733q76 -16 125 -16q139 0 233.5 85.5t94.5 211.5t-98 208.5t-247 82.5q-15 0 -108 -7v-565z" />
<glyph unicode="S" horiz-adv-x="958" d="M55 334h31q31 -82 54 -123.5t57 -75.5q39 -42 103 -68t128 -26q115 0 196 78.5t81 191.5q0 88 -53 152.5t-185 136.5q-115 63 -160 93.5t-82 70.5q-106 109 -106 266q0 158 114.5 260.5t292.5 102.5q116 0 271 -50l24 -233h-35q-19 60 -36.5 91.5t-47.5 58.5 q-71 65 -180 65q-106 0 -179 -66t-73 -161q0 -99 68 -180q48 -57 186 -132q202 -110 276 -198t74 -219q0 -171 -127 -284.5t-319 -113.5q-211 0 -350 92z" />
<glyph unicode="T" horiz-adv-x="1288" d="M-12 1126q15 111 19 153.5t5 133.5h43q28 -47 97 -47h985q68 0 96 47h43q1 -91 5 -133.5t19 -153.5h-40q-19 97 -71 132.5t-175 35.5h-283v-1054q0 -103 30 -149t97 -46h68v-49q-111 4 -283 4q-170 0 -281 -4v49h68q67 0 97 46t30 149v1054h-283q-123 0 -174.5 -35.5 t-70.5 -132.5h-41z" />
<glyph unicode="U" horiz-adv-x="1509" d="M55 1321v49q98 -4 254 -4q170 0 281 4v-49h-51q-67 0 -97 -46t-30 -149v-596q0 -235 107.5 -362t305.5 -127q94 0 170.5 34t120.5 97q43 59 56.5 123.5t13.5 210.5v620q0 103 -30 149t-97 46h-51v49q70 -4 168 -4q72 0 280 4v-49h-51q-66 0 -96.5 -46.5t-30.5 -148.5 v-618q0 -167 -20 -237.5t-89 -143.5q-142 -154 -411 -154q-271 0 -408 140q-65 65 -91 149.5t-26 229.5v634q0 103 -30 149t-97 46h-51z" />
<glyph unicode="V" horiz-adv-x="1261" d="M-41 1321v49q90 -4 229 -4q161 0 265 4v-49q-75 -2 -97 -10q-13 -4 -22.5 -16.5t-9.5 -26.5q0 -28 30 -109l351 -899l323 846q29 76 29 119q0 90 -152 96v49q84 -4 234 -4q100 0 157 4v-49q-66 -7 -99 -51.5t-93 -198.5l-426 -1106h-62l-438 1141q-46 121 -84 165.5 t-98 47.5l-33 2h-4z" />
<glyph unicode="W" horiz-adv-x="1843" d="M-41 1321v49q119 -4 260 -4q127 0 221 4v-49q-67 -3 -88.5 -15t-21.5 -46q0 -22 20 -66l19 -41l376 -956l209 467l-190 436q-64 144 -103 182.5t-124 38.5v49q92 -4 208 -4q99 0 236 4v-49q-51 0 -73.5 -10t-22.5 -35q0 -19 33 -94l129 -293l112 264q27 62 27 111 q0 31 -31 44t-102 13v49q68 -4 170 -4q126 0 204 4v-49h-32q-48 0 -83 -41t-91 -166l-138 -305l244 -594l326 938q22 67 22 94q0 43 -29.5 60t-107.5 18v45q63 -4 172 -4q105 0 168 4v-49q-23 -2 -35 -4t-26 -11t-21.5 -19t-21 -37t-24 -54.5t-30.5 -81.5l-424 -1149h-34 l-271 610l-293 -610h-34l-463 1135q-23 58 -37.5 91t-32.5 60.5t-30 39t-35 20t-43 9.5t-58 1h-6z" />
<glyph unicode="X" horiz-adv-x="1366" d="M-31 -4v49q87 8 141.5 39t114.5 111l363 477l-363 473q-60 78 -95 111.5t-67.5 46.5t-93.5 18v49q160 -4 248 -4q80 0 279 4v-49h-43q-45 0 -63.5 -11t-18.5 -40t35 -78l292 -381l183 240q79 104 102 143.5t23 73.5q0 32 -23 41.5t-98 11.5v49q152 -4 235 -4q117 0 221 4 v-49q-91 3 -153 -35.5t-154 -155.5l-291 -372l390 -508q55 -71 86.5 -108t62.5 -58t45.5 -25t57.5 -11q10 -2 16 -3v-49q-96 4 -234 4q-151 0 -264 -4v49q58 2 81.5 12.5t23.5 36.5q0 19 -8.5 34t-47.5 67l-315 415l-299 -395q-28 -37 -40.5 -57.5t-13.5 -26t-1 -18.5 q0 -37 32.5 -52.5t108.5 -15.5v-49q-162 4 -234 4q-71 0 -221 -4z" />
<glyph unicode="Y" horiz-adv-x="1198" d="M-63 1321v49q115 -4 241 -4t230 4v-49q-58 0 -82.5 -10t-24.5 -33q0 -36 37 -86l326 -422l278 379q47 66 47 111q0 32 -30.5 46.5t-96.5 14.5v49q96 -4 217 -4q107 0 181 4v-49q-73 -4 -114.5 -37.5t-123.5 -144.5l-328 -439v-460q0 -103 30 -149t97 -46h51v-49 q-158 4 -254 4q-94 0 -262 -4v49h33q67 0 97 46t30 149v428l-352 471q-74 99 -122.5 139t-104.5 43z" />
<glyph unicode="Z" horiz-adv-x="1288" d="M-4 0l977 1294h-527q-77 0 -125.5 -5t-87.5 -17t-63.5 -37t-42.5 -59.5t-37 -90.5h-35l58 297h37q11 -12 15.5 -14t24.5 -2h1061l-979 -1294h725q79 0 120 17t83 69q52 64 92 155h35l-90 -317q-90 4 -238 4h-1003z" />
<glyph unicode="[" horiz-adv-x="591" d="M137 -129v1624q168 -4 191 -4q22 0 190 4v-47q-190 0 -222 -14t-32 -97v-1308q0 -84 33 -98t221 -13v-47q-84 2 -190 2q-107 0 -191 -2z" />
<glyph unicode="\" horiz-adv-x="1009" d="M23 1495h98l840 -1624h-99z" />
<glyph unicode="]" horiz-adv-x="591" d="M76 -82q188 -1 221 13t33 98v1308q0 83 -32 97t-222 14v47q168 -4 190 -4q23 0 191 4v-1624q-84 2 -191 2q-106 0 -190 -2v47z" />
<glyph unicode="^" d="M-51 586l567 848h12l545 -848h-78l-413 639l-428 -639h-205z" />
<glyph unicode="_" d="M0 -180h1024v-88h-1024v88z" />
<glyph unicode="`" d="M139 1298q0 23 16.5 38.5t41.5 15.5q27 0 55 -21l356 -274l-20 -31l-414 215q-15 8 -25 24t-10 33z" />
<glyph unicode="a" horiz-adv-x="968" d="M8 -2v45q67 3 91.5 23.5t52.5 95.5l245 684l-16 37q49 24 82 65q14 19 29 19q18 0 28 -21l316 -807q23 -58 50 -77t87 -19v-45q-125 2 -191 2q-59 0 -194 -2v45q40 4 47 4q26 1 36.5 8.5t10.5 22.5q0 10 -10 41l-74 217h-305l-70 -215q-4 -16 -4 -25q0 -29 28.5 -41 t96.5 -12v-45q-98 2 -217 2q-72 0 -119 -2zM315 403h260l-129 379z" />
<glyph unicode="b" horiz-adv-x="952" d="M82 -2v45h33q51 0 69.5 24.5t18.5 92.5v600q0 66 -18.5 91.5t-65.5 25.5h-37v45q141 -2 168 -2q15 0 83.5 2t84.5 2q139 0 229 -37q60 -25 98.5 -74.5t38.5 -103.5q0 -129 -182 -203q141 -32 209 -95t68 -163q0 -111 -101.5 -183t-257.5 -69l-112 2q-14 0 -51.5 1 t-59.5 1q-78 0 -215 -2zM365 168q0 -64 30.5 -90.5t102.5 -26.5q89 0 149 59.5t60 147.5q0 100 -64 151.5t-188 51.5h-90v-293zM365 520h67q96 0 139 60q41 57 41 131q0 77 -47.5 117t-138.5 40q-53 0 -59 -6q-2 -2 -2 -26v-316z" />
<glyph unicode="c" horiz-adv-x="1075" d="M90 459q0 133 72 242t199 171t282 62q179 0 334 -70l14 -188l-41 -2q-28 108 -97 156.5t-196 48.5q-189 0 -292 -127q-89 -113 -89 -269q0 -187 114 -316.5t278 -129.5q63 0 123 22.5t92 57.5q20 22 34 51t33 88l37 -12l-22 -185q-122 -77 -324 -77q-239 0 -395 135 t-156 342z" />
<glyph unicode="d" horiz-adv-x="1161" d="M82 -2v45h33q51 0 69.5 24.5t18.5 92.5v600q0 68 -18.5 93.5t-69.5 25.5h-31v45q131 -4 174 -4q29 0 121.5 3t105.5 3q192 0 336 -72q122 -59 185 -163.5t63 -248.5q0 -202 -152.5 -326t-400.5 -120l-125 2q-16 0 -54.5 1t-64.5 1q-67 0 -190 -2zM365 190 q0 -82 32.5 -110.5t126.5 -28.5q158 0 258.5 107.5t100.5 277.5q0 132 -51.5 230t-147 151t-223.5 53q-83 0 -92 -12q-3 -2 -3.5 -6.5t-0.5 -32.5v-629z" />
<glyph unicode="e" horiz-adv-x="913" d="M82 -2v45h24q56 0 76.5 25t20.5 92v600q0 68 -20 93.5t-72 25.5h-29v43q61 -2 180 -2h330q109 0 172 2l8 -203l-43 -6q-12 78 -52 112.5t-118 34.5h-194v-358h167q58 0 79 23t24 91h49q-4 -94 -4 -141q0 -51 4 -147h-49q-3 72 -23.5 93t-87.5 21h-159v-252q0 -37 5 -58.5 t16.5 -37t38.5 -22.5t62 -10t95 -3q86 0 130 11t70 39t52 90h45l-50 -201q-59 2 -167 2h-400q-119 0 -180 -2z" />
<glyph unicode="f" horiz-adv-x="790" d="M82 -2v45h33q51 0 69.5 25.5t18.5 91.5v600q0 68 -18.5 93.5t-69.5 25.5h-33v43q92 -2 203 -2h317q100 0 170 2v-209h-45q-12 82 -44 110.5t-110 28.5h-208v-352h159q66 0 87.5 22t21.5 94h49q-2 -51 -2 -129q0 -98 2 -161h-49q-3 67 -25 90.5t-82 23.5h-161v-280 q0 -67 18 -92t68 -25h41v-45q-90 2 -207 2q-115 0 -203 -2z" />
<glyph unicode="g" horiz-adv-x="1114" d="M90 457q0 204 159 340.5t398 136.5q140 0 338 -68l23 -198h-45q-19 102 -97.5 156.5t-206.5 54.5q-173 0 -278 -109t-105 -289q0 -184 108.5 -312t264.5 -128q112 0 191 53v139q0 85 -11 106t-57 21h-33v43q102 -4 166 -4q57 0 180 4l2 -43q-41 -2 -53.5 -5t-19.5 -15 q-15 -26 -15 -94v-80q0 -54 3 -64.5t20 -13.5l-2 -27q-144 -42 -233.5 -58.5t-172.5 -16.5q-146 0 -266.5 62t-189 170t-68.5 239z" />
<glyph unicode="h" horiz-adv-x="1269" d="M82 -2v45h33q51 0 69.5 24.5t18.5 92.5v600q0 69 -18.5 94t-69.5 25h-33v45q86 -4 211 -4q112 0 188 4v-45h-30q-49 0 -67.5 -25.5t-18.5 -93.5v-260h540v260q0 68 -18 93.5t-66 25.5h-33v45q72 -4 226 -4q115 0 174 4v-45h-33q-51 0 -69.5 -25.5t-18.5 -93.5v-600 q0 -68 18.5 -92.5t69.5 -24.5h33v-45q-100 2 -174 2q-56 0 -226 -2v45h33q48 0 66 25t18 92v276h-540v-276q0 -67 18 -92t68 -25h30v-45q-152 2 -221 2q-78 0 -178 -2z" />
<glyph unicode="i" horiz-adv-x="565" d="M82 -2v45h33q51 0 69.5 24.5t18.5 92.5v600q0 69 -18.5 94t-69.5 25h-33v45q86 -4 211 -4q112 0 188 4v-45h-30q-49 0 -67.5 -25.5t-18.5 -93.5v-600q0 -67 18 -92t68 -25h30v-45q-152 2 -221 2q-78 0 -178 -2z" />
<glyph unicode="j" horiz-adv-x="518" d="M-104 -178q0 18 28.5 40.5t50.5 22.5q17 0 27.5 -11.5t22.5 -45.5q18 -55 73 -55q54 0 78.5 62t24.5 196v731q0 69 -19 94t-71 25h-37v43q70 -4 178 -4q137 0 231 4v-43h-32q-51 0 -70 -25.5t-19 -93.5v-684q0 -160 -84 -260.5t-217 -100.5q-67 0 -116 31.5t-49 73.5z " />
<glyph unicode="k" horiz-adv-x="1007" d="M82 -2v45h33q51 0 69.5 24.5t18.5 92.5v602q0 68 -18.5 93.5t-69.5 25.5h-33v43q88 -4 194 -4q111 0 205 4v-43h-30q-49 0 -67.5 -26t-18.5 -93v-268l317 325q14 11 14 29q0 19 -11.5 23.5t-63.5 9.5v43q74 -4 167 -4q97 0 173 4v-43q-79 -8 -127.5 -34t-133.5 -110 l-225 -223l371 -387q83 -86 145 -86q9 0 15 2v-45q-55 2 -125 2q-66 0 -117 -2l-395 438h-4v-276q0 -67 18 -92t68 -25h30v-45q-80 2 -186 2q-117 0 -213 -2z" />
<glyph unicode="l" horiz-adv-x="878" d="M82 -2v45h33q51 0 69.5 24.5t18.5 92.5v600q0 68 -18.5 93.5t-69.5 25.5h-33v45q68 -4 174 -4q139 0 225 4v-45h-30q-49 0 -67.5 -25.5t-18.5 -93.5v-543q0 -100 34 -130t146 -30q144 0 203.5 32.5t93.5 129.5l41 -18l-60 -203q-133 2 -168 2h-366q-131 0 -207 -2z" />
<glyph unicode="m" horiz-adv-x="1361" d="M16 -4v47q53 2 81 8.5t48 25.5t27 48.5t12 85.5l49 530q5 40 5 41q3 56 -22.5 77.5t-94.5 21.5h-15v41q53 -2 123 -2q62 0 111 2l336 -750l373 750q49 -2 109 -2q64 0 116 2v-41q-49 -3 -70.5 -10.5t-32.5 -24.5q-6 -11 -10.5 -42t-3.5 -56l1 -39l16 -557q2 -63 27 -87 t91 -24q15 0 25 2v-45q-199 2 -225 2q-37 0 -213 -2v45q48 2 72.5 6t40.5 18t20 35.5t2 61.5q-3 99 -7.5 285.5t-5.5 226.5l-339 -686h-52l-315 672l-37 -467q-2 -14 -2 -45q0 -58 28 -81t103 -26v-45q-94 2 -213 2q-95 0 -158 -4z" />
<glyph unicode="n" horiz-adv-x="1146" d="M35 881v41q55 -2 127 -2q70 0 125 2l628 -680v520q0 64 -26 91.5t-88 27.5h-39v41q78 -2 184 -2q100 0 172 2v-41h-14q-117 0 -117 -142v-757h-43l-674 731v-355q0 -156 7.5 -208t35.5 -78q30 -27 125 -29v-45q-76 2 -174 2q-76 0 -205 -2v45h29q66 0 88.5 26.5 t22.5 104.5v475q0 72 -2.5 106.5t-5.5 45t-13 26.5q-45 54 -143 54z" />
<glyph unicode="o" horiz-adv-x="1193" d="M90 467q0 123 69 231.5t184.5 173t246.5 64.5q138 0 256 -63.5t187 -172.5t69 -237q0 -126 -68.5 -236t-184.5 -175.5t-249 -65.5q-139 0 -256.5 64.5t-185.5 175t-68 241.5zM276 500q0 -166 86 -305q100 -154 252 -154q134 0 217.5 106.5t83.5 276.5q0 81 -24.5 165.5 t-65.5 149.5q-93 142 -250 142t-237 -136q-62 -111 -62 -245z" />
<glyph unicode="p" horiz-adv-x="825" d="M82 -2v45h33q51 0 69.5 24.5t18.5 92.5v602q0 68 -18.5 93.5t-69.5 25.5h-33v43q70 -4 149 -4q38 0 140 4l90 2q150 3 245 -69t95 -187q0 -120 -94 -197.5t-240 -77.5q-25 0 -43 2v35q93 5 139 43q74 61 74 172q0 103 -60 163t-161 60q-14 0 -51 -6v-704q0 -67 18 -92 t66 -25h32v-45q-66 2 -184 2q-139 0 -215 -2z" />
<glyph unicode="q" horiz-adv-x="1193" d="M90 459q0 127 68 237t183.5 175t248.5 65q138 0 255.5 -63.5t186 -172.5t68.5 -237q0 -155 -91 -274t-255 -181q154 -99 223 -149q66 -47 92 -47q15 0 59 20l19 -20q-64 -78 -150 -78q-48 0 -90 18.5t-119 75.5l-174 131q-23 16 -33 20.5t-38 8.5q-203 31 -328 161 t-125 310zM276 496q0 -167 86 -301q101 -154 246 -154q136 0 220.5 105t84.5 274q0 86 -24 172t-66 149q-92 140 -250 140q-135 0 -216 -105t-81 -280z" />
<glyph unicode="r" horiz-adv-x="1003" d="M82 -2v45h33q51 0 69.5 24.5t18.5 92.5v602q0 68 -18.5 93.5t-69.5 25.5h-33v43q121 -4 162 -4q23 0 111 3t110 3q161 0 250.5 -62t89.5 -172q0 -79 -48 -139.5t-134 -89.5l196 -295q40 -60 94 -90.5t111 -28.5v-51q-57 2 -129 2q-60 0 -107 -2q-45 29 -81 69.5 t-82 114.5l-158 252q-25 -2 -31 -2q-16 0 -55 4h-16v-276q0 -67 18 -92t68 -25h30v-45q-80 2 -188 2q-117 0 -211 -2zM365 498q47 -9 67 -9q30 0 57.5 6.5t51 18.5t42.5 29.5t32 39t20.5 47t7.5 52.5q0 82 -60.5 135t-154.5 53q-30 0 -63 -8v-364z" />
<glyph unicode="s" horiz-adv-x="743" d="M68 240h36q24 -60 39.5 -88.5t36.5 -51.5q26 -28 69.5 -45.5t86.5 -17.5q75 0 127.5 50t52.5 122q0 54 -35 94t-123 86q-81 42 -114 63t-62 48q-82 79 -82 186q0 109 86.5 180.5t219.5 71.5q82 0 194 -33l18 -174h-40q-23 79 -65.5 115.5t-111.5 36.5q-70 0 -115.5 -40 t-45.5 -102q0 -61 38 -105t132 -91q151 -76 205.5 -137t54.5 -152q0 -119 -96 -196.5t-242 -77.5q-142 0 -248 61z" />
<glyph unicode="t" horiz-adv-x="950" d="M14 741q19 105 21 209h47q9 -18 21 -24t36 -6h672q23 0 35.5 6.5t21.5 23.5h45q0 -98 19 -209h-47q-12 69 -45 90t-129 21h-152v-692q0 -67 18 -92t66 -25h43v-45q-94 2 -207 2q-117 0 -215 -2v45h39q55 0 74.5 24t19.5 93v692h-155q-96 0 -127.5 -20t-46.5 -91h-54z" />
<glyph unicode="u" horiz-adv-x="1058" d="M45 881v43q76 -4 193 -4q124 0 206 4v-43h-30q-49 0 -67.5 -25.5t-18.5 -93.5v-402q0 -155 68 -239t194 -84q60 0 111.5 23.5t82.5 64.5q28 35 36.5 78t8.5 141v418q0 69 -19 94t-73 25h-28v43q51 -4 131 -4q114 0 186 4v-43h-33q-51 0 -69.5 -25.5t-18.5 -93.5v-418 q0 -114 -16 -163.5t-68 -96.5q-111 -102 -286 -102q-101 0 -188 37t-130 98q-28 42 -39.5 90t-11.5 127v428q0 68 -18.5 93.5t-69.5 25.5h-33z" />
<glyph unicode="v" horiz-adv-x="917" d="M-20 879v43q76 -2 182 -2q114 0 200 2v-41q-20 -2 -45 -2q-47 -3 -47 -33q0 -12 21 -68l229 -571l211 536q19 47 19 74q0 32 -26 47t-83 17v41q68 -2 164 -2q76 0 129 2v-41q-49 -3 -71 -31t-68 -141l-299 -732h-52l-311 754q-26 63 -35.5 86t-26.5 41t-30.5 19.5 t-46.5 1.5h-14z" />
<glyph unicode="w" horiz-adv-x="1343" d="M-20 881v41q129 -2 192 -2q90 0 168 2v-41q-39 -2 -55.5 -9.5t-16.5 -25.5q0 -13 25 -72l256 -612l139 276l-139 291q-48 101 -71.5 126t-82.5 26v41q70 -2 152 -2q63 0 172 2v-41q-31 0 -44 -7t-13 -24q0 -15 18 -57l86 -187l74 162q14 32 14 55q0 31 -21 44.5t-71 13.5 v41q53 -2 127 -2q88 0 145 2v-41h-18q-36 0 -53.5 -20.5t-67.5 -121.5l-98 -202l161 -359l226 586q12 30 12 59q0 34 -19.5 46.5t-76.5 13.5v39q51 -2 129 -2q76 0 133 2v-41q-27 -1 -37.5 -2.5t-25.5 -18t-24.5 -40t-31.5 -81.5l-293 -762h-49l-180 392l-197 -392h-47 l-330 750q-23 54 -34.5 78t-15.5 30.5t-13 16.5q-23 29 -84 29h-20z" />
<glyph unicode="x" horiz-adv-x="1005" d="M-6 -2v45q74 6 110 24.5t82 77.5l238 301l-244 308q-69 87 -94.5 105t-91.5 22v41q137 -2 192 -2q43 0 213 2v-41q-51 0 -69.5 -7.5t-18.5 -27.5q0 -16 27 -53l176 -242l115 151q73 97 73 142q0 20 -19.5 28.5t-66.5 8.5v41q135 -2 187 -2q49 0 172 2v-41h-21 q-59 0 -99 -27t-105 -109l-187 -237l258 -326q66 -84 101 -108.5t94 -30.5v-45q-82 2 -182 2q-70 0 -203 -2v45h10q36 0 50 7.5t14 25.5q0 20 -29 57l-203 266l-190 -256q-33 -45 -33 -63q0 -15 18 -26t45 -11h31v-45q-131 2 -176 2q-41 0 -174 -2z" />
<glyph unicode="y" horiz-adv-x="886" d="M-29 883v41q127 -2 183 -2q55 0 184 2v-43q-43 0 -59.5 -7t-16.5 -24q0 -18 21 -45l209 -279l178 244q26 36 26 66q0 45 -67 45h-21v43q106 -2 162 -2q77 0 145 2v-41q-56 -3 -83 -23.5t-91 -105.5l-211 -283v-311q0 -67 18 -92t66 -25h33v-45q-121 2 -188 2 q-64 0 -199 -2v45h21q51 0 69.5 24.5t18.5 92.5v289l-232 303q-64 82 -93 106t-73 25z" />
<glyph unicode="z" horiz-adv-x="962" d="M16 0l656 860h-310q-54 0 -86 -3t-58.5 -10t-42.5 -24t-28 -39t-26 -61h-47l45 207h41q3 -6 5 -7.5t4.5 -2t10.5 -0.5h740l-656 -861h449q72 0 112 32t84 126h52l-72 -219q-72 2 -174 2h-699z" />
<glyph unicode="{" d="M213 696v31q117 6 160 44t43 134q0 26 -2 124t-2 101q0 143 21.5 214.5t76.5 109.5q8 6 14.5 10t16 7.5t16 5.5t21 4t24 2.5t32 2t39 2.5t51 2.5t60.5 2.5l37 2v-45q-84 -1 -136.5 -14t-84 -44.5t-43.5 -78t-12 -121.5v-277q0 -82 -41 -133.5t-115 -66.5v-6 q58 -9 97.5 -49.5t50.5 -102.5q4 -22 5.5 -42.5t2 -47t0.5 -100.5v-164q0 -87 12 -140.5t44 -88t84 -47.5t136 -13v-43h-11q-152 3 -187 5.5t-66 12.5q-77 25 -112 94t-35 195q0 46 3 177t3 167q0 94 -43.5 131t-159.5 43z" />
<glyph unicode="|" d="M457 -342v1708h110v-1708h-110z" />
<glyph unicode="}" d="M203 -84q161 0 218.5 55.5t57.5 200.5v277q0 83 41 135t115 67v6q-58 9 -97.5 49.5t-50.5 102.5q-8 41 -8 188v166q0 170 -56.5 229t-219.5 58v45q161 -3 197 -5.5t67 -12.5q77 -25 112 -94t35 -195q0 -47 -3 -178t-3 -168q0 -92 43.5 -129t159.5 -43v-31 q-117 -6 -160 -44.5t-43 -135.5q0 -26 2 -124.5t2 -101.5q0 -142 -21.5 -212.5t-76.5 -108.5q-36 -27 -80.5 -34t-193.5 -7h-37v45z" />
<glyph unicode="~" horiz-adv-x="1366" d="M252 1274q59 96 132 147.5t151 51.5q53 0 184 -46q109 -36 164 -36q111 0 200 112l29 -18q-49 -88 -126.5 -142.5t-151.5 -54.5q-31 0 -55 6t-136 43q-117 37 -176 37q-54 0 -88.5 -22t-97.5 -97z" />
<glyph unicode="&#xa1;" horiz-adv-x="518" d="M147 819q0 47 35 82t82 35t82 -35t35 -82q0 -49 -34.5 -83t-84.5 -34q-46 0 -80.5 35t-34.5 82zM152 100q0 56 8 95l78 430h49l75 -430q11 -57 11 -95q0 -51 -30.5 -82.5t-80.5 -31.5q-49 0 -79.5 31.5t-30.5 82.5z" />
<glyph unicode="&#xa2;" d="M160 655q0 158 98.5 282.5t255.5 162.5v135h51v-125q58 4 68 4q102 0 187 -35.5t85 -77.5q0 -32 -26.5 -65t-51.5 -33t-57 43q-30 39 -43.5 54t-32.5 28q-62 43 -121 39q-4 0 -8 -2v-698q43 -11 82 -11q63 0 112.5 20.5t102.5 67.5l29 -26q-74 -77 -159.5 -124 t-166.5 -54v-164h-51v164q-148 14 -251 134.5t-103 280.5zM311 729q0 -118 53 -208t150 -136v672q-92 -31 -147.5 -120.5t-55.5 -207.5z" />
<glyph unicode="&#xa3;" d="M35 -31q0 49 46.5 97t117.5 73q20 7 30 13.5t19.5 15.5t17 35t15 54t20.5 89q25 125 45 320h-205l11 71h206q49 271 109 416q56 131 164.5 213t226.5 82q68 0 113 -34.5t45 -86.5q0 -32 -21.5 -52t-58.5 -20q-24 0 -30 7.5t-13 48.5q-6 35 -32.5 55t-65.5 20 q-63 0 -113.5 -60.5t-79.5 -172.5q-54 -200 -82 -416h260l-10 -71h-262q-28 -146 -67.5 -240t-141.5 -256q25 2 70 2q125 0 256 -90q85 -59 105 -68.5t56 -9.5q46 0 80.5 32t34.5 73q0 25 -9 38t-52 48q-17 17 -17 28q0 20 17.5 34.5t42.5 14.5q35 0 57.5 -29.5t22.5 -76.5 q0 -103 -71.5 -170.5t-180.5 -67.5q-83 0 -148.5 26.5t-181.5 106.5q-68 48 -100 48q-19 0 -29 -9.5t-47 -62.5q-69 -98 -135 -98q-35 0 -35 30z" />
<glyph unicode="&#xa4;" horiz-adv-x="1267" d="M82 197l141 141q-125 152 -125 344q0 194 127 348l-141 141l61 62l144 -141q154 127 350 127q191 0 340 -125l143 141l64 -64l-144 -143q127 -161 127 -344q0 -188 -127 -346l142 -143l-62 -62l-141 141q-148 -127 -342 -127q-199 0 -350 127l-144 -143zM190 682 q0 -184 130.5 -313t316.5 -129t309 129q60 61 95.5 146t35.5 163q0 186 -128.5 317t-311.5 131q-186 0 -316.5 -129t-130.5 -315z" />
<glyph unicode="&#xa5;" horiz-adv-x="1173" d="M-41 1321v49q115 -4 242 -4q125 0 229 4v-49q-58 0 -82 -10t-24 -33q0 -38 36 -86l289 -377l248 334q47 62 47 111q0 32 -30.5 46.5t-96.5 14.5v49q96 -4 217 -4q106 0 180 4v-49q-72 -4 -111.5 -36.5t-125.5 -145.5l-281 -373h283l-10 -72h-287v-133h283l-11 -72h-272 v-249q0 -103 30 -149t97 -46h51v-49q-156 4 -254 4q-94 0 -262 -4v49h33q67 0 97 46t30 149v249h-285l10 72h275v133h-297l10 72h248l-279 373q-74 99 -122.5 139t-104.5 43z" />
<glyph unicode="&#xa6;" d="M457 313h110v-655h-110v655zM457 680v686h110v-686h-110z" />
<glyph unicode="&#xa7;" horiz-adv-x="886" d="M109 1038q0 86 30.5 170t85.5 150q115 139 314 139q88 0 141 -32t53 -85q0 -31 -20 -51t-49 -20q-49 0 -93 53q-41 51 -62 65.5t-52 14.5q-57 0 -99.5 -52t-42.5 -122q0 -74 36 -148.5t128 -191.5l156 -199q66 -85 103.5 -184.5t37.5 -192.5q0 -125 -57 -237t-152.5 -179 t-201.5 -67q-97 0 -174.5 44t-77.5 101q0 31 20.5 53.5t48.5 22.5q29 0 47 -15.5t64 -78.5q42 -57 113 -57q68 0 110.5 53.5t42.5 138.5q0 71 -35.5 158.5t-95.5 163.5l-149 188q-94 119 -132 208.5t-38 188.5zM178 1059q0 -162 133 -330l148 -186q81 -102 118 -189.5 t37 -177.5q0 -24 -6 -110q88 131 88 290q0 175 -127 332l-166 207q-79 99 -113 180.5t-34 169.5q0 7 4 53q-82 -107 -82 -239z" />
<glyph unicode="&#xa8;" d="M236 1188q0 37 27 63.5t65 26.5q35 0 61.5 -26.5t26.5 -63.5t-26.5 -63.5t-63.5 -26.5t-63.5 26.5t-26.5 63.5zM606 1188q0 37 27 63.5t65 26.5q35 0 61.5 -26.5t26.5 -63.5t-26.5 -63.5t-63.5 -26.5t-63.5 26.5t-26.5 63.5z" />
<glyph unicode="&#xa9;" horiz-adv-x="1589" d="M82 682q0 193 95.5 355t261.5 255.5t364 93.5q142 0 272 -56.5t224.5 -151t151 -224.5t56.5 -272q0 -190 -95.5 -352t-259.5 -256t-357 -94q-116 0 -224.5 35.5t-196.5 100.5t-154 151.5t-102 193.5t-36 221zM158 682q0 -174 85 -322t231.5 -234.5t318.5 -86.5t318 86.5 t231 234.5t85 322q0 130 -50 249t-134.5 206t-200.5 138.5t-243 51.5q-176 0 -323.5 -85.5t-232.5 -234t-85 -325.5zM369 682q0 172 124.5 286.5t311.5 114.5q130 0 266 -61l12 -160l-41 -4q-22 88 -76 127t-155 39q-138 0 -222.5 -87.5t-84.5 -231.5q0 -151 91.5 -257 t221.5 -106q50 0 97 16.5t73 44.5q31 31 55 113l39 -10l-18 -154q-103 -71 -268 -71q-183 0 -304.5 114.5t-121.5 286.5z" />
<glyph unicode="&#xaa;" horiz-adv-x="591" d="M39 647l14 55h502l-14 -55h-502zM61 1178q0 32 30.5 58t107.5 62q109 52 147 52q63 0 100 -35t37 -94v-250q0 -94 45 -94q13 0 45 14l21 -25q-26 -28 -60.5 -45.5t-62.5 -17.5q-75 0 -90 82q-101 -82 -182 -82q-56 0 -96 33t-40 79q0 41 28.5 71t94.5 58q68 31 189 70v37 q0 63 -24.5 93t-76.5 30q-49 0 -73 -27q-12 -11 -16 -18.5t-11 -38.5q-3 -15 -31 -32t-51 -17q-14 0 -22.5 10t-8.5 27zM178 944q0 -31 24 -52.5t58 -21.5q26 0 47 11t68 51v137q-106 -28 -151.5 -56.5t-45.5 -68.5z" />
<glyph unicode="&#xab;" horiz-adv-x="815" d="M55 438l324 326l33 -35l-201 -291l209 -282l-37 -43zM369 438l323 326l35 -35l-203 -291l209 -282l-37 -43z" />
<glyph unicode="&#xac;" d="M74 463v84h878v-547h-192v463h-686z" />
<glyph unicode="&#xad;" horiz-adv-x="423" d="M0 383l27 109h397l-29 -109h-395z" />
<glyph unicode="&#xae;" horiz-adv-x="1589" d="M82 682q0 193 95.5 355t261.5 255.5t364 93.5q142 0 272 -56.5t224.5 -151t151 -224.5t56.5 -272q0 -190 -95.5 -352t-259.5 -256t-357 -94q-116 0 -224.5 35.5t-196.5 100.5t-154 151.5t-102 193.5t-36 221zM158 682q0 -174 85 -322t231.5 -234.5t318.5 -86.5t318 86.5 t231 234.5t85 322q0 130 -50 249t-134.5 206t-200.5 138.5t-243 51.5q-176 0 -323.5 -85.5t-232.5 -234t-85 -325.5zM473 293v51h39q16 0 26.5 5t17.5 16.5t10 29t3 43.5v490q0 34 -6 54.5t-18 30t-33 9.5h-39v51q98 -2 127 -2q17 0 84 2t84 2q131 0 201.5 -51.5 t70.5 -146.5q0 -135 -143 -193l168 -246q32 -46 75 -70.5t87 -23.5v-51q-45 2 -103 2q-47 0 -84 -2q-28 19 -67 62.5t-68 90.5l-131 211h-41q-12 0 -20 2h-23v-221q0 -51 13.5 -72.5t44.5 -21.5h40v-51q-94 2 -153 2q-58 0 -162 -2zM690 721q38 -6 55 -6q72 0 121 43.5 t49 109.5q0 63 -51 105.5t-127 42.5q-24 0 -47 -4v-291z" />
<glyph unicode="&#xaf;" d="M236 1149l26 82h526l-40 -82h-512z" />
<glyph unicode="&#xb0;" horiz-adv-x="884" d="M244 1122q0 78 55.5 134.5t134.5 56.5q86 0 146.5 -56.5t60.5 -138.5t-59 -139t-142 -57q-81 0 -138.5 59t-57.5 141zM287 1122q0 -64 46.5 -110.5t110.5 -46.5q63 0 108.5 45.5t45.5 107.5q0 63 -46.5 108.5t-109.5 45.5q-67 0 -111 -42.5t-44 -107.5z" />
<glyph unicode="&#xb1;" d="M47 113v88h932v-88h-932zM47 678v88h420v395h92v-395h420v-88h-420v-387h-92v387h-420z" />
<glyph unicode="&#xb2;" horiz-adv-x="679" d="M51 541v30q107 82 240 234q143 168 143 307q0 75 -41 120.5t-110 45.5q-44 0 -79.5 -22.5t-88.5 -84.5l-27 21q57 91 115.5 129.5t138.5 38.5q94 0 152.5 -59.5t58.5 -155.5q0 -88 -51 -167.5t-199 -227.5l-106 -107h358q20 0 26.5 7t28.5 50h35l-37 -159h-557z" />
<glyph unicode="&#xb3;" horiz-adv-x="679" d="M45 629q0 13 21 30t36 17q11 0 20 -7.5t34 -39.5q41 -54 118 -54q76 0 133.5 58.5t57.5 136.5q0 49 -29 90t-76 60q-45 18 -145 18v39q101 12 155 57t54 117q0 59 -37.5 96t-97.5 37q-40 0 -73 -16t-71 -54l-30 23q60 67 112.5 95t118.5 28q80 0 134.5 -47.5t54.5 -116.5 q0 -52 -37.5 -103t-106.5 -92q193 -38 193 -184q0 -112 -98 -198.5t-224 -86.5q-75 0 -146 31.5t-71 65.5z" />
<glyph unicode="&#xb4;" d="M416 1057l356 274q28 21 57 21q23 0 39.5 -15.5t16.5 -38.5q0 -17 -10 -33t-25 -24l-412 -215z" />
<glyph unicode="&#xb5;" horiz-adv-x="1021" d="M39 825v35q100 3 149.5 9.5t94.5 23.5l18 -4v-625q0 -88 48 -140t128 -52q57 0 109 28.5t135 106.5v459q0 83 -22.5 113.5t-94.5 45.5v35q99 3 144 9t102 24l18 -4v-715q0 -64 11 -85t45 -21q16 0 82 10v-41q-166 -36 -267 -64l-18 4v152q-195 -156 -338 -156 q-59 0 -115 27q0 -80 14.5 -194t14.5 -150q0 -52 -21.5 -87.5t-72.5 -35.5q-41 0 -60.5 29.5t-19.5 77.5q0 96 14.5 297t14.5 311v418q0 83 -21 112.5t-92 46.5z" />
<glyph unicode="&#xb6;" horiz-adv-x="1193" d="M137 1067q0 94 35 165t98 105q63 35 183 35q1 0 55.5 -1.5t121 -3t97.5 -1.5h246v-43q-59 -3 -82 -28.5t-23 -88.5l-2 -30v-1287q0 -72 18.5 -96t73.5 -24h41v-41q-82 4 -110 4q-29 0 -113 -4v1548h-139v-1548q-84 4 -113 4q-26 0 -110 -4v41h41q55 0 73.5 24t18.5 96 v795q-195 7 -302.5 108t-107.5 275z" />
<glyph unicode="&#xb7;" d="M393 436q0 50 35 84.5t86 34.5q48 0 82.5 -35t34.5 -84q0 -50 -34.5 -84.5t-84.5 -34.5t-84.5 34.5t-34.5 84.5z" />
<glyph unicode="&#xb8;" d="M358 -358q0 22 14 35.5t36 13.5q17 0 61 -25q51 -31 70 -31q15 0 31 15.5t16 30.5q0 14 -5.5 24t-31.5 45l-51 72q-35 47 -35 74q0 20 12 36t45 43l31 25h57q-49 -49 -49 -63q0 -12 8 -26.5t41 -57.5q60 -78 60 -119q0 -38 -50 -94q-64 -70 -141 -70q-54 0 -86.5 20 t-32.5 52z" />
<glyph unicode="&#xb9;" horiz-adv-x="679" d="M145 1196q137 68 186 98t95 76l20 -6v-698q0 -60 13 -74t73 -14h52v-39q-88 2 -201 2q-111 0 -199 -2v39h54q56 0 73 16.5t17 71.5v573l-84 -41q-74 -33 -84 -37z" />
<glyph unicode="&#xba;" horiz-adv-x="718" d="M66 1083q0 111 86 188t210 77q120 0 206.5 -80.5t86.5 -190.5q0 -113 -86 -192.5t-207 -79.5q-126 0 -211 80t-85 198zM102 647l15 55h501l-14 -55h-502zM188 1098q0 -107 52.5 -177.5t132.5 -70.5q72 0 114.5 56t42.5 151q0 106 -51 176t-129 70q-74 0 -118 -55.5 t-44 -149.5z" />
<glyph unicode="&#xbb;" horiz-adv-x="815" d="M82 156l209 282l-203 291l35 35l323 -326l-327 -325zM395 156l209 282l-201 291l33 35l324 -326l-328 -325z" />
<glyph unicode="&#xbc;" horiz-adv-x="1619" d="M145 1196q137 68 186 98t95 76l20 -6v-698q0 -60 13 -74t73 -14h52v-39q-88 2 -201 2q-111 0 -199 -2v39h54q56 0 73 16.5t17 71.5v573l-84 -41q-74 -33 -84 -37zM446 0l652 1352h76l-658 -1352h-70zM979 248v59l422 504h55v-471h119v-92h-119v-248h-113v248h-364z M1075 340h268v326z" />
<glyph unicode="&#xbd;" horiz-adv-x="1619" d="M145 1196q137 68 186 98t95 76l20 -6v-698q0 -60 13 -74t73 -14h52v-39q-88 2 -201 2q-111 0 -199 -2v39h54q56 0 73 16.5t17 71.5v573l-84 -41q-74 -33 -84 -37zM446 0l652 1352h76l-658 -1352h-70zM993 0v31q110 84 240 233q143 168 143 307q0 75 -41 120.5t-110 45.5 q-44 0 -79 -22t-89 -84l-27 20q57 91 115.5 129.5t138.5 38.5q94 0 152.5 -59.5t58.5 -155.5q0 -88 -51 -167.5t-199 -227.5l-106 -107h358q20 0 26.5 7t28.5 51h35l-37 -160h-557z" />
<glyph unicode="&#xbe;" horiz-adv-x="1619" d="M45 629q0 13 21 30t36 17q11 0 20 -7.5t34 -39.5q41 -54 118 -54q76 0 133.5 58.5t57.5 136.5q0 49 -29 90t-76 60q-45 18 -145 18v39q101 12 155 57t54 117q0 59 -37.5 96t-97.5 37q-40 0 -73 -16t-71 -54l-30 23q60 67 112.5 95t118.5 28q80 0 134.5 -47.5t54.5 -116.5 q0 -52 -37.5 -103t-106.5 -92q193 -38 193 -184q0 -112 -98 -198.5t-224 -86.5q-75 0 -146 31.5t-71 65.5zM446 0l652 1352h76l-658 -1352h-70zM979 248v59l422 504h55v-471h119v-92h-119v-248h-113v248h-364zM1075 340h268v326z" />
<glyph unicode="&#xbf;" horiz-adv-x="714" d="M125 326q0 41 23.5 78t62.5 61q28 17 46.5 22t111.5 23q16 3 27 5t21 6t16 7.5t11 10.5t7.5 13.5t4 18t2.5 23t1 29.5h41v-211q-131 -6 -195 -37q-30 -13 -52.5 -33t-34 -43.5t-11.5 -46.5q0 -60 59 -107t135 -47q8 0 41.5 5.5t42.5 5.5q32 0 59 -19.5t27 -42.5 q0 -26 -32 -43.5t-78 -17.5q-117 0 -213 96q-55 55 -89 122.5t-34 121.5zM356 819q0 48 35 82.5t84 34.5q47 0 82 -35t35 -82q0 -49 -35 -84t-84 -35q-48 0 -82.5 35t-34.5 84z" />
<glyph unicode="&#xc0;" horiz-adv-x="1294" d="M-14 -4v49q84 5 124.5 39.5t75.5 136.5l367 1039l-21 59q62 41 93 82q15 22 24 29.5t19 7.5q19 0 26 -21l439 -1229q29 -80 70.5 -110.5t117.5 -32.5v-49q-106 4 -242 4q-137 0 -252 -4v49l45 2q86 3 86 57q0 21 -16 68l-119 338h-452l-103 -336q-6 -18 -6 -39 q0 -47 29 -63q19 -12 43.5 -16.5t101.5 -10.5v-49q-113 4 -264 4q-114 0 -186 -4zM254 1790q0 23 16 38t41 15q30 0 56 -20l356 -275l-21 -30l-413 215q-35 17 -35 57zM397 582h396l-205 589z" />
<glyph unicode="&#xc1;" horiz-adv-x="1294" d="M-14 -4v49q84 5 124.5 39.5t75.5 136.5l367 1039l-21 59q62 41 93 82q15 22 24 29.5t19 7.5q19 0 26 -21l439 -1229q29 -80 70.5 -110.5t117.5 -32.5v-49q-106 4 -242 4q-137 0 -252 -4v49l45 2q86 3 86 57q0 21 -16 68l-119 338h-452l-103 -336q-6 -18 -6 -39 q0 -47 29 -63q19 -12 43.5 -16.5t101.5 -10.5v-49q-113 4 -264 4q-114 0 -186 -4zM397 582h396l-205 589zM584 1548l356 275q26 20 57 20q23 0 39.5 -15.5t16.5 -37.5q0 -40 -35 -57l-412 -215z" />
<glyph unicode="&#xc2;" horiz-adv-x="1294" d="M-14 -4v49q84 5 124.5 39.5t75.5 136.5l367 1039l-21 59q62 41 93 82q15 22 24 29.5t19 7.5q19 0 26 -21l439 -1229q29 -80 70.5 -110.5t117.5 -32.5v-49q-106 4 -242 4q-137 0 -252 -4v49l45 2q86 3 86 57q0 21 -16 68l-119 338h-452l-103 -336q-6 -18 -6 -39 q0 -47 29 -63q19 -12 43.5 -16.5t101.5 -10.5v-49q-113 4 -264 4q-114 0 -186 -4zM322 1534l319 309l301 -309l-31 -18l-270 174l-291 -174zM397 582h396l-205 589z" />
<glyph unicode="&#xc3;" horiz-adv-x="1294" d="M-14 -4v49q84 5 124.5 39.5t75.5 136.5l367 1039l-21 59q62 41 93 82q15 22 24 29.5t19 7.5q19 0 26 -21l439 -1229q29 -80 70.5 -110.5t117.5 -32.5v-49q-106 4 -242 4q-137 0 -252 -4v49l45 2q86 3 86 57q0 21 -16 68l-119 338h-452l-103 -336q-6 -18 -6 -39 q0 -47 29 -63q19 -12 43.5 -16.5t101.5 -10.5v-49q-113 4 -264 4q-114 0 -186 -4zM330 1602q58 178 184 178q44 0 88.5 -14t173.5 -70q46 -17 70 -17q59 0 108 88l37 -8q-49 -180 -190 -180q-34 0 -64.5 8t-91.5 33q-141 57 -172 57q-28 0 -50 -18.5t-56 -69.5zM397 582h396 l-205 589z" />
<glyph unicode="&#xc4;" horiz-adv-x="1294" d="M-14 -4v49q84 5 124.5 39.5t75.5 136.5l367 1039l-21 59q62 41 93 82q15 22 24 29.5t19 7.5q19 0 26 -21l439 -1229q29 -80 70.5 -110.5t117.5 -32.5v-49q-106 4 -242 4q-137 0 -252 -4v49l45 2q86 3 86 57q0 21 -16 68l-119 338h-452l-103 -336q-6 -18 -6 -39 q0 -47 29 -63q19 -12 43.5 -16.5t101.5 -10.5v-49q-113 4 -264 4q-114 0 -186 -4zM360 1679q0 40 29 68.5t70 28.5q38 0 66 -29t28 -68q0 -40 -28 -68t-68 -28q-38 0 -67.5 29t-29.5 67zM397 582h396l-205 589zM756 1679q0 40 28.5 68.5t69.5 28.5q38 0 66 -29t28 -68 q0 -40 -28 -68t-68 -28q-38 0 -67 29t-29 67z" />
<glyph unicode="&#xc5;" horiz-adv-x="1294" d="M-14 -4v49q84 5 124.5 39.5t75.5 136.5l367 1039l-21 59q62 41 93 82q15 22 24 29.5t19 7.5q19 0 26 -21l439 -1229q29 -80 70.5 -110.5t117.5 -32.5v-49q-106 4 -242 4q-137 0 -252 -4v49l45 2q86 3 86 57q0 21 -16 68l-119 338h-452l-103 -336q-6 -18 -6 -39 q0 -47 29 -63q19 -12 43.5 -16.5t101.5 -10.5v-49q-113 4 -264 4q-114 0 -186 -4zM397 582h396l-205 589zM461 1679q0 74 52.5 126.5t127.5 52.5q70 0 122 -53.5t52 -125.5q0 -73 -52.5 -125.5t-125.5 -52.5q-72 0 -124 52.5t-52 125.5zM522 1679q0 -47 34.5 -81.5 t80.5 -34.5q47 0 82 34.5t35 81.5t-34 82t-81 35q-49 0 -83 -34t-34 -83z" />
<glyph unicode="&#xc6;" horiz-adv-x="1820" d="M-55 -4v49q92 2 130.5 24.5t84.5 104.5l561 997q33 59 33 84q0 32 -24 47t-87 19v49q162 -4 219 -4h594q162 0 238 4l12 -291l-41 -6q-19 106 -79 163.5t-154 57.5h-363v-557h258q91 0 127 38t39 138h45q-4 -156 -4 -208q0 -55 4 -213h-45q-5 99 -38.5 136.5t-119.5 37.5 h-266v-383q0 -85 20.5 -127.5t73.5 -65.5q56 -22 234 -22q125 0 191.5 17.5t106.5 60.5t74 133l41 -13l-63 -270q-90 4 -236 4h-561q-92 0 -237 -2v47h51q67 0 97 46t30 149v426h-371l-248 -445q-43 -74 -43 -117t47 -55q16 -4 91 -4v-49q-96 4 -211 4q-117 0 -211 -4z M561 737h330v559h-21z" />
<glyph unicode="&#xc7;" horiz-adv-x="1400" d="M88 684q0 149 59 280t160.5 225t245 148t305.5 54q231 0 465 -107l20 -256l-34 -2q-19 71 -42.5 114.5t-62.5 78.5q-118 106 -332 106q-289 0 -444 -190q-65 -82 -101 -190.5t-36 -223.5q0 -113 36.5 -232t96.5 -206q79 -112 203 -178t256 -66q93 0 183.5 33t141.5 86 q31 32 52.5 74.5t46.5 119.5l32 -10l-30 -250q-67 -52 -199.5 -85.5t-271.5 -33.5q-29 -26 -29 -45q0 -12 9 -27.5t42 -60.5q66 -84 66 -129q0 -44 -54 -104q-70 -76 -153 -76q-58 0 -94.5 22.5t-36.5 57.5q0 25 15 40t40 15q26 0 68 -26q50 -33 73 -33q15 0 31 16t16 31 q0 14 -5.5 24t-32.5 48l-56 77q-37 55 -37 80q0 24 11.5 40t54.5 52q-146 12 -272 71.5t-215.5 152.5t-140 218.5t-50.5 266.5z" />
<glyph unicode="&#xc8;" horiz-adv-x="1173" d="M68 -4v49h51q67 0 97 46t30 149v886q0 103 -30 149t-97 46h-51v49q76 -4 237 -4h463q160 0 238 4l12 -291l-37 -6q-19 106 -80 163.5t-156 57.5h-321v-557h258q92 0 128.5 38t39.5 138h43q-4 -141 -4 -208q0 -74 4 -213h-43q-5 99 -38.5 136.5t-119.5 37.5h-268v-381 q0 -86 20.5 -129t73.5 -66q56 -22 234 -22q125 0 190.5 17t105.5 60t76 136h41l-63 -285q-76 4 -236 4h-561q-161 0 -237 -4zM221 1790q0 23 16.5 38t41.5 15q29 0 55 -20l356 -275l-20 -30l-414 215q-35 17 -35 57z" />
<glyph unicode="&#xc9;" horiz-adv-x="1173" d="M68 -4v49h51q67 0 97 46t30 149v886q0 103 -30 149t-97 46h-51v49q76 -4 237 -4h463q160 0 238 4l12 -291l-37 -6q-19 106 -80 163.5t-156 57.5h-321v-557h258q92 0 128.5 38t39.5 138h43q-4 -141 -4 -208q0 -74 4 -213h-43q-5 99 -38.5 136.5t-119.5 37.5h-268v-381 q0 -86 20.5 -129t73.5 -66q56 -22 234 -22q125 0 190.5 17t105.5 60t76 136h41l-63 -285q-76 4 -236 4h-561q-161 0 -237 -4zM516 1548l356 275q26 20 58 20q23 0 39 -15.5t16 -37.5q0 -40 -35 -57l-411 -215z" />
<glyph unicode="&#xca;" horiz-adv-x="1173" d="M68 -4v49h51q67 0 97 46t30 149v886q0 103 -30 149t-97 46h-51v49q76 -4 237 -4h463q160 0 238 4l12 -291l-37 -6q-19 106 -80 163.5t-156 57.5h-321v-557h258q92 0 128.5 38t39.5 138h43q-4 -141 -4 -208q0 -74 4 -213h-43q-5 99 -38.5 136.5t-119.5 37.5h-268v-381 q0 -86 20.5 -129t73.5 -66q56 -22 234 -22q125 0 190.5 17t105.5 60t76 136h41l-63 -285q-76 4 -236 4h-561q-161 0 -237 -4zM256 1534l319 309l302 -309l-31 -18l-271 174l-290 -174z" />
<glyph unicode="&#xcb;" horiz-adv-x="1173" d="M68 -4v49h51q67 0 97 46t30 149v886q0 103 -30 149t-97 46h-51v49q76 -4 237 -4h463q160 0 238 4l12 -291l-37 -6q-19 106 -80 163.5t-156 57.5h-321v-557h258q92 0 128.5 38t39.5 138h43q-4 -141 -4 -208q0 -74 4 -213h-43q-5 99 -38.5 136.5t-119.5 37.5h-268v-381 q0 -86 20.5 -129t73.5 -66q56 -22 234 -22q125 0 190.5 17t105.5 60t76 136h41l-63 -285q-76 4 -236 4h-561q-161 0 -237 -4zM301 1679q0 40 28.5 68.5t69.5 28.5q38 0 66.5 -29.5t28.5 -67.5q0 -40 -28.5 -68t-68.5 -28q-38 0 -67 29t-29 67zM696 1679q0 40 29 68.5 t70 28.5q38 0 66 -29t28 -68q0 -40 -28 -68t-68 -28q-38 0 -67.5 29t-29.5 67z" />
<glyph unicode="&#xcc;" horiz-adv-x="669" d="M-78 1790q0 23 16.5 38t41.5 15q29 0 55 -20l356 -275l-20 -30l-414 215q-35 17 -35 57zM68 -4v49h51q67 0 97 46t30 149v886q0 103 -30 149t-97 46h-51v49q115 -4 247 -4q88 0 287 4v-49h-51q-67 0 -97 -46t-30 -149v-886q0 -103 30 -149t97 -46h51v-49q-219 4 -276 4 q-76 0 -258 -4z" />
<glyph unicode="&#xcd;" horiz-adv-x="669" d="M68 -4v49h51q67 0 97 46t30 149v886q0 103 -30 149t-97 46h-51v49q115 -4 247 -4q88 0 287 4v-49h-51q-67 0 -97 -46t-30 -149v-886q0 -103 30 -149t97 -46h51v-49q-219 4 -276 4q-76 0 -258 -4zM311 1548l357 275q26 20 57 20q23 0 39 -15.5t16 -37.5q0 -40 -35 -57 l-411 -215z" />
<glyph unicode="&#xce;" horiz-adv-x="669" d="M31 1534l319 309l301 -309l-30 -18l-271 174l-291 -174zM68 -4v49h51q67 0 97 46t30 149v886q0 103 -30 149t-97 46h-51v49q115 -4 247 -4q88 0 287 4v-49h-51q-67 0 -97 -46t-30 -149v-886q0 -103 30 -149t97 -46h51v-49q-219 4 -276 4q-76 0 -258 -4z" />
<glyph unicode="&#xcf;" horiz-adv-x="669" d="M68 -4v49h51q67 0 97 46t30 149v886q0 103 -30 149t-97 46h-51v49q115 -4 247 -4q88 0 287 4v-49h-51q-67 0 -97 -46t-30 -149v-886q0 -103 30 -149t97 -46h51v-49q-219 4 -276 4q-76 0 -258 -4zM88 1679q0 40 28.5 68.5t69.5 28.5q38 0 66.5 -29.5t28.5 -67.5 q0 -40 -28.5 -68t-68.5 -28q-38 0 -67 29t-29 67zM401 1679q0 40 29 68.5t70 28.5q38 0 66 -29t28 -68q0 -40 -28 -68t-68 -28q-38 0 -67.5 29t-29.5 67z" />
<glyph unicode="&#xd0;" horiz-adv-x="1517" d="M68 -4v49h51q67 0 97 46t30 149v442h-160v68h160v376q0 103 -30 149t-97 46h-47v49q168 -4 229 -4q41 0 166.5 4t142.5 4q242 0 427.5 -87t287.5 -246t102 -367q0 -199 -96.5 -354.5t-271.5 -241.5t-400 -86q-20 0 -153.5 4t-188.5 4q-134 0 -249 -4zM424 272 q0 -64 8 -98t29 -59q26 -29 83.5 -45.5t133.5 -16.5q133 0 234.5 47.5t181.5 145.5q131 165 131 397q0 233 -109 400t-299 225q-122 37 -278 37q-25 0 -40 -0.5t-29 -2t-21 -5.5t-13 -9t-8 -14.5t-3 -19.5t-1 -27v-477h344v-68h-344v-410z" />
<glyph unicode="&#xd1;" horiz-adv-x="1583" d="M8 1321v49q148 -4 166 -4q20 0 168 4l948 -1073v829q0 115 -45.5 155t-165.5 40h-12v49q100 -4 252 -4q139 0 231 4v-49h-12q-83 0 -131.5 -56t-48.5 -151v-1141h-39l-1010 1149v-583q0 -87 1.5 -146t6.5 -113t12 -87t21 -61.5t30.5 -43t43 -25t56.5 -14t73 -4.5v-49 q-96 4 -238 4q-157 0 -280 -4v49h31q54 0 80.5 7.5t46.5 27.5q47 47 47 160v714q0 127 -4.5 181.5t-16 80.5t-41.5 50q-36 30 -73 41.5t-97 13.5zM481 1602q58 178 185 178q44 0 88.5 -14t173.5 -70q46 -17 69 -17q60 0 109 88l37 -8q-49 -180 -191 -180q-33 0 -63.5 8 t-91.5 33q-141 57 -172 57q-28 0 -50.5 -18.5t-56.5 -69.5z" />
<glyph unicode="&#xd2;" horiz-adv-x="1581" d="M88 694q0 136 57 265t151 224t222 152.5t264 57.5q132 0 265 -53.5t231 -147.5q101 -95 158 -228t57 -274q0 -142 -56 -273.5t-150 -228t-222.5 -154t-267.5 -57.5q-193 0 -356.5 96t-258 261t-94.5 360zM287 745q0 -260 135 -469q147 -233 393 -233q103 0 200 47.5 t154 126.5q57 76 89 186.5t32 227.5q0 126 -38.5 255t-104.5 228q-142 215 -387 215q-248 0 -373 -205q-100 -165 -100 -379zM365 1790q0 23 16 38t41 15q29 0 55 -20l357 -275l-21 -30l-414 215q-34 17 -34 57z" />
<glyph unicode="&#xd3;" horiz-adv-x="1581" d="M88 694q0 136 57 265t151 224t222 152.5t264 57.5q132 0 265 -53.5t231 -147.5q101 -95 158 -228t57 -274q0 -142 -56 -273.5t-150 -228t-222.5 -154t-267.5 -57.5q-193 0 -356.5 96t-258 261t-94.5 360zM287 745q0 -260 135 -469q147 -233 393 -233q103 0 200 47.5 t154 126.5q57 76 89 186.5t32 227.5q0 126 -38.5 255t-104.5 228q-142 215 -387 215q-248 0 -373 -205q-100 -165 -100 -379zM735 1548l357 275q26 20 57 20q23 0 39 -15.5t16 -37.5q0 -40 -35 -57l-411 -215z" />
<glyph unicode="&#xd4;" horiz-adv-x="1581" d="M88 694q0 136 57 265t151 224t222 152.5t264 57.5q132 0 265 -53.5t231 -147.5q101 -95 158 -228t57 -274q0 -142 -56 -273.5t-150 -228t-222.5 -154t-267.5 -57.5q-193 0 -356.5 96t-258 261t-94.5 360zM287 745q0 -260 135 -469q147 -233 393 -233q103 0 200 47.5 t154 126.5q57 76 89 186.5t32 227.5q0 126 -38.5 255t-104.5 228q-142 215 -387 215q-248 0 -373 -205q-100 -165 -100 -379zM467 1534l319 309l301 -309l-30 -18l-271 174l-290 -174z" />
<glyph unicode="&#xd5;" horiz-adv-x="1581" d="M88 694q0 136 57 265t151 224t222 152.5t264 57.5q132 0 265 -53.5t231 -147.5q101 -95 158 -228t57 -274q0 -142 -56 -273.5t-150 -228t-222.5 -154t-267.5 -57.5q-193 0 -356.5 96t-258 261t-94.5 360zM287 745q0 -260 135 -469q147 -233 393 -233q103 0 200 47.5 t154 126.5q57 76 89 186.5t32 227.5q0 126 -38.5 255t-104.5 228q-142 215 -387 215q-248 0 -373 -205q-100 -165 -100 -379zM487 1602q58 178 185 178q44 0 88.5 -14t173.5 -70q46 -17 70 -17q59 0 108 88l37 -8q-49 -180 -191 -180q-33 0 -63.5 8t-91.5 33 q-141 57 -172 57q-28 0 -50.5 -18.5t-56.5 -69.5z" />
<glyph unicode="&#xd6;" horiz-adv-x="1581" d="M88 694q0 136 57 265t151 224t222 152.5t264 57.5q132 0 265 -53.5t231 -147.5q101 -95 158 -228t57 -274q0 -142 -56 -273.5t-150 -228t-222.5 -154t-267.5 -57.5q-193 0 -356.5 96t-258 261t-94.5 360zM287 745q0 -260 135 -469q147 -233 393 -233q103 0 200 47.5 t154 126.5q57 76 89 186.5t32 227.5q0 126 -38.5 255t-104.5 228q-142 215 -387 215q-248 0 -373 -205q-100 -165 -100 -379zM504 1679q0 40 28.5 68.5t69.5 28.5q38 0 66 -29t28 -68q0 -40 -28 -68t-68 -28q-38 0 -67 29t-29 67zM899 1679q0 40 28.5 68.5t69.5 28.5 q38 0 66.5 -29.5t28.5 -67.5q0 -40 -28.5 -68t-68.5 -28q-38 0 -67 29t-29 67z" />
<glyph unicode="&#xd7;" d="M125 375l326 325l-324 322l61 63l324 -323l324 325l65 -65l-326 -324l324 -323l-61 -62l-324 324l-326 -326z" />
<glyph unicode="&#xd8;" horiz-adv-x="1581" d="M88 686q0 139 56.5 269.5t150 226.5t222 153.5t265.5 57.5q112 0 228 -41t215 -115l168 193l59 -46l-170 -194q100 -98 155.5 -229.5t55.5 -270.5q0 -142 -56 -273.5t-150 -228t-222.5 -154t-267.5 -57.5q-236 0 -441 154l-168 -190l-59 51l168 190q-97 94 -153 229 t-56 275zM289 741q0 -239 114 -436l732 830q-140 194 -373 194q-246 0 -373 -207q-100 -165 -100 -381zM449 238q80 -101 167 -148t197 -47q105 0 201 47t155 127q57 76 89 186.5t32 227.5q0 111 -30 228t-84 210z" />
<glyph unicode="&#xd9;" horiz-adv-x="1509" d="M55 1321v49q98 -4 254 -4q170 0 281 4v-49h-51q-67 0 -97 -46t-30 -149v-596q0 -235 107.5 -362t305.5 -127q94 0 170.5 34t120.5 97q43 59 56.5 123.5t13.5 210.5v620q0 103 -30 149t-97 46h-51v49q70 -4 168 -4q72 0 280 4v-49h-51q-66 0 -96.5 -46.5t-30.5 -148.5 v-618q0 -167 -20 -237.5t-89 -143.5q-142 -154 -411 -154q-271 0 -408 140q-65 65 -91 149.5t-26 229.5v634q0 103 -30 149t-97 46h-51zM377 1790q0 23 16 38t41 15q29 0 55 -20l357 -275l-21 -30l-413 215q-35 17 -35 57z" />
<glyph unicode="&#xda;" horiz-adv-x="1509" d="M55 1321v49q98 -4 254 -4q170 0 281 4v-49h-51q-67 0 -97 -46t-30 -149v-596q0 -235 107.5 -362t305.5 -127q94 0 170.5 34t120.5 97q43 59 56.5 123.5t13.5 210.5v620q0 103 -30 149t-97 46h-51v49q70 -4 168 -4q72 0 280 4v-49h-51q-66 0 -96.5 -46.5t-30.5 -148.5 v-618q0 -167 -20 -237.5t-89 -143.5q-142 -154 -411 -154q-271 0 -408 140q-65 65 -91 149.5t-26 229.5v634q0 103 -30 149t-97 46h-51zM733 1548l357 275q26 20 57 20q23 0 39 -15.5t16 -37.5q0 -40 -35 -57l-411 -215z" />
<glyph unicode="&#xdb;" horiz-adv-x="1509" d="M55 1321v49q98 -4 254 -4q170 0 281 4v-49h-51q-67 0 -97 -46t-30 -149v-596q0 -235 107.5 -362t305.5 -127q94 0 170.5 34t120.5 97q43 59 56.5 123.5t13.5 210.5v620q0 103 -30 149t-97 46h-51v49q70 -4 168 -4q72 0 280 4v-49h-51q-66 0 -96.5 -46.5t-30.5 -148.5 v-618q0 -167 -20 -237.5t-89 -143.5q-142 -154 -411 -154q-271 0 -408 140q-65 65 -91 149.5t-26 229.5v634q0 103 -30 149t-97 46h-51zM494 1534l319 309l301 -309l-31 -18l-270 174l-291 -174z" />
<glyph unicode="&#xdc;" horiz-adv-x="1509" d="M55 1321v49q98 -4 254 -4q170 0 281 4v-49h-51q-67 0 -97 -46t-30 -149v-596q0 -235 107.5 -362t305.5 -127q94 0 170.5 34t120.5 97q43 59 56.5 123.5t13.5 210.5v620q0 103 -30 149t-97 46h-51v49q70 -4 168 -4q72 0 280 4v-49h-51q-66 0 -96.5 -46.5t-30.5 -148.5 v-618q0 -167 -20 -237.5t-89 -143.5q-142 -154 -411 -154q-271 0 -408 140q-65 65 -91 149.5t-26 229.5v634q0 103 -30 149t-97 46h-51zM504 1679q0 40 28.5 68.5t69.5 28.5q38 0 66 -29t28 -68q0 -40 -28 -68t-68 -28q-38 0 -67 29t-29 67zM899 1679q0 40 28.5 68.5 t69.5 28.5q38 0 66.5 -29.5t28.5 -67.5q0 -40 -28.5 -68t-68.5 -28q-38 0 -67 29t-29 67z" />
<glyph unicode="&#xdd;" horiz-adv-x="1198" d="M-63 1321v49q115 -4 241 -4t230 4v-49q-58 0 -82.5 -10t-24.5 -33q0 -36 37 -86l326 -422l278 379q47 66 47 111q0 32 -30.5 46.5t-96.5 14.5v49q96 -4 217 -4q107 0 181 4v-49q-73 -4 -114.5 -37.5t-123.5 -144.5l-328 -439v-460q0 -103 30 -149t97 -46h51v-49 q-158 4 -254 4q-94 0 -262 -4v49h33q67 0 97 46t30 149v428l-352 471q-74 99 -122.5 139t-104.5 43zM604 1548l357 275q26 20 57 20q23 0 39 -15.5t16 -37.5q0 -40 -35 -57l-411 -215z" />
<glyph unicode="&#xde;" horiz-adv-x="1091" d="M68 -4v49h51q67 0 97 46t30 149v886q0 103 -30 149t-97 46h-51v49q115 -4 247 -4q86 0 287 4v-49h-51q-67 0 -97 -46t-30 -149v-57h33q33 0 78.5 2t50.5 2q201 0 327.5 -103.5t126.5 -267.5q0 -123 -60 -217t-171 -147q-58 -28 -110.5 -36.5t-161.5 -8.5v41 q69 4 112 18.5t84 44.5q123 91 123 265q0 158 -89 252t-247 94q-43 0 -96 -4v-764q0 -103 30 -149t97 -46h51v-49q-225 4 -276 4q-78 0 -258 -4z" />
<glyph unicode="&#xdf;" horiz-adv-x="1486" d="M68 240h36q24 -60 39.5 -88.5t36.5 -51.5q26 -28 69.5 -45.5t86.5 -17.5q75 0 127.5 50t52.5 122q0 54 -35 94t-123 86q-81 42 -114 63t-62 48q-82 79 -82 186q0 109 86.5 180.5t219.5 71.5q82 0 194 -33l18 -174h-40q-23 79 -65.5 115.5t-111.5 36.5q-70 0 -115.5 -40 t-45.5 -102q0 -61 38 -105t132 -91q151 -76 205.5 -137t54.5 -152q0 -119 -96 -196.5t-242 -77.5q-142 0 -248 61zM811 240h37q24 -60 39.5 -88.5t36.5 -51.5q26 -28 69 -45.5t86 -17.5q75 0 128 50t53 122q0 54 -35 94t-123 86q-81 42 -114 63t-62 48q-82 79 -82 186 q0 109 86 180.5t219 71.5q82 0 194 -33l19 -174h-41q-23 80 -65 116t-111 36q-70 0 -116 -40t-46 -102q0 -61 38 -105t132 -91q151 -76 205.5 -137t54.5 -152q0 -119 -96 -196.5t-242 -77.5q-142 0 -248 61z" />
<glyph unicode="&#xe0;" horiz-adv-x="968" d="M8 -2v45q67 3 91.5 23.5t52.5 95.5l245 684l-16 37q49 24 82 65q14 19 29 19q18 0 28 -21l316 -807q23 -58 50 -77t87 -19v-45q-125 2 -191 2q-59 0 -194 -2v45q40 4 47 4q26 1 36.5 8.5t10.5 22.5q0 10 -10 41l-74 217h-305l-70 -215q-4 -16 -4 -25q0 -29 28.5 -41 t96.5 -12v-45q-98 2 -217 2q-72 0 -119 -2zM72 1298q0 23 16 38.5t41 15.5q27 0 55 -21l357 -274l-21 -31l-414 215q-15 7 -24.5 23.5t-9.5 33.5zM315 403h260l-129 379z" />
<glyph unicode="&#xe1;" horiz-adv-x="968" d="M8 -2v45q67 3 91.5 23.5t52.5 95.5l245 684l-16 37q49 24 82 65q14 19 29 19q18 0 28 -21l316 -807q23 -58 50 -77t87 -19v-45q-125 2 -191 2q-59 0 -194 -2v45q40 4 47 4q26 1 36.5 8.5t10.5 22.5q0 10 -10 41l-74 217h-305l-70 -215q-4 -16 -4 -25q0 -29 28.5 -41 t96.5 -12v-45q-98 2 -217 2q-72 0 -119 -2zM315 403h260l-129 379zM434 1057l357 274q28 21 57 21q23 0 39 -15.5t16 -38.5q0 -17 -10 -33t-25 -24l-411 -215z" />
<glyph unicode="&#xe2;" horiz-adv-x="968" d="M8 -2v45q67 3 91.5 23.5t52.5 95.5l245 684l-16 37q49 24 82 65q14 19 29 19q18 0 28 -21l316 -807q23 -58 50 -77t87 -19v-45q-125 2 -191 2q-59 0 -194 -2v45q40 4 47 4q26 1 36.5 8.5t10.5 22.5q0 10 -10 41l-74 217h-305l-70 -215q-4 -16 -4 -25q0 -29 28.5 -41 t96.5 -12v-45q-98 2 -217 2q-72 0 -119 -2zM160 1044l319 310l301 -310l-30 -20l-271 176l-291 -176zM315 403h260l-129 379z" />
<glyph unicode="&#xe3;" horiz-adv-x="968" d="M8 -2v45q67 3 91.5 23.5t52.5 95.5l245 684l-16 37q49 24 82 65q14 19 29 19q18 0 28 -21l316 -807q23 -58 50 -77t87 -19v-45q-125 2 -191 2q-59 0 -194 -2v45q40 4 47 4q26 1 36.5 8.5t10.5 22.5q0 10 -10 41l-74 217h-305l-70 -215q-4 -16 -4 -25q0 -29 28.5 -41 t96.5 -12v-45q-98 2 -217 2q-72 0 -119 -2zM203 1110q62 184 176 184q35 0 74.5 -15t158.5 -71q50 -22 72 -22q57 0 111 100l39 -16q-37 -98 -79.5 -143.5t-97.5 -45.5t-153 52q-86 43 -105.5 51t-42.5 8q-67 0 -114 -96zM315 403h260l-129 379z" />
<glyph unicode="&#xe4;" horiz-adv-x="968" d="M8 -2v45q67 3 91.5 23.5t52.5 95.5l245 684l-16 37q49 24 82 65q14 19 29 19q18 0 28 -21l316 -807q23 -58 50 -77t87 -19v-45q-125 2 -191 2q-59 0 -194 -2v45q40 4 47 4q26 1 36.5 8.5t10.5 22.5q0 10 -10 41l-74 217h-305l-70 -215q-4 -16 -4 -25q0 -29 28.5 -41 t96.5 -12v-45q-98 2 -217 2q-72 0 -119 -2zM215 1188q0 37 27 63.5t65 26.5q35 0 61.5 -26.5t26.5 -63.5t-26.5 -63.5t-63.5 -26.5t-63.5 26.5t-26.5 63.5zM315 403h260l-129 379zM586 1188q0 37 27 63.5t65 26.5q35 0 61.5 -26.5t26.5 -63.5t-26.5 -63.5t-63.5 -26.5 t-63.5 26.5t-26.5 63.5z" />
<glyph unicode="&#xe5;" horiz-adv-x="968" d="M8 -2v45q67 3 91.5 23.5t52.5 95.5l245 684l-16 37q49 24 82 65q14 19 29 19q18 0 28 -21l316 -807q23 -58 50 -77t87 -19v-45q-125 2 -191 2q-59 0 -194 -2v45q40 4 47 4q26 1 36.5 8.5t10.5 22.5q0 10 -10 41l-74 217h-305l-70 -215q-4 -16 -4 -25q0 -29 28.5 -41 t96.5 -12v-45q-98 2 -217 2q-72 0 -119 -2zM299 1188q0 75 52.5 126.5t127.5 51.5q71 0 122.5 -52t51.5 -124q0 -74 -52.5 -126t-125.5 -52q-72 0 -124 52t-52 124zM315 403h260l-129 379zM360 1188q0 -46 34.5 -80.5t80.5 -34.5q47 0 82 35t35 82q0 46 -34.5 80.5 t-80.5 34.5q-49 0 -83 -33.5t-34 -83.5z" />
<glyph unicode="&#xe6;" horiz-adv-x="1357" d="M-10 -2v43q63 0 92.5 17.5t62.5 72.5l402 657q18 30 18 54q0 36 -78 39v41l93 -2h489q107 0 170 2l8 -201l-45 -8q-13 78 -52.5 112.5t-113.5 34.5h-227v-360h166q58 0 79 24t23 92h51q-4 -111 -4 -145t4 -143h-51q-2 68 -23 90t-85 22h-160v-254q0 -37 5 -58.5t16.5 -37 t38.5 -22.5t62 -10t95 -3q126 0 172 26.5t80 117.5l45 -19l-49 -182q-70 2 -168 2h-399q-58 0 -181 -2v45h33q51 0 69.5 24.5t18.5 92.5v280h-231l-178 -293q-27 -46 -27 -71q0 -19 16.5 -26t59.5 -7q8 0 16 -2v-43q-76 2 -151 2q-47 0 -162 -2zM453 500h194v350z" />
<glyph unicode="&#xe7;" horiz-adv-x="1075" d="M90 459q0 133 72 242t199 171t282 62q179 0 334 -70l14 -188l-41 -2q-28 108 -97 156.5t-196 48.5q-189 0 -292 -127q-89 -113 -89 -269q0 -187 114 -316.5t278 -129.5q63 0 123 22.5t92 57.5q20 22 34 51t33 88l37 -12l-22 -185q-103 -68 -295 -77q-31 -29 -31 -45 q0 -12 8 -26.5t41 -57.5q60 -78 60 -119q0 -38 -50 -94q-64 -70 -141 -70q-54 0 -86.5 20t-32.5 52q0 22 13.5 35.5t35.5 13.5q18 0 62 -25q51 -31 69 -31q15 0 31.5 15.5t16.5 30.5q0 14 -5.5 24t-31.5 45l-51 72q-35 47 -35 74q0 20 12 36t45 43l8 9q-174 8 -297 86 q-104 64 -162.5 167t-58.5 222z" />
<glyph unicode="&#xe8;" horiz-adv-x="913" d="M57 1298q0 23 16.5 38.5t41.5 15.5q27 0 55 -21l356 -274l-20 -31l-414 215q-15 8 -25 24t-10 33zM82 -2v45h24q56 0 76.5 25t20.5 92v600q0 68 -20 93.5t-72 25.5h-29v43q61 -2 180 -2h330q109 0 172 2l8 -203l-43 -6q-12 78 -52 112.5t-118 34.5h-194v-358h167 q58 0 79 23t24 91h49q-4 -94 -4 -141q0 -51 4 -147h-49q-3 72 -23.5 93t-87.5 21h-159v-252q0 -37 5 -58.5t16.5 -37t38.5 -22.5t62 -10t95 -3q86 0 130 11t70 39t52 90h45l-50 -201q-59 2 -167 2h-400q-119 0 -180 -2z" />
<glyph unicode="&#xe9;" horiz-adv-x="913" d="M82 -2v45h24q56 0 76.5 25t20.5 92v600q0 68 -20 93.5t-72 25.5h-29v43q61 -2 180 -2h330q109 0 172 2l8 -203l-43 -6q-12 78 -52 112.5t-118 34.5h-194v-358h167q58 0 79 23t24 91h49q-4 -94 -4 -141q0 -51 4 -147h-49q-3 72 -23.5 93t-87.5 21h-159v-252q0 -37 5 -58.5 t16.5 -37t38.5 -22.5t62 -10t95 -3q86 0 130 11t70 39t52 90h45l-50 -201q-59 2 -167 2h-400q-119 0 -180 -2zM414 1057l356 274q28 21 57 21q23 0 39.5 -15.5t16.5 -38.5q0 -17 -10 -33t-25 -24l-412 -215z" />
<glyph unicode="&#xea;" horiz-adv-x="913" d="M82 -2v45h24q56 0 76.5 25t20.5 92v600q0 68 -20 93.5t-72 25.5h-29v43q61 -2 180 -2h330q109 0 172 2l8 -203l-43 -6q-12 78 -52 112.5t-118 34.5h-194v-358h167q58 0 79 23t24 91h49q-4 -94 -4 -141q0 -51 4 -147h-49q-3 72 -23.5 93t-87.5 21h-159v-252q0 -37 5 -58.5 t16.5 -37t38.5 -22.5t62 -10t95 -3q86 0 130 11t70 39t52 90h45l-50 -201q-59 2 -167 2h-400q-119 0 -180 -2zM125 1044l319 310l301 -310l-30 -20l-271 176l-290 -176z" />
<glyph unicode="&#xeb;" horiz-adv-x="913" d="M82 -2v45h24q56 0 76.5 25t20.5 92v600q0 68 -20 93.5t-72 25.5h-29v43q61 -2 180 -2h330q109 0 172 2l8 -203l-43 -6q-12 78 -52 112.5t-118 34.5h-194v-358h167q58 0 79 23t24 91h49q-4 -94 -4 -141q0 -51 4 -147h-49q-3 72 -23.5 93t-87.5 21h-159v-252q0 -37 5 -58.5 t16.5 -37t38.5 -22.5t62 -10t95 -3q86 0 130 11t70 39t52 90h45l-50 -201q-59 2 -167 2h-400q-119 0 -180 -2zM195 1188q0 37 27 63.5t65 26.5q35 0 61.5 -26.5t26.5 -63.5t-26.5 -63.5t-63.5 -26.5t-63.5 26.5t-26.5 63.5zM565 1188q0 37 27 63.5t65 26.5q35 0 61.5 -26.5 t26.5 -63.5t-26.5 -63.5t-63.5 -26.5t-63.5 26.5t-26.5 63.5z" />
<glyph unicode="&#xec;" horiz-adv-x="565" d="M-143 1298q0 23 16 38.5t41 15.5q27 0 55 -21l357 -274l-21 -31l-414 215q-15 7 -24.5 23.5t-9.5 33.5zM84 -2v45h33q51 0 69.5 24.5t18.5 92.5v600q0 69 -18.5 94t-69.5 25h-33v45q86 -4 211 -4q112 0 188 4v-45h-30q-49 0 -67.5 -25.5t-18.5 -93.5v-600q0 -67 18 -92 t68 -25h30v-45q-152 2 -221 2q-78 0 -178 -2z" />
<glyph unicode="&#xed;" horiz-adv-x="565" d="M82 -2v45h33q51 0 69.5 24.5t18.5 92.5v600q0 69 -18.5 94t-69.5 25h-33v45q86 -4 211 -4q112 0 188 4v-45h-30q-49 0 -67.5 -25.5t-18.5 -93.5v-600q0 -67 18 -92t68 -25h30v-45q-152 2 -221 2q-78 0 -178 -2zM260 1057l356 274q28 21 58 21q23 0 39 -15.5t16 -38.5 q0 -17 -10 -33t-25 -24l-411 -215z" />
<glyph unicode="&#xee;" horiz-adv-x="565" d="M-6 1044l291 310l274 -310l-29 -20l-245 176l-262 -176zM82 -2v45h33q51 0 69.5 24.5t18.5 92.5v600q0 69 -18.5 94t-69.5 25h-33v45q86 -4 211 -4q112 0 188 4v-45h-30q-49 0 -67.5 -25.5t-18.5 -93.5v-600q0 -67 18 -92t68 -25h30v-45q-152 2 -221 2q-78 0 -178 -2z " />
<glyph unicode="&#xef;" horiz-adv-x="565" d="M47 1188q0 37 27 63.5t65 26.5q35 0 61.5 -26.5t26.5 -63.5t-26.5 -63.5t-63.5 -26.5t-63.5 26.5t-26.5 63.5zM82 -2v45h33q51 0 69.5 24.5t18.5 92.5v600q0 69 -18.5 94t-69.5 25h-33v45q86 -4 211 -4q112 0 188 4v-45h-30q-49 0 -67.5 -25.5t-18.5 -93.5v-600 q0 -67 18 -92t68 -25h30v-45q-152 2 -221 2q-78 0 -178 -2zM365 1188q0 37 27 63.5t65 26.5q35 0 61.5 -26.5t26.5 -63.5t-26.5 -63.5t-63.5 -26.5t-63.5 26.5t-26.5 63.5z" />
<glyph unicode="&#xf0;" horiz-adv-x="1161" d="M57 426v68h146v266q0 68 -18.5 93.5t-69.5 25.5h-31v45q131 -4 174 -4q29 0 121.5 3t105.5 3q183 0 336 -72q122 -59 185 -163.5t63 -248.5q0 -202 -152.5 -326t-400.5 -120l-125 2q-16 0 -54.5 1t-64.5 1q-67 0 -190 -2v45h33q51 0 69.5 24.5t18.5 92.5v266h-146z M365 190q0 -82 32.5 -110.5t126.5 -28.5q158 0 258.5 107.5t100.5 277.5q0 132 -51.5 230t-147 151t-223.5 53q-83 0 -92 -12q-3 -2 -3.5 -6.5t-0.5 -32.5v-325h245v-68h-245v-236z" />
<glyph unicode="&#xf1;" horiz-adv-x="1146" d="M35 881v41q55 -2 127 -2q70 0 125 2l628 -680v520q0 64 -26 91.5t-88 27.5h-39v41q78 -2 184 -2q100 0 172 2v-41h-14q-117 0 -117 -142v-757h-43l-674 731v-355q0 -156 7.5 -208t35.5 -78q30 -27 125 -29v-45q-76 2 -174 2q-76 0 -205 -2v45h29q66 0 88.5 26.5 t22.5 104.5v475q0 72 -2.5 106.5t-5.5 45t-13 26.5q-45 54 -143 54zM299 1110q62 184 176 184q35 0 75.5 -15t158.5 -71q49 -22 71 -22q57 0 111 100l39 -16q-37 -99 -79 -144t-97 -45q-56 0 -154 52q-87 44 -105.5 51.5t-41.5 7.5q-68 0 -115 -96z" />
<glyph unicode="&#xf2;" horiz-adv-x="1193" d="M90 467q0 123 69 231.5t184.5 173t246.5 64.5q138 0 256 -63.5t187 -172.5t69 -237q0 -126 -68.5 -236t-184.5 -175.5t-249 -65.5q-139 0 -256.5 64.5t-185.5 175t-68 241.5zM176 1298q0 23 16 38.5t41 15.5q28 0 56 -21l356 -274l-20 -31l-414 215q-15 8 -25 24t-10 33z M276 500q0 -166 86 -305q100 -154 252 -154q134 0 217.5 106.5t83.5 276.5q0 81 -24.5 165.5t-65.5 149.5q-93 142 -250 142t-237 -136q-62 -111 -62 -245z" />
<glyph unicode="&#xf3;" horiz-adv-x="1193" d="M90 467q0 123 69 231.5t184.5 173t246.5 64.5q138 0 256 -63.5t187 -172.5t69 -237q0 -126 -68.5 -236t-184.5 -175.5t-249 -65.5q-139 0 -256.5 64.5t-185.5 175t-68 241.5zM276 500q0 -166 86 -305q100 -154 252 -154q134 0 217.5 106.5t83.5 276.5q0 81 -24.5 165.5 t-65.5 149.5q-93 142 -250 142t-237 -136q-62 -111 -62 -245zM553 1057l356 274q28 21 58 21q23 0 39 -15.5t16 -38.5q0 -17 -10 -33t-25 -24l-412 -215z" />
<glyph unicode="&#xf4;" horiz-adv-x="1193" d="M90 467q0 123 69 231.5t184.5 173t246.5 64.5q138 0 256 -63.5t187 -172.5t69 -237q0 -126 -68.5 -236t-184.5 -175.5t-249 -65.5q-139 0 -256.5 64.5t-185.5 175t-68 241.5zM276 500q0 -166 86 -305q100 -154 252 -154q134 0 217.5 106.5t83.5 276.5q0 81 -24.5 165.5 t-65.5 149.5q-93 142 -250 142t-237 -136q-62 -111 -62 -245zM279 1044l319 310l301 -310l-31 -20l-270 176l-291 -176z" />
<glyph unicode="&#xf5;" horiz-adv-x="1193" d="M90 467q0 123 69 231.5t184.5 173t246.5 64.5q138 0 256 -63.5t187 -172.5t69 -237q0 -126 -68.5 -236t-184.5 -175.5t-249 -65.5q-139 0 -256.5 64.5t-185.5 175t-68 241.5zM276 500q0 -166 86 -305q100 -154 252 -154q134 0 217.5 106.5t83.5 276.5q0 81 -24.5 165.5 t-65.5 149.5q-93 142 -250 142t-237 -136q-62 -111 -62 -245zM301 1110q62 184 176 184q35 0 75.5 -15t158.5 -71q49 -22 71 -22q57 0 111 100l39 -16q-37 -99 -79 -144t-97 -45q-56 0 -154 52q-87 44 -105.5 51.5t-41.5 7.5q-68 0 -115 -96z" />
<glyph unicode="&#xf6;" horiz-adv-x="1193" d="M90 467q0 123 69 231.5t184.5 173t246.5 64.5q138 0 256 -63.5t187 -172.5t69 -237q0 -126 -68.5 -236t-184.5 -175.5t-249 -65.5q-139 0 -256.5 64.5t-185.5 175t-68 241.5zM276 500q0 -166 86 -305q100 -154 252 -154q134 0 217.5 106.5t83.5 276.5q0 81 -24.5 165.5 t-65.5 149.5q-93 142 -250 142t-237 -136q-62 -111 -62 -245zM322 1188q0 37 27 63.5t65 26.5q35 0 61.5 -26.5t26.5 -63.5t-26.5 -63.5t-63.5 -26.5t-63.5 26.5t-26.5 63.5zM692 1188q0 37 27 63.5t65 26.5q35 0 61.5 -26.5t26.5 -63.5t-26.5 -63.5t-63.5 -26.5t-63.5 26.5 t-26.5 63.5z" />
<glyph unicode="&#xf7;" d="M47 655v88h932v-88h-932zM432 322q0 32 24 55.5t58 23.5q32 0 56 -23.5t24 -55.5q0 -34 -24 -58t-58 -24q-32 0 -56 24t-24 58zM432 1075q0 32 24 56t58 24q32 0 56 -24t24 -56q0 -34 -24 -58t-58 -24q-32 0 -56 24t-24 58z" />
<glyph unicode="&#xf8;" horiz-adv-x="1193" d="M90 463q0 93 41 180.5t108.5 151.5t159.5 102.5t191 38.5q165 0 313 -100l127 137l55 -51l-124 -131q141 -141 141 -328q0 -127 -68.5 -237t-184.5 -175t-249 -65q-161 0 -307 96l-123 -129l-51 49l117 125q-146 143 -146 336zM276 498q0 -135 62 -262l481 512 q-50 69 -108 101t-136 32q-135 0 -217 -105.5t-82 -277.5zM377 172q53 -69 108 -100t127 -31q135 0 219 106t84 277q0 129 -59 256z" />
<glyph unicode="&#xf9;" horiz-adv-x="1058" d="M45 881v43q76 -4 193 -4q124 0 206 4v-43h-30q-49 0 -67.5 -25.5t-18.5 -93.5v-402q0 -155 68 -239t194 -84q60 0 111.5 23.5t82.5 64.5q28 35 36.5 78t8.5 141v418q0 69 -19 94t-73 25h-28v43q51 -4 131 -4q114 0 186 4v-43h-33q-51 0 -69.5 -25.5t-18.5 -93.5v-418 q0 -114 -16 -163.5t-68 -96.5q-111 -102 -286 -102q-101 0 -188 37t-130 98q-28 42 -39.5 90t-11.5 127v428q0 68 -18.5 93.5t-69.5 25.5h-33zM170 1298q0 23 16 38.5t41 15.5q28 0 56 -21l356 -274l-21 -31l-413 215q-15 8 -25 24t-10 33z" />
<glyph unicode="&#xfa;" horiz-adv-x="1058" d="M45 881v43q76 -4 193 -4q124 0 206 4v-43h-30q-49 0 -67.5 -25.5t-18.5 -93.5v-402q0 -155 68 -239t194 -84q60 0 111.5 23.5t82.5 64.5q28 35 36.5 78t8.5 141v418q0 69 -19 94t-73 25h-28v43q51 -4 131 -4q114 0 186 4v-43h-33q-51 0 -69.5 -25.5t-18.5 -93.5v-418 q0 -114 -16 -163.5t-68 -96.5q-111 -102 -286 -102q-101 0 -188 37t-130 98q-28 42 -39.5 90t-11.5 127v428q0 68 -18.5 93.5t-69.5 25.5h-33zM514 1057l356 274q28 21 58 21q23 0 39 -15.5t16 -38.5q0 -17 -10 -33t-25 -24l-411 -215z" />
<glyph unicode="&#xfb;" horiz-adv-x="1058" d="M45 881v43q76 -4 193 -4q124 0 206 4v-43h-30q-49 0 -67.5 -25.5t-18.5 -93.5v-402q0 -155 68 -239t194 -84q60 0 111.5 23.5t82.5 64.5q28 35 36.5 78t8.5 141v418q0 69 -19 94t-73 25h-28v43q51 -4 131 -4q114 0 186 4v-43h-33q-51 0 -69.5 -25.5t-18.5 -93.5v-418 q0 -114 -16 -163.5t-68 -96.5q-111 -102 -286 -102q-101 0 -188 37t-130 98q-28 42 -39.5 90t-11.5 127v428q0 68 -18.5 93.5t-69.5 25.5h-33zM274 1044l320 310l301 -310l-31 -20l-270 176l-291 -176z" />
<glyph unicode="&#xfc;" horiz-adv-x="1058" d="M45 881v43q76 -4 193 -4q124 0 206 4v-43h-30q-49 0 -67.5 -25.5t-18.5 -93.5v-402q0 -155 68 -239t194 -84q60 0 111.5 23.5t82.5 64.5q28 35 36.5 78t8.5 141v418q0 69 -19 94t-73 25h-28v43q51 -4 131 -4q114 0 186 4v-43h-33q-51 0 -69.5 -25.5t-18.5 -93.5v-418 q0 -114 -16 -163.5t-68 -96.5q-111 -102 -286 -102q-101 0 -188 37t-130 98q-28 42 -39.5 90t-11.5 127v428q0 68 -18.5 93.5t-69.5 25.5h-33zM301 1188q0 37 27 63.5t65 26.5q35 0 61.5 -26.5t26.5 -63.5t-26.5 -63.5t-63.5 -26.5t-63.5 26.5t-26.5 63.5zM672 1188 q0 37 27 63.5t65 26.5q35 0 61.5 -26.5t26.5 -63.5t-26.5 -63.5t-63.5 -26.5t-63.5 26.5t-26.5 63.5z" />
<glyph unicode="&#xfd;" horiz-adv-x="886" d="M-29 883v41q127 -2 183 -2q55 0 184 2v-43q-43 0 -59.5 -7t-16.5 -24q0 -18 21 -45l209 -279l178 244q26 36 26 66q0 45 -67 45h-21v43q106 -2 162 -2q77 0 145 2v-41q-56 -3 -83 -23.5t-91 -105.5l-211 -283v-311q0 -67 18 -92t66 -25h33v-45q-121 2 -188 2 q-64 0 -199 -2v45h21q51 0 69.5 24.5t18.5 92.5v289l-232 303q-64 82 -93 106t-73 25zM449 1057l356 274q28 21 57 21q23 0 39.5 -15.5t16.5 -38.5q0 -17 -10 -33t-25 -24l-412 -215z" />
<glyph unicode="&#xfe;" horiz-adv-x="825" d="M82 -2v45h33q51 0 69.5 24.5t18.5 92.5v600q0 69 -18.5 94t-69.5 25h-33v45q86 -4 211 -4q112 0 188 4v-45h-30q-49 0 -67.5 -25.5t-18.5 -93.5v-29q63 2 94 2q153 0 247.5 -70t94.5 -184q0 -120 -94 -197t-240 -77q-25 0 -43 2v33q93 5 139 43q74 61 74 172 q0 103 -60 163t-161 60q-26 0 -51 -4v-514q0 -67 18 -92t68 -25h30v-45q-150 2 -221 2q-78 0 -178 -2z" />
<glyph unicode="&#xff;" horiz-adv-x="886" d="M-29 883v41q127 -2 183 -2q55 0 184 2v-43q-43 0 -59.5 -7t-16.5 -24q0 -18 21 -45l209 -279l178 244q26 36 26 66q0 45 -67 45h-21v43q106 -2 162 -2q77 0 145 2v-41q-56 -3 -83 -23.5t-91 -105.5l-211 -283v-311q0 -67 18 -92t66 -25h33v-45q-121 2 -188 2 q-64 0 -199 -2v45h21q51 0 69.5 24.5t18.5 92.5v289l-232 303q-64 82 -93 106t-73 25zM203 1188q0 37 27 63.5t65 26.5q35 0 61.5 -26.5t26.5 -63.5t-26.5 -63.5t-63.5 -26.5t-63.5 26.5t-26.5 63.5zM573 1188q0 37 27.5 63.5t65.5 26.5q35 0 61.5 -26.5t26.5 -63.5 t-26.5 -63.5t-63.5 -26.5t-64 26.5t-27 63.5z" />
<glyph unicode="&#x152;" horiz-adv-x="2017" d="M88 662q0 144 58 276.5t155.5 229.5t231 154.5t278.5 57.5q62 0 214 -7t177 -7h410q145 0 237 4l13 -291l-37 -6q-12 70 -43.5 119.5t-80.5 75.5t-112 26h-321v-557h258q62 0 96.5 16.5t51 54t18.5 105.5h45q-4 -125 -4 -198q0 -65 4 -223h-45q-5 99 -38.5 136.5 t-119.5 37.5h-266v-383q0 -85 20.5 -127.5t73.5 -65.5q56 -22 233 -22q63 0 106 3t81 12.5t63 23t48.5 38.5t41.5 56t39 78l35 -13l-63 -270q-90 4 -236 4h-496q-65 0 -206.5 -7t-202.5 -7q-204 0 -368 87.5t-256.5 242t-92.5 346.5zM289 709q0 -235 106 -398 q53 -80 125.5 -139.5t157.5 -91t172 -31.5q63 0 113.5 20.5t78.5 55.5q41 54 41 176v789q0 110 -67 168.5t-193 58.5q-104 0 -205.5 -43.5t-173.5 -118.5q-75 -80 -115 -195t-40 -251z" />
<glyph unicode="&#x153;" horiz-adv-x="1513" d="M90 444q0 130 70.5 243.5t191 180t258.5 62.5l80 -2q52 -1 114.5 -4.5t84.5 -3.5h336q76 0 170 2l8 -201l-45 -8q-13 82 -53.5 114.5t-126.5 32.5h-213v-360h159q65 0 86.5 23t22.5 93h51q-4 -111 -4 -145t4 -143h-51q-1 70 -22.5 91t-86.5 21h-159v-254q0 -37 5 -58.5 t16.5 -37t38.5 -22.5t62 -10t95 -3q126 0 172 26.5t80 117.5l45 -19l-49 -182q-68 2 -168 2h-449q-3 -1 -103 -5.5t-114 -4.5q-214 0 -360 131t-146 323zM276 475q0 -181 105.5 -304.5t259.5 -123.5q78 0 112.5 38t34.5 124v518q0 145 -163 145q-154 0 -251.5 -111 t-97.5 -286z" />
<glyph unicode="&#x178;" horiz-adv-x="1198" d="M-63 1321v49q115 -4 241 -4t230 4v-49q-58 0 -82.5 -10t-24.5 -33q0 -36 37 -86l326 -422l278 379q47 66 47 111q0 32 -30.5 46.5t-96.5 14.5v49q96 -4 217 -4q107 0 181 4v-49q-73 -4 -114.5 -37.5t-123.5 -144.5l-328 -439v-460q0 -103 30 -149t97 -46h51v-49 q-158 4 -254 4q-94 0 -262 -4v49h33q67 0 97 46t30 149v428l-352 471q-74 99 -122.5 139t-104.5 43zM340 1679q0 40 28.5 68.5t69.5 28.5q38 0 66 -29t28 -68q0 -40 -28 -68t-68 -28q-38 0 -67 29t-29 67zM735 1679q0 40 29 68.5t70 28.5q38 0 66 -29t28 -68 q0 -40 -28.5 -68t-68.5 -28q-38 0 -67 29t-29 67z" />
<glyph unicode="&#x2c6;" d="M203 1044l319 310l301 -310l-30 -20l-271 176l-291 -176z" />
<glyph unicode="&#x2dc;" d="M197 1110q62 184 176 184q35 0 74.5 -15t158.5 -71q49 -22 72 -22q29 0 55 23t55 77l39 -16q-37 -99 -79 -144t-97 -45t-153 52q-86 43 -105.5 51t-42.5 8q-67 0 -114 -96z" />
<glyph unicode="&#x2000;" horiz-adv-x="929" />
<glyph unicode="&#x2001;" horiz-adv-x="1858" />
<glyph unicode="&#x2002;" horiz-adv-x="929" />
<glyph unicode="&#x2003;" horiz-adv-x="1858" />
<glyph unicode="&#x2004;" horiz-adv-x="619" />
<glyph unicode="&#x2005;" horiz-adv-x="464" />
<glyph unicode="&#x2006;" horiz-adv-x="309" />
<glyph unicode="&#x2007;" horiz-adv-x="309" />
<glyph unicode="&#x2008;" horiz-adv-x="232" />
<glyph unicode="&#x2009;" horiz-adv-x="371" />
<glyph unicode="&#x200a;" horiz-adv-x="103" />
<glyph unicode="&#x2010;" horiz-adv-x="423" d="M0 383l27 109h397l-29 -109h-395z" />
<glyph unicode="&#x2011;" horiz-adv-x="423" d="M0 383l27 109h397l-29 -109h-395z" />
<glyph unicode="&#x2012;" horiz-adv-x="423" d="M0 383l27 109h397l-29 -109h-395z" />
<glyph unicode="&#x2013;" horiz-adv-x="806" d="M41 383l27 109h698l-27 -109h-698z" />
<glyph unicode="&#x2014;" horiz-adv-x="1263" d="M0 383l27 109h1237l-29 -109h-1235z" />
<glyph unicode="&#x2018;" horiz-adv-x="497" d="M117 1198q0 122 70 203t188 94l6 -35q-77 -8 -126.5 -60.5t-49.5 -125.5q0 -37 13.5 -54t45.5 -20q60 -6 87.5 -27.5t27.5 -64.5q0 -40 -31.5 -67t-77.5 -27q-69 0 -111 50.5t-42 133.5z" />
<glyph unicode="&#x2019;" horiz-adv-x="497" d="M117 1051q76 6 126 58t50 126q0 37 -14 54t-46 20q-60 6 -87 27.5t-27 64.5q0 40 31 67t77 27q69 0 111.5 -50.5t42.5 -133.5q0 -122 -69.5 -203t-186.5 -94z" />
<glyph unicode="&#x201a;" horiz-adv-x="505" d="M90 -297q92 7 150.5 69t58.5 150q0 43 -16 62t-54 24q-72 8 -104.5 33t-32.5 76q0 47 37 78.5t92 31.5q80 0 130 -60t50 -157q0 -143 -82 -238t-221 -112z" />
<glyph unicode="&#x201c;" horiz-adv-x="837" d="M117 1198q0 122 70 203t188 94l6 -35q-77 -8 -126.5 -60.5t-49.5 -125.5q0 -37 13.5 -54t45.5 -20q60 -6 87.5 -27.5t27.5 -64.5q0 -40 -31.5 -67t-77.5 -27q-69 0 -111 50.5t-42 133.5zM459 1198q0 122 69.5 203t186.5 94l8 -35q-77 -8 -126.5 -60.5t-49.5 -125.5 q0 -37 13.5 -54t45.5 -20q60 -6 87.5 -27.5t27.5 -64.5q0 -40 -31.5 -67t-77.5 -27q-69 0 -111 50.5t-42 133.5z" />
<glyph unicode="&#x201d;" horiz-adv-x="837" d="M117 1051q76 6 126 58t50 126q0 37 -14 54t-46 20q-60 6 -87 27.5t-27 64.5q0 40 31 67t77 27q69 0 111.5 -50.5t42.5 -133.5q0 -122 -69.5 -203t-186.5 -94zM459 1051q76 6 126 58t50 126q0 37 -14 54t-46 20q-60 6 -87 27.5t-27 64.5q0 40 31 67t77 27 q69 0 111.5 -50.5t42.5 -133.5q0 -122 -70 -203t-188 -94z" />
<glyph unicode="&#x201e;" horiz-adv-x="837" d="M117 -244q77 8 126.5 60t49.5 127q0 37 -14 53.5t-46 19.5q-60 6 -87 28t-27 65q0 40 31 67t77 27q69 0 111.5 -51t42.5 -134q0 -122 -69.5 -203t-186.5 -94zM459 -244q76 7 126 60t50 127q0 37 -14 53.5t-46 19.5q-60 6 -87 28t-27 65q0 40 31 67t77 27q69 0 111.5 -51 t42.5 -134q0 -123 -69.5 -203t-188.5 -94z" />
<glyph unicode="&#x2022;" horiz-adv-x="1366" d="M401 692q0 120 83.5 202.5t205.5 82.5q114 0 196.5 -83.5t82.5 -199.5q0 -118 -83 -201t-200 -83t-201 82.5t-84 199.5z" />
<glyph unicode="&#x2026;" horiz-adv-x="1515" d="M133 92q0 50 35 84.5t86 34.5q48 0 82.5 -35t34.5 -84q0 -50 -34.5 -84.5t-84.5 -34.5t-84.5 34.5t-34.5 84.5zM639 92q0 50 35 84.5t86 34.5q48 0 82.5 -35t34.5 -84q0 -50 -34.5 -84.5t-84.5 -34.5t-84.5 34.5t-34.5 84.5zM1143 92q0 50 35 84.5t86 34.5q47 0 81.5 -35 t34.5 -84q0 -50 -34.5 -84.5t-83.5 -34.5q-50 0 -84.5 34.5t-34.5 84.5z" />
<glyph unicode="&#x202f;" horiz-adv-x="371" />
<glyph unicode="&#x2039;" horiz-adv-x="499" d="M55 438l324 326l33 -35l-201 -291l209 -282l-37 -43z" />
<glyph unicode="&#x203a;" horiz-adv-x="499" d="M82 156l209 282l-203 291l35 35l323 -326l-327 -325z" />
<glyph unicode="&#x205f;" horiz-adv-x="464" />
<glyph unicode="&#x20ac;" horiz-adv-x="1222" d="M117 344l30 72h82q-2 18 -2 45q0 16 2 26h-112l30 72h93q38 167 188 271t354 104q177 0 332 -70l16 -188l-43 -2q-26 107 -95 156t-195 49q-154 0 -253 -84.5t-122 -235.5h559l-31 -72h-534q0 -48 4 -71h500l-31 -72h-453q41 -144 139.5 -225.5t229.5 -81.5 q64 0 123.5 22t93.5 58q19 21 32 49.5t33 89.5l39 -12l-24 -185q-119 -77 -322 -77q-204 0 -348 97.5t-190 264.5h-125z" />
<glyph unicode="&#x2122;" horiz-adv-x="2023" d="M4 1212q16 103 16 183h39q17 -29 56 -29h612q38 0 55 29h39q0 -20 0.5 -35t0.5 -24.5t2 -26t3 -23t5 -33.5t6 -41h-41q-12 59 -42 79t-106 20h-166v-617q0 -58 16.5 -83t53.5 -25h51v-43q-80 4 -184 4q-102 0 -182 -4v43h51q37 0 53 25t16 83v617h-165q-76 0 -106 -20 t-42 -79h-41zM829 545v41h13q24 0 41.5 3t31 7.5t23 15t15.5 20.5t10 28.5t6.5 35t5.5 43.5l43 459q2 12 2 37q0 101 -105 92h-8v41q49 -2 111 -2q57 0 102 2l305 -666l336 666q43 -2 99 -2q57 0 100 2v-41q-66 -4 -83 -26t-17 -99v-31l14 -485q1 -57 28 -78.5t91 -21.5h10 v-41q-176 2 -197 2q-30 0 -184 -2v41q81 3 103.5 22.5t19.5 87.5q-3 92 -7 265t-5 210l-314 -632h-53l-295 620l-35 -434q-2 -14 -2 -41q0 -52 25 -73.5t90 -24.5v-41q-82 2 -176 2q-83 0 -144 -2z" />
<glyph unicode="&#xfb01;" horiz-adv-x="1355" d="M82 -2v45h33q51 0 69.5 25.5t18.5 91.5v600q0 68 -18.5 93.5t-69.5 25.5h-33v43q92 -2 203 -2h317q100 0 170 2v-209h-45q-12 82 -44 110.5t-110 28.5h-208v-352h159q66 0 87.5 22t21.5 94h49q-2 -51 -2 -129q0 -98 2 -161h-49q-3 67 -25 90.5t-82 23.5h-161v-280 q0 -67 18 -92t68 -25h41v-45q-90 2 -207 2q-115 0 -203 -2zM872 -2v45h33q51 0 69.5 24.5t18.5 92.5v600q0 69 -18.5 94t-69.5 25h-33v45q86 -4 211 -4q113 0 189 4v-45h-31q-49 0 -67.5 -25.5t-18.5 -93.5v-600q0 -67 18 -92t68 -25h31v-45q-152 2 -221 2q-79 0 -179 -2z " />
<glyph unicode="&#xfb02;" horiz-adv-x="1669" d="M82 -2v45h33q51 0 69.5 25.5t18.5 91.5v600q0 68 -18.5 93.5t-69.5 25.5h-33v43q92 -2 203 -2h317q100 0 170 2v-209h-45q-12 82 -44 110.5t-110 28.5h-208v-352h159q66 0 87.5 22t21.5 94h49q-2 -51 -2 -129q0 -98 2 -161h-49q-3 67 -25 90.5t-82 23.5h-161v-280 q0 -67 18 -92t68 -25h41v-45q-90 2 -207 2q-115 0 -203 -2zM872 -2v45h33q51 0 69.5 24.5t18.5 92.5v600q0 68 -18.5 93.5t-69.5 25.5h-33v45q68 -4 175 -4q139 0 225 4v-45h-31q-49 0 -67.5 -25.5t-18.5 -93.5v-543q0 -100 34 -130t146 -30q144 0 203.5 32.5t93.5 129.5 l41 -18l-59 -203q-133 2 -168 2h-367q-131 0 -207 -2z" />
</font>
</defs>
</svg>
